<svg width="33" height="32" viewBox="0 0 33 32" fill="none" xmlns="http://www.w3.org/2000/svg">
<g clip-path="url(#clip0_1138_13469)">
<path d="M28.9853 9.14001V10.67H27.4653V12.19H28.9853V13.72H30.5053V12.19H32.0353V10.67H30.5053V9.14001H28.9853Z" fill="#000001"/>
<path d="M30.5054 25.91H28.9854V27.43H30.5054V25.91Z" fill="#000001"/>
<path d="M25.9353 24.3801H24.4153V25.9101H25.9353V27.4301H27.4653V19.8101H25.9353V24.3801Z" fill="#000001"/>
<path d="M27.4653 4.56995H25.9353V6.09995H27.4653V4.56995Z" fill="#000001"/>
<path d="M25.9353 18.29H24.4153V19.81H25.9353V18.29Z" fill="#000001"/>
<path d="M21.3653 4.57V3.05H19.8453V1.52H18.3153V0H13.7453V1.52H12.2253V3.05H10.6953V4.57H9.17527V16.76H7.65527V18.29H9.17527V22.86H7.65527V24.38H10.6953V7.62H21.3653V24.38H24.4153V22.86H22.8953V18.29H24.4153V16.76H22.8953V4.57H21.3653Z" fill="#000001"/>
<path d="M19.8453 27.4301H18.3153V30.4801H19.8453V27.4301Z" fill="#000001"/>
<path d="M21.3653 24.38H10.6953V25.91H21.3653V24.38Z" fill="#000001"/>
<path d="M18.3153 18.29H16.7953V19.81H18.3153V18.29Z" fill="#000001"/>
<path d="M18.3153 10.67H16.7953V12.19H18.3153V10.67Z" fill="#000001"/>
<path d="M16.7953 27.4301H15.2753V32.0001H16.7953V27.4301Z" fill="#000001"/>
<path d="M16.7953 19.8101H15.2753V21.3301H16.7953V19.8101Z" fill="#000001"/>
<path d="M16.7953 16.76H15.2753V18.29H16.7953V16.76Z" fill="#000001"/>
<path d="M16.7953 12.1899H15.2753V13.7199H16.7953V12.1899Z" fill="#000001"/>
<path d="M16.7953 9.14001H15.2753V10.67H16.7953V9.14001Z" fill="#000001"/>
<path d="M15.2752 18.29H13.7452V19.81H15.2752V18.29Z" fill="#000001"/>
<path d="M15.2752 10.67H13.7452V12.19H15.2752V10.67Z" fill="#000001"/>
<path d="M13.7453 27.4301H12.2253V30.4801H13.7453V27.4301Z" fill="#000001"/>
<path d="M7.65524 18.29H6.12524V19.81H7.65524V18.29Z" fill="#000001"/>
<path d="M6.12535 19.8101H4.60535V27.4301H6.12535V25.9101H7.65535V24.3801H6.12535V19.8101Z" fill="#000001"/>
<path d="M6.12535 4.56995H4.60535V6.09995H6.12535V4.56995Z" fill="#000001"/>
<path d="M4.60533 12.1899H3.08533V13.7199H4.60533V12.1899Z" fill="#000001"/>
<path d="M4.60533 6.09998H3.08533V7.61998H4.60533V6.09998Z" fill="#000001"/>
<path d="M4.60533 3.05005H3.08533V4.57005H4.60533V3.05005Z" fill="#000001"/>
<path d="M3.0853 28.95H1.5553V30.4799H3.0853V28.95Z" fill="#000001"/>
<path d="M3.0853 4.56995H1.5553V6.09995H3.0853V4.56995Z" fill="#000001"/>
</g>
<defs>
<clipPath id="clip0_1138_13469">
<rect width="32" height="32" fill="white" transform="translate(0.795288)"/>
</clipPath>
</defs>
</svg>
