<svg width="33" height="32" viewBox="0 0 33 32" fill="none" xmlns="http://www.w3.org/2000/svg">
<g clip-path="url(#clip0_1138_13749)">
<path d="M32.7953 28.95H31.2753V32H32.7953V28.95Z" fill="#000001"/>
<path d="M32.7953 10.67H31.2753V12.19H32.7953V10.67Z" fill="#000001"/>
<path d="M31.2752 25.91H29.7552V28.95H31.2752V25.91Z" fill="#000001"/>
<path d="M31.2752 9.14001H29.7552V10.67H31.2752V9.14001Z" fill="#000001"/>
<path d="M29.7553 22.86H28.2253V25.91H29.7553V22.86Z" fill="#000001"/>
<path d="M31.2753 12.1899H26.7053V13.7199H31.2753V12.1899Z" fill="#000001"/>
<path d="M29.7553 7.62H28.2253V9.14H29.7553V7.62Z" fill="#000001"/>
<path d="M26.7053 19.81V16.76H25.1853V13.72H23.6553V10.67H22.1353V9.14H20.6053V6.1H26.7053V4.57H25.1853V3.05H23.6553V4.57H20.6053V1.53H22.1353V0H19.0853V9.14H17.5653V10.67H16.0353V13.72H14.5153V16.76H12.9853V19.81H11.4653V22.86H14.5153V24.38H19.0853V22.86H23.6553V21.34H26.7053V22.86H28.2253V19.81H26.7053ZM17.5653 22.86H16.0353V21.34H17.5653V22.86ZM22.1353 21.34H20.6053V19.81H19.0853V18.29H20.6053V19.81H22.1353V21.34ZM22.1353 15.24H20.6053V12.19H19.0853V10.67H20.6053V12.19H22.1353V15.24ZM25.1853 19.81H23.6553V18.29H25.1853V19.81Z" fill="#000001"/>
<path d="M28.2253 9.14001H26.7053V10.67H28.2253V9.14001Z" fill="#000001"/>
<path d="M26.7053 10.67H25.1853V12.19H26.7053V10.67Z" fill="#000001"/>
<path d="M23.6553 1.53003H22.1353V3.05003H23.6553V1.53003Z" fill="#000001"/>
<path d="M11.4653 22.86H9.94531V25.91H11.4653V22.86Z" fill="#000001"/>
<path d="M11.4653 6.09998H9.94531V7.61998H11.4653V6.09998Z" fill="#000001"/>
<path d="M9.94528 25.91H8.41528V28.95H9.94528V25.91Z" fill="#000001"/>
<path d="M9.94528 4.56995H8.41528V6.09995H9.94528V4.56995Z" fill="#000001"/>
<path d="M8.41526 28.95H6.89526V32H8.41526V28.95Z" fill="#000001"/>
<path d="M8.41526 24.38H6.89526V25.91H8.41526V24.38Z" fill="#000001"/>
<path d="M9.94532 7.62H2.32532V9.14H9.94532V7.62Z" fill="#000001"/>
<path d="M8.41524 3.05005H5.37524V4.57005H8.41524V3.05005Z" fill="#000001"/>
<path d="M6.89524 22.86H5.37524V24.38H6.89524V22.86Z" fill="#000001"/>
<path d="M5.37534 24.38H3.84534V25.91H5.37534V24.38Z" fill="#000001"/>
<path d="M5.37532 4.56995H2.32532V6.09995H5.37532V4.56995Z" fill="#000001"/>
<path d="M3.84532 25.91H2.32532V28.95H3.84532V25.91Z" fill="#000001"/>
<path d="M2.32529 28.95H0.795288V32H2.32529V28.95Z" fill="#000001"/>
<path d="M2.32529 6.09998H0.795288V7.61998H2.32529V6.09998Z" fill="#000001"/>
</g>
<defs>
<clipPath id="clip0_1138_13749">
<rect width="32" height="32" fill="white" transform="translate(0.795288)"/>
</clipPath>
</defs>
</svg>
