<svg width="33" height="32" viewBox="0 0 33 32" fill="none" xmlns="http://www.w3.org/2000/svg">
<g clip-path="url(#clip0_1138_14126)">
<path d="M32.7953 21.33H31.2653V22.86H32.7953V21.33Z" fill="#000001"/>
<path d="M31.2653 13.7199H25.1753V7.61995H26.6953V6.09995H25.1753V4.56995H8.41529V6.09995H6.88529V7.61995H5.36529V9.13995H3.84529V10.6699H2.31529V12.1899H0.795288V16.7599H2.31529V15.2399H9.93529V18.2899H11.4553V21.3299H12.9853V24.3799H14.5053V27.4299H16.0353V15.2399H22.1253V18.2899H20.6053V21.3299H19.0753V24.3799H17.5553V27.4299H16.0353V28.9499H14.5053V30.4799H16.0353V31.9999H17.5553V30.4799H19.0753V28.9499H20.6053V27.4299H22.1253V25.9099H23.6553V24.3799H25.1753V22.8599H26.6953V21.3299H28.2253V19.8099H29.7453V18.2899H31.2653V16.7599H32.7953V12.1899H31.2653V13.7199ZM22.1253 13.7199H11.4553V12.1899H9.93529V6.09995H16.0353V7.61995H17.5553V9.13995H19.0753V10.6699H20.6053V12.1899H22.1253V13.7199Z" fill="#000001"/>
<path d="M31.2653 25.91H29.7453V27.43H31.2653V25.91Z" fill="#000001"/>
<path d="M31.2653 10.67H29.7453V12.19H31.2653V10.67Z" fill="#000001"/>
<path d="M29.7453 27.4301H28.2253V28.9501H29.7453V27.4301Z" fill="#000001"/>
<path d="M29.7453 24.38H28.2253V25.91H29.7453V24.38Z" fill="#000001"/>
<path d="M29.7453 9.14001H28.2253V10.67H29.7453V9.14001Z" fill="#000001"/>
<path d="M28.2253 3.05002H26.6953V4.57002H28.2253V6.10002H29.7453V4.57002H31.2653V3.05002H29.7453V1.52002H28.2253V3.05002Z" fill="#000001"/>
<path d="M28.2253 25.91H26.6953V27.43H28.2253V25.91Z" fill="#000001"/>
<path d="M28.2253 7.62H26.6953V9.14H28.2253V7.62Z" fill="#000001"/>
<path d="M25.1753 30.48H23.6553V32H25.1753V30.48Z" fill="#000001"/>
<path d="M25.1753 0H23.6553V1.52H25.1753V0Z" fill="#000001"/>
<path d="M16.0353 7.62H14.5053V9.14H16.0353V7.62Z" fill="#000001"/>
<path d="M16.0353 1.52002H14.5053V3.05002H16.0353V1.52002Z" fill="#000001"/>
<path d="M14.5053 27.4301H12.9853V28.9501H14.5053V27.4301Z" fill="#000001"/>
<path d="M14.5053 9.14001H12.9853V10.67H14.5053V9.14001Z" fill="#000001"/>
<path d="M12.9853 25.91H11.4553V27.43H12.9853V25.91Z" fill="#000001"/>
<path d="M12.9853 10.67H11.4553V12.19H12.9853V10.67Z" fill="#000001"/>
<path d="M11.4553 28.95H9.9353V30.4799H11.4553V28.95Z" fill="#000001"/>
<path d="M11.4553 24.38H9.9353V25.91H11.4553V24.38Z" fill="#000001"/>
<path d="M9.93528 22.86H8.41528V24.38H9.93528V22.86Z" fill="#000001"/>
<path d="M8.41531 21.33H6.88531V22.86H8.41531V21.33Z" fill="#000001"/>
<path d="M6.8853 19.8101H5.3653V21.3301H6.8853V19.8101Z" fill="#000001"/>
<path d="M6.8853 3.05005H5.3653V4.57005H6.8853V3.05005Z" fill="#000001"/>
<path d="M3.84531 24.38V25.91H2.31531V27.43H3.84531V28.95H5.36531V27.43H6.88531V25.91H5.36531V24.38H3.84531Z" fill="#000001"/>
<path d="M5.36528 18.29H3.84528V19.81H5.36528V18.29Z" fill="#000001"/>
<path d="M5.36528 4.56995H3.84528V6.09995H5.36528V4.56995Z" fill="#000001"/>
<path d="M5.36528 1.52002H3.84528V3.05002H5.36528V1.52002Z" fill="#000001"/>
<path d="M3.84531 16.76H2.31531V18.29H3.84531V16.76Z" fill="#000001"/>
<path d="M3.84531 3.05005H2.31531V4.57005H3.84531V3.05005Z" fill="#000001"/>
<path d="M2.31529 21.33H0.795288V22.86H2.31529V21.33Z" fill="#000001"/>
</g>
<defs>
<clipPath id="clip0_1138_14126">
<rect width="32" height="32" fill="white" transform="translate(0.795288)"/>
</clipPath>
</defs>
</svg>
