<svg width="33" height="32" viewBox="0 0 33 32" fill="none" xmlns="http://www.w3.org/2000/svg">
<path d="M31.2703 12.19H29.7503V15.24H28.2203V13.72H26.7003V12.19H29.7503V10.67H26.7003V9.14001H25.1803V15.24H23.6503V16.76H9.94031V15.24H8.41031V9.14001H6.89531V10.67H3.84031V12.19H6.89531V13.72H5.37031V15.24H3.84031V12.19H2.32031V16.76H3.84031V18.29H6.89531V28.95H8.41531V30.48H9.94531V32H23.6553V30.48H25.1853V28.95H26.7053V18.29H29.7553V16.76H31.2753L31.2703 12.19ZM25.1803 21.34H8.41031V19.81H25.1803V21.34Z" fill="#000001"/>
<path d="M25.1803 7.62H23.6503V9.14H25.1803V7.62Z" fill="#000001"/>
<path d="M25.1803 1.53003H23.6503V4.57003H25.1803V1.53003Z" fill="#000001"/>
<path d="M23.6504 4.56995H22.1304V7.61995H23.6504V4.56995Z" fill="#000001"/>
<path d="M23.6503 0H20.6003V1.53H23.6503V0Z" fill="#000001"/>
<path d="M22.1303 10.67H20.6003V12.19H22.1303V10.67Z" fill="#000001"/>
<path d="M20.6003 1.53003H19.0803V4.57003H20.6003V1.53003Z" fill="#000001"/>
<path d="M19.0803 4.56995H17.5603V6.09995H19.0803V4.56995Z" fill="#000001"/>
<path d="M16.0303 15.2399H17.5603V13.7199H19.0803V12.1899H14.5103V13.7199H16.0303V15.2399Z" fill="#000001"/>
<path d="M17.5603 6.09998H16.0303V7.61998H17.5603V6.09998Z" fill="#000001"/>
<path d="M16.0303 4.56995H14.5103V6.09995H16.0303V4.56995Z" fill="#000001"/>
<path d="M14.5103 1.53003H12.9803V4.57003H14.5103V1.53003Z" fill="#000001"/>
<path d="M12.9803 10.67H11.4603V12.19H12.9803V10.67Z" fill="#000001"/>
<path d="M12.9803 0H9.94031V1.53H12.9803V0Z" fill="#000001"/>
<path d="M11.4603 4.56995H9.94031V7.61995H11.4603V4.56995Z" fill="#000001"/>
<path d="M9.94028 7.62H8.41028V9.14H9.94028V7.62Z" fill="#000001"/>
<path d="M9.94028 1.53003H8.41028V4.57003H9.94028V1.53003Z" fill="#000001"/>
</svg>
