<svg width="33" height="33" viewBox="0 0 33 33" fill="none" xmlns="http://www.w3.org/2000/svg">
<g clip-path="url(#clip0_1128_25081)">
<path d="M32.8502 25.9654H31.3302V27.4854H32.8502V25.9654Z" fill="#000001"/>
<path d="M32.8502 15.2954V12.2454H31.3302V13.7754H29.8002V10.7254H28.2802V16.8254H26.7502V15.2954H25.2302V18.3454H28.2802V22.9154H20.6602V24.4454H32.8502V22.9154H29.8002V15.2954H32.8502Z" fill="#000001"/>
<path d="M32.8502 1.58537H29.8002V3.10537H32.8502V1.58537Z" fill="#000001"/>
<path d="M28.2802 25.9654H26.7502V27.4854H28.2802V25.9654Z" fill="#000001"/>
<path d="M28.2802 4.63537H25.2302V6.15537H28.2802V4.63537Z" fill="#000001"/>
<path d="M22.1802 25.9654H20.6602V27.4854H22.1802V25.9654Z" fill="#000001"/>
<path d="M20.6602 10.7254H16.0902V12.2454H20.6602V13.7754H22.1802V6.15537H20.6602V10.7254Z" fill="#000001"/>
<path d="M14.5602 16.8254H11.5202V18.3454H14.5602V19.8654H11.5202V18.3454H9.99022V24.4454H14.5602V25.9654H9.99022V27.4854H5.42022V29.0204H6.95022V32.0604H9.99022V30.5404H8.47022V29.0204H13.0402V27.4904H14.5602V29.0204H17.6102V27.4904H16.0902V21.4004H17.6102V22.9204H19.1402V19.8704H16.0902V15.3004H20.6602V13.7804H14.5602V16.8254ZM14.5602 22.9154H11.5202V21.3954H14.5602V22.9154Z" fill="#000001"/>
<path d="M14.5602 1.58537H11.5202V3.10537H14.5602V1.58537Z" fill="#000001"/>
<path d="M11.5202 7.67537H9.99022V10.7254H11.5202V7.67537Z" fill="#000001"/>
<path d="M20.6602 4.63537H8.47022V6.15537H20.6602V4.63537Z" fill="#000001"/>
<path d="M9.99022 24.4454H8.47022V25.9654H9.99022V24.4454Z" fill="#000001"/>
<path d="M8.47022 6.15537H6.95022V16.8254H8.47022V6.15537Z" fill="#000001"/>
<path d="M6.95022 16.8254H5.42022V21.3954H6.95022V16.8254Z" fill="#000001"/>
<path d="M5.42022 25.9654H3.90022V27.4854H5.42022V25.9654Z" fill="#000001"/>
<path d="M5.42022 21.3954H3.90022V22.9154H5.42022V21.3954Z" fill="#000001"/>
<path d="M3.90022 24.4454H2.37022V25.9654H3.90022V24.4454Z" fill="#000001"/>
<path d="M3.90022 6.15537H0.85022V7.67537H3.90022V6.15537Z" fill="#000001"/>
<path d="M2.37022 21.3954H3.90022V19.8654H2.37022V18.3454H0.85022V24.4454H2.37022V21.3954Z" fill="#000001"/>
</g>
<defs>
<clipPath id="clip0_1128_25081">
<rect width="32" height="32" fill="white" transform="translate(0.85022 0.820374)"/>
</clipPath>
</defs>
</svg>
