<svg width="33" height="33" viewBox="0 0 33 33" fill="none" xmlns="http://www.w3.org/2000/svg">
<g clip-path="url(#clip0_1128_25166)">
<path d="M31.3302 16.0604H29.8002V23.6804H31.3302V16.0604Z" fill="#000001"/>
<path d="M28.2802 25.2104H29.8002V23.6804H28.2802V16.0604H29.8002V14.5404H28.2802V11.4904H26.7502V14.5404H6.95022V11.4904H5.42022V14.5404H3.90022V16.0604H5.42022V23.6804H3.90022V25.2104H5.42022V26.7304H6.95022V16.0604H26.7502V26.7304H28.2802V25.2104Z" fill="#000001"/>
<path d="M28.2802 0.820374H26.7502V2.35037H28.2802V0.820374Z" fill="#000001"/>
<path d="M26.7502 26.7304H25.2302V28.2504H26.7502V26.7304Z" fill="#000001"/>
<path d="M26.7502 8.44037H25.2302V11.4904H26.7502V8.44037Z" fill="#000001"/>
<path d="M26.7502 2.35037H25.2302V3.87037H26.7502V2.35037Z" fill="#000001"/>
<path d="M25.2302 6.92037H23.7102V8.44037H25.2302V6.92037Z" fill="#000001"/>
<path d="M25.2302 3.87037H23.7102V5.40037H25.2302V3.87037Z" fill="#000001"/>
<path d="M22.1802 31.3004H23.7102V29.7804H25.2302V28.2504H22.1802V31.3004Z" fill="#000001"/>
<path d="M23.7102 5.40038H20.6602V6.92038H23.7102V5.40038Z" fill="#000001"/>
<path d="M22.1802 31.3004H19.1402V32.8204H22.1802V31.3004Z" fill="#000001"/>
<path d="M14.5602 28.2504V31.3004H16.0902V29.7804H17.6102V31.3004H19.1402V28.2504H14.5602Z" fill="#000001"/>
<path d="M20.6602 3.87037H13.0402V5.40037H20.6602V3.87037Z" fill="#000001"/>
<path d="M14.5602 31.3004H11.5202V32.8204H14.5602V31.3004Z" fill="#000001"/>
<path d="M23.7102 13.0104V9.97037H22.1802V8.44037H11.5202V9.97037H9.99022V13.0104H23.7102ZM19.1402 9.97037H20.6602V11.4904H19.1402V9.97037ZM13.0402 9.97037H14.5602V11.4904H13.0402V9.97037Z" fill="#000001"/>
<path d="M13.0402 5.40038H9.99022V6.92038H13.0402V5.40038Z" fill="#000001"/>
<path d="M8.47023 28.2504V29.7804H9.99023V31.3004H11.5202V28.2504H8.47023Z" fill="#000001"/>
<path d="M9.99023 6.92037H8.47023V8.44037H9.99023V6.92037Z" fill="#000001"/>
<path d="M9.99023 3.87037H8.47023V5.40037H9.99023V3.87037Z" fill="#000001"/>
<path d="M8.47023 26.7304H6.95023V28.2504H8.47023V26.7304Z" fill="#000001"/>
<path d="M8.47023 8.44037H6.95023V11.4904H8.47023V8.44037Z" fill="#000001"/>
<path d="M8.47023 2.35037H6.95023V3.87037H8.47023V2.35037Z" fill="#000001"/>
<path d="M6.95023 0.820374H5.42023V2.35037H6.95023V0.820374Z" fill="#000001"/>
<path d="M3.90022 16.0604H2.37022V23.6804H3.90022V16.0604Z" fill="#000001"/>
</g>
<defs>
<clipPath id="clip0_1128_25166">
<rect width="32" height="32" fill="white" transform="translate(0.85022 0.820374)"/>
</clipPath>
</defs>
</svg>
