<svg width="33" height="33" viewBox="0 0 33 33" fill="none" xmlns="http://www.w3.org/2000/svg">
<g clip-path="url(#clip0_1128_24908)">
<path d="M32.8502 2.35037H31.3302V31.3004H32.8502V2.35037Z" fill="#000001"/>
<path d="M31.3302 31.3004H2.37022V32.8204H31.3302V31.3004Z" fill="#000001"/>
<path d="M28.2802 25.2104H26.7502V26.7304H28.2802V25.2104Z" fill="#000001"/>
<path d="M3.90022 3.87037V20.6304H29.8002V3.87037H3.90022ZM28.2802 19.1104H5.42022V5.40037H28.2802V19.1104Z" fill="#000001"/>
<path d="M26.7502 26.7304H25.2302V28.2504H26.7502V26.7304Z" fill="#000001"/>
<path d="M26.7502 23.6804H25.2302V25.2104H26.7502V23.6804Z" fill="#000001"/>
<path d="M25.2302 13.0104H26.7502V11.4904H25.2302V9.97037H23.7102V14.5404H22.1802V16.0604H25.2302V13.0104Z" fill="#000001"/>
<path d="M23.7102 23.6804H22.1802V28.2504H23.7102V23.6804Z" fill="#000001"/>
<path d="M19.1402 9.97037H17.6102V11.4904H20.6602V6.92037H16.0902V8.44037H19.1402V9.97037Z" fill="#000001"/>
<path d="M17.6102 23.6804H16.0902V22.1604H14.5602V29.7804H16.0902V28.2504H17.6102V26.7304H19.1402V25.2104H17.6102V23.6804Z" fill="#000001"/>
<path d="M16.0902 8.44037H14.5602V11.4904H13.0402V13.0104H16.0902V8.44037Z" fill="#000001"/>
<path d="M11.5202 23.6804H9.99022V28.2504H11.5202V23.6804Z" fill="#000001"/>
<path d="M9.99022 9.97037H8.47022V14.5404H6.95022V16.0604H9.99022V9.97037Z" fill="#000001"/>
<path d="M8.47022 26.7304H6.95022V28.2504H8.47022V26.7304Z" fill="#000001"/>
<path d="M8.47022 23.6804H6.95022V25.2104H8.47022V23.6804Z" fill="#000001"/>
<path d="M6.95022 25.2104H5.42022V26.7304H6.95022V25.2104Z" fill="#000001"/>
<path d="M31.3302 0.820374H2.37022V2.35037H31.3302V0.820374Z" fill="#000001"/>
<path d="M2.37022 2.35037H0.85022V31.3004H2.37022V2.35037Z" fill="#000001"/>
</g>
<defs>
<clipPath id="clip0_1128_24908">
<rect width="32" height="32" fill="white" transform="translate(0.85022 0.820374)"/>
</clipPath>
</defs>
</svg>
