<svg width="33" height="33" viewBox="0 0 33 33" fill="none" xmlns="http://www.w3.org/2000/svg">
<g clip-path="url(#clip0_1128_25044)">
<path d="M32.8502 16.0604H31.3302V26.7304H32.8502V16.0604Z" fill="#000001"/>
<path d="M31.3302 26.7304H29.8102V28.2504H31.3302V26.7304Z" fill="#000001"/>
<path d="M31.3302 14.5404H29.8102V16.0604H31.3302V14.5404Z" fill="#000001"/>
<path d="M28.2802 31.3004H26.7602V32.8204H29.8102V28.2504H28.2802V31.3004Z" fill="#000001"/>
<path d="M26.7602 13.0104H20.6602V11.4904H19.1402V13.0104H16.0902V14.5404H29.8102V13.0104H28.2802V8.44037H26.7602V13.0104Z" fill="#000001"/>
<path d="M26.7602 29.7804H25.2302V31.3004H26.7602V29.7804Z" fill="#000001"/>
<path d="M26.7602 16.0604H23.7102V17.5904H22.1902V16.0604H19.1402V17.5904H17.6102V20.6304H19.1402V22.1604H20.6602V23.6804H22.1902V25.2104H23.7102V23.6804H25.2302V22.1604H26.7602V20.6304H28.2802V17.5904H26.7602V16.0604Z" fill="#000001"/>
<path d="M26.7602 6.92037H25.2302V8.44037H26.7602V6.92037Z" fill="#000001"/>
<path d="M25.2302 28.2504H23.7102V29.7804H25.2302V28.2504Z" fill="#000001"/>
<path d="M25.2302 5.40038H23.7102V6.92038H25.2302V5.40038Z" fill="#000001"/>
<path d="M23.7102 26.7304H16.0902V28.2504H23.7102V26.7304Z" fill="#000001"/>
<path d="M23.7102 3.87037H20.6602V5.40037H23.7102V3.87037Z" fill="#000001"/>
<path d="M20.6602 2.35037H17.6102V3.87037H20.6602V2.35037Z" fill="#000001"/>
<path d="M20.6602 9.97037V11.4904H22.1902V8.44037H17.6102V6.92037H16.0902V9.97037H20.6602Z" fill="#000001"/>
<path d="M16.0902 25.2104H14.5702V26.7304H16.0902V25.2104Z" fill="#000001"/>
<path d="M16.0902 14.5404H14.5702V16.0604H16.0902V14.5404Z" fill="#000001"/>
<path d="M16.0902 5.40038H14.5702V6.92038H16.0902V5.40038Z" fill="#000001"/>
<path d="M14.5702 16.0604H11.5202V17.5904H13.0402V23.6804H8.47021V25.2104H14.5702V16.0604Z" fill="#000001"/>
<path d="M14.5702 3.87037H13.0402V5.40037H14.5702V3.87037Z" fill="#000001"/>
<path d="M17.6102 0.820374H11.5202V2.35037H17.6102V0.820374Z" fill="#000001"/>
<path d="M13.0402 5.40038H11.5202V6.92038H13.0402V5.40038Z" fill="#000001"/>
<path d="M11.5202 17.5904H10.0002V19.1104H11.5202V17.5904Z" fill="#000001"/>
<path d="M11.5202 2.35037H8.47021V3.87037H11.5202V2.35037Z" fill="#000001"/>
<path d="M10.0002 19.1104H8.47021V20.6304H10.0002V19.1104Z" fill="#000001"/>
<path d="M10.0002 13.0104H8.47021V16.0604H10.0002V13.0104Z" fill="#000001"/>
<path d="M8.47023 16.0604H6.95023V19.1104H8.47023V16.0604Z" fill="#000001"/>
<path d="M8.47023 11.4904H6.95023V13.0104H8.47023V11.4904Z" fill="#000001"/>
<path d="M11.5202 9.97037V6.92037H10.0002V8.44037H5.42023V11.4904H6.95023V9.97037H11.5202Z" fill="#000001"/>
<path d="M8.47023 3.87037H5.42023V5.40037H8.47023V3.87037Z" fill="#000001"/>
<path d="M3.90022 25.2104V23.6804H2.38022V25.2104H0.85022V26.7304H8.47022V25.2104H3.90022Z" fill="#000001"/>
<path d="M5.42022 20.6304H3.90022V23.6804H5.42022V20.6304Z" fill="#000001"/>
<path d="M5.42022 5.40038H3.90022V6.92038H5.42022V5.40038Z" fill="#000001"/>
<path d="M3.90022 19.1104H2.38022V20.6304H3.90022V19.1104Z" fill="#000001"/>
<path d="M3.90022 6.92037H2.38022V8.44037H3.90022V6.92037Z" fill="#000001"/>
<path d="M2.38022 8.44037H0.85022V19.1104H2.38022V8.44037Z" fill="#000001"/>
</g>
<defs>
<clipPath id="clip0_1128_25044">
<rect width="32" height="32" fill="white" transform="translate(0.85022 0.820374)"/>
</clipPath>
</defs>
</svg>
