<svg width="32" height="32" viewBox="0 0 32 32" fill="none" xmlns="http://www.w3.org/2000/svg">
<g clip-path="url(#clip0_1138_2121)">
<path d="M28.9599 25.91V27.43H30.4799V30.48H31.9999V24.38H30.4799V25.91H28.9599Z" fill="#000001"/>
<path d="M30.4799 21.33H28.9599V24.38H30.4799V21.33Z" fill="#000001"/>
<path d="M30.4799 30.48H1.52988V32H30.4799V30.48Z" fill="#000001"/>
<path d="M28.9599 18.29H27.4299V21.33H28.9599V18.29Z" fill="#000001"/>
<path d="M28.9599 27.4301H3.04988V28.9501H28.9599V27.4301Z" fill="#000001"/>
<path d="M25.9099 18.2899H27.4299V13.7199H28.9599V12.1899H25.9099V18.2899Z" fill="#000001"/>
<path d="M24.3899 3.05002V4.57002H27.4299V1.52002H25.9099V3.05002H24.3899Z" fill="#000001"/>
<path d="M18.2899 15.24H13.7199V16.76H18.2899V15.24Z" fill="#000001"/>
<path d="M22.8599 1.52V3.05H24.3899V1.52H25.9099V0H10.6699V1.52H22.8599Z" fill="#000001"/>
<path d="M27.4299 25.91V22.86H25.9099V19.81H24.3899V18.29H7.61988V19.81H6.09988V22.86H4.57988V25.91H27.4299ZM24.3899 24.38H22.8599V22.86H24.3899V24.38ZM21.3399 19.81H22.8599V21.33H21.3399V19.81ZM21.3399 24.38H19.8099V22.86H21.3399V24.38ZM18.2899 19.81H19.8099V21.33H18.2899V19.81ZM18.2899 24.38H13.7199V22.86H18.2899V24.38ZM15.2399 19.81H16.7699V21.33H15.2399V19.81ZM12.1999 19.81H13.7199V21.33H12.1999V19.81ZM12.1999 24.38H10.6699V22.86H12.1999V24.38ZM9.14988 19.81H10.6699V21.33H9.14988V19.81ZM7.61988 22.86H9.14988V24.38H7.61988V22.86Z" fill="#000001"/>
<path d="M6.09988 12.19H4.57988V10.67H6.09988V12.19H7.61988V10.67H12.1999V12.19H10.6699V13.72H21.3399V12.19H19.8099V10.67H24.3899V12.19H25.9099V10.67H28.9599V12.19H30.4799V9.14002H27.4299V7.62002H25.9099V9.14002H22.8599V7.62002H25.9099V6.10002H22.8599V3.05002H21.3399V9.14002H10.6699V1.52002H9.14988V6.10002H6.09988V7.62002H9.14988V9.14002H6.09988V7.62002H4.57988V9.14002H1.52988V10.67H3.04988V13.72H4.57988V18.29H6.09988V12.19Z" fill="#000001"/>
<path d="M4.57988 18.29H3.04988V21.33H4.57988V18.29Z" fill="#000001"/>
<path d="M3.04988 21.33H1.52988V24.38H3.04988V21.33Z" fill="#000001"/>
<path d="M1.52988 27.43H3.04988V25.91H1.52988V24.38H-0.00012207V30.48H1.52988V27.43Z" fill="#000001"/>
<path d="M1.52988 6.09998H-0.00012207V9.13998H1.52988V6.09998Z" fill="#000001"/>
</g>
<defs>
<clipPath id="clip0_1138_2121">
<rect width="32" height="32" fill="white"/>
</clipPath>
</defs>
</svg>
