<svg width="32" height="32" viewBox="0 0 32 32" fill="none" xmlns="http://www.w3.org/2000/svg">
<path d="M30.475 15.24H28.955V24.38H30.475V15.24Z" fill="#000001"/>
<path d="M28.955 24.38H27.435V25.91H28.955V24.38Z" fill="#000001"/>
<path d="M28.955 13.72H27.435V15.24H28.955V13.72Z" fill="#000001"/>
<path d="M27.435 16.76H25.905V22.86H27.435V16.76Z" fill="#000001"/>
<path d="M27.435 27.43V25.91H24.385V24.38H25.905V22.86H24.385V16.76H25.905V15.24H24.385V13.72H27.435V12.19H24.385V10.67H22.865V27.43H27.435Z" fill="#000001"/>
<path d="M22.865 27.4301H19.815V28.9501H22.865V27.4301Z" fill="#000001"/>
<path d="M19.815 28.95H16.765V30.4799H19.815V28.95Z" fill="#000001"/>
<path d="M19.815 4.57002V3.05002H18.285V1.52002H16.765V3.05002H15.245V4.57002H19.815Z" fill="#000001"/>
<path d="M16.765 21.33H15.245V22.86H16.765V21.33Z" fill="#000001"/>
<path d="M16.765 18.29H15.245V19.81H16.765V18.29Z" fill="#000001"/>
<path d="M16.765 30.48H9.14499V32H16.765V30.48Z" fill="#000001"/>
<path d="M15.245 22.86H10.675V24.38H15.245V22.86Z" fill="#000001"/>
<path d="M10.675 12.1899H7.625V13.7199H18.285V12.1899H21.335V10.6699H22.865V9.13995H21.335V4.56995H19.815V6.09995H15.245V4.56995H13.715V7.61995H10.675V12.1899ZM18.285 7.61995H19.815V10.6699H18.285V7.61995ZM15.245 7.61995H16.765V12.1899H15.245V7.61995Z" fill="#000001"/>
<path d="M10.675 21.33H9.14499V22.86H10.675V21.33Z" fill="#000001"/>
<path d="M10.675 18.29H9.14499V19.81H10.675V18.29Z" fill="#000001"/>
<path d="M10.675 4.56995H9.14499V7.61995H10.675V4.56995Z" fill="#000001"/>
<path d="M9.145 28.95H6.095V30.4799H9.145V28.95Z" fill="#000001"/>
<path d="M9.145 10.67V9.14001H6.095V10.67H4.575V12.19H7.625V10.67H9.145Z" fill="#000001"/>
<path d="M9.145 1.52002H7.625V4.57002H9.145V1.52002Z" fill="#000001"/>
<path d="M7.625 0H4.575V1.52H7.625V0Z" fill="#000001"/>
<path d="M6.09499 27.4301H3.05499V28.9501H6.09499V27.4301Z" fill="#000001"/>
<path d="M4.57499 1.52002H3.05499V3.05002H4.57499V1.52002Z" fill="#000001"/>
<path d="M3.05499 10.67H4.57499V7.61998H6.09499V6.09998H3.05499V9.13998H1.52499V27.43H3.05499V10.67Z" fill="#000001"/>
<path d="M3.05499 3.05005H1.52499V6.10005H3.05499V3.05005Z" fill="#000001"/>
</svg>
