<svg width="33" height="33" viewBox="0 0 33 33" fill="none" xmlns="http://www.w3.org/2000/svg">
<g clip-path="url(#clip0_1128_26223)">
<path d="M31.3203 8.41943H29.8003V16.0394H31.3203V8.41943Z" fill="#000001"/>
<path d="M29.8003 16.0394H28.2703V19.0894H29.8003V16.0394Z" fill="#000001"/>
<path d="M29.8003 5.36943H28.2703V8.41943H29.8003V5.36943Z" fill="#000001"/>
<path d="M28.2703 19.0894H26.7503V20.6094H28.2703V19.0894Z" fill="#000001"/>
<path d="M28.2703 3.84943H26.7503V5.36943H28.2703V3.84943Z" fill="#000001"/>
<path d="M26.7503 20.6094H25.2203V22.1394H26.7503V20.6094Z" fill="#000001"/>
<path d="M26.7503 11.4694H25.2203V17.5594H26.7503V11.4694Z" fill="#000001"/>
<path d="M25.2203 22.1394H23.7003V23.6594H25.2203V22.1394Z" fill="#000001"/>
<path d="M25.2203 17.5594H23.7003V19.0894H25.2203V17.5594Z" fill="#000001"/>
<path d="M26.7503 2.32943H23.7003V3.84943H26.7503V2.32943Z" fill="#000001"/>
<path d="M23.7003 23.6594H22.1803V25.1794H23.7003V23.6594Z" fill="#000001"/>
<path d="M23.7003 19.0894H22.1803V20.6094H23.7003V19.0894Z" fill="#000001"/>
<path d="M25.2203 9.94942H20.6503V11.4694H25.2203V9.94942Z" fill="#000001"/>
<path d="M22.1803 25.1794H20.6503V26.7094H22.1803V25.1794Z" fill="#000001"/>
<path d="M20.6503 26.7094H19.1303V28.2294H20.6503V26.7094Z" fill="#000001"/>
<path d="M22.1803 20.6094H16.0803V22.1394H22.1803V20.6094Z" fill="#000001"/>
<path d="M20.6503 11.4694H19.1303V12.9894H20.6503V11.4694Z" fill="#000001"/>
<path d="M19.1303 8.41943H22.1803V6.89943H23.7003V5.36943H22.1803V3.84943H19.1303V5.36943H17.6103V6.89943H19.1303V8.41943Z" fill="#000001"/>
<path d="M19.1303 28.2294H17.6103V29.7494H19.1303V28.2294Z" fill="#000001"/>
<path d="M19.1303 12.9894H17.6103V14.5194H19.1303V12.9894Z" fill="#000001"/>
<path d="M17.6103 14.5194H16.0803V16.0394H17.6103V14.5194Z" fill="#000001"/>
<path d="M17.6103 29.7494H8.46032V31.2794H17.6103V29.7494Z" fill="#000001"/>
<path d="M16.0803 16.0394H14.5603V20.6094H16.0803V16.0394Z" fill="#000001"/>
<path d="M23.7003 0.799427H13.0303V2.32943H23.7003V0.799427Z" fill="#000001"/>
<path d="M14.5603 22.1394H11.5103V23.6594H9.99032V26.7094H11.5103V28.2294H14.5603V26.7094H16.0803V23.6594H14.5603V22.1394Z" fill="#000001"/>
<path d="M13.0303 2.32943H9.99032V3.84943H13.0303V2.32943Z" fill="#000001"/>
<path d="M9.99032 12.9894H13.0303V11.4694H14.5603V8.41943H13.0303V6.89943H9.99032V8.41943H8.46032V11.4694H9.99032V12.9894Z" fill="#000001"/>
<path d="M5.42032 20.6094H8.46032V19.0894H9.99032V16.0394H8.46032V14.5194H5.42032V16.0394H3.89032V19.0894H5.42032V20.6094Z" fill="#000001"/>
<path d="M9.99032 3.84943H6.94032V5.36943H9.99032V3.84943Z" fill="#000001"/>
<path d="M8.46032 28.2294H6.94032V29.7494H8.46032V28.2294Z" fill="#000001"/>
<path d="M6.94032 26.7094H3.89032V28.2294H6.94032V26.7094Z" fill="#000001"/>
<path d="M6.94032 5.36943H5.42032V6.89943H6.94032V5.36943Z" fill="#000001"/>
<path d="M5.42032 6.89943H3.89032V9.94943H5.42032V6.89943Z" fill="#000001"/>
<path d="M3.89032 23.6594H2.37032V26.7094H3.89032V23.6594Z" fill="#000001"/>
<path d="M3.89032 9.94942H2.37032V12.9894H3.89032V9.94942Z" fill="#000001"/>
<path d="M2.37032 12.9894H0.840321V23.6594H2.37032V12.9894Z" fill="#000001"/>
</g>
<defs>
<clipPath id="clip0_1128_26223">
<rect width="32" height="32" fill="white" transform="translate(0.0803223 0.0394287)"/>
</clipPath>
</defs>
</svg>
