<svg width="33" height="33" viewBox="0 0 33 33" fill="none" xmlns="http://www.w3.org/2000/svg">
<g clip-path="url(#clip0_1128_26122)">
<path d="M30.5553 25.9394H29.0353V30.5094H27.5153V27.4694H25.9853V32.0394H30.5553V25.9394Z" fill="#000001"/>
<path d="M29.0353 19.8494H27.5153V25.9394H29.0353V19.8494Z" fill="#000001"/>
<path d="M25.9853 22.8894H24.4653V27.4694H25.9853V22.8894Z" fill="#000001"/>
<path d="M24.4653 16.7994H25.9853V19.8494H27.5153V15.2794H25.9853V7.65943H27.5153V1.55943H16.8453V0.0394287H15.3253V1.55943H4.65532V7.65943H6.18032V3.08943H22.9503V7.65943H21.4203V15.2794H19.9003V21.3694H3.13532V15.2794H1.60532V22.8894H4.65532V27.4694H6.18032V22.8894H7.71032V27.4694H6.18032V30.5094H4.65532V27.4694H3.13532V32.0394H7.70532V28.9894H16.8453V32.0394H21.4153V27.4694H19.8953V30.5094H18.3653V27.4694H9.22532V25.9394H18.3653V27.4694H19.8953V22.8894H21.4153V27.4694H22.9453V22.8894H24.4653V16.7994ZM18.3653 24.4194H9.22532V22.8894H18.3653V24.4194Z" fill="#000001"/>
<path d="M19.8953 10.6994H18.3653V13.7494H19.8953V10.6994Z" fill="#000001"/>
<path d="M18.3653 13.7494H16.8453V16.7994H18.3653V13.7494Z" fill="#000001"/>
<path d="M18.3653 9.17943H16.8453V10.6994H18.3653V9.17943Z" fill="#000001"/>
<path d="M18.3653 4.60943H16.8453V6.12943H18.3653V4.60943Z" fill="#000001"/>
<path d="M16.8453 16.7994H9.22531V18.3194H16.8453V16.7994Z" fill="#000001"/>
<path d="M15.3253 10.6994H13.7953V12.2294H15.3253V10.6994Z" fill="#000001"/>
<path d="M13.7953 13.7494H12.2753V15.2794H13.7953V13.7494Z" fill="#000001"/>
<path d="M10.7553 10.6994H9.22531V12.2294H10.7553V10.6994Z" fill="#000001"/>
<path d="M16.8453 9.17943V6.12943H15.3253V7.65943H13.7953V4.60943H12.2753V7.65943H10.7553V6.12943H9.22532V7.65943H7.70532V9.17943H16.8453Z" fill="#000001"/>
<path d="M9.22532 13.7494H7.70532V16.7994H9.22532V13.7494Z" fill="#000001"/>
<path d="M9.22532 4.60943H7.70532V6.12943H9.22532V4.60943Z" fill="#000001"/>
<path d="M7.70532 9.17943H6.17532V13.7494H7.70532V9.17943Z" fill="#000001"/>
<path d="M4.65531 7.65943H3.13531V15.2794H4.65531V7.65943Z" fill="#000001"/>
</g>
<defs>
<clipPath id="clip0_1128_26122">
<rect width="32" height="32" fill="white" transform="translate(0.0803223 0.0394287)"/>
</clipPath>
</defs>
</svg>
