<svg width="33" height="33" viewBox="0 0 33 33" fill="none" xmlns="http://www.w3.org/2000/svg">
<g clip-path="url(#clip0_1128_25897)">
<path d="M32.0803 22.8894H30.5603V28.9894H32.0803V22.8894Z" fill="#000001"/>
<path d="M30.5603 28.9894H29.0303V30.5094H30.5603V28.9894Z" fill="#000001"/>
<path d="M30.5603 21.3694H29.0303V22.8894H30.5603V21.3694Z" fill="#000001"/>
<path d="M29.0303 30.5094H15.3203V32.0394H29.0303V30.5094Z" fill="#000001"/>
<path d="M27.5103 25.9394H25.9903V27.4694H27.5103V25.9394Z" fill="#000001"/>
<path d="M27.5103 22.8894H25.9903V24.4194H27.5103V22.8894Z" fill="#000001"/>
<path d="M25.9903 27.4694H19.8903V28.9894H25.9903V27.4694Z" fill="#000001"/>
<path d="M19.8903 25.9394H18.3703V27.4694H19.8903V25.9394Z" fill="#000001"/>
<path d="M18.3703 15.2794V16.7994H19.8903V25.9394H21.4203V21.3694H29.0303V19.8494H21.4203V13.7494H19.8903V15.2794H18.3703Z" fill="#000001"/>
<path d="M19.8903 12.2294H18.3703V13.7494H19.8903V12.2294Z" fill="#000001"/>
<path d="M18.3703 13.7494H3.13031V15.2794H18.3703V13.7494Z" fill="#000001"/>
<path d="M18.3703 28.9894V27.4694H3.13031V28.9894H13.8003V30.5094H15.3203V28.9894H18.3703Z" fill="#000001"/>
<path d="M13.8003 0.0394287H7.70032V1.55943H13.8003V0.0394287Z" fill="#000001"/>
<path d="M18.3703 18.3194H16.8403V16.7994H4.65031V18.3194H3.13031V24.4194H4.65031V25.9394H16.8403V24.4194H18.3703V18.3194ZM6.18031 18.3194H7.70031V19.8494H6.18031V18.3194ZM15.3203 22.8894H13.8003V24.4194H7.70031V22.8894H6.18031V21.3694H7.70031V22.8894H13.8003V21.3694H15.3203V22.8894ZM15.3203 19.8494H13.8003V18.3194H15.3203V19.8494Z" fill="#000001"/>
<path d="M18.3703 12.2294V10.6994H15.3203V1.55943H13.8003V10.6994H7.70031V1.55943H6.18031V10.6994H3.13031V12.2294H18.3703Z" fill="#000001"/>
<path d="M3.13032 25.9394H1.61032V27.4694H3.13032V25.9394Z" fill="#000001"/>
<path d="M3.13032 12.2294H1.61032V13.7494H3.13032V12.2294Z" fill="#000001"/>
<path d="M1.61032 16.7994H3.13032V15.2794H1.61032V13.7494H0.0803223V25.9394H1.61032V16.7994Z" fill="#000001"/>
</g>
<defs>
<clipPath id="clip0_1128_25897">
<rect width="32" height="32" fill="white" transform="translate(0.0803223 0.0394287)"/>
</clipPath>
</defs>
</svg>
