<svg width="32" height="32" viewBox="0 0 32 32" fill="none" xmlns="http://www.w3.org/2000/svg">
<g clip-path="url(#clip0_1138_22054)">
<path d="M32 12.1899H30.48V19.8099H32V12.1899Z" fill="#000001"/>
<path d="M30.48 19.8101H28.95V22.8501H30.48V19.8101Z" fill="#000001"/>
<path d="M28.95 22.85H27.43V25.9H28.95V22.85Z" fill="#000001"/>
<path d="M28.95 6.08997H27.43V9.13997H28.95V6.08997Z" fill="#000001"/>
<path d="M27.43 25.9H25.91V27.42H27.43V25.9Z" fill="#000001"/>
<path d="M27.43 4.56995H25.91V6.08995H27.43V4.56995Z" fill="#000001"/>
<path d="M25.91 27.42H22.86V28.95H25.91V27.42Z" fill="#000001"/>
<path d="M25.91 3.04004H22.86V4.57004H25.91V3.04004Z" fill="#000001"/>
<path d="M22.86 28.95H19.81V30.4699H22.86V28.95Z" fill="#000001"/>
<path d="M22.86 1.52002H19.81V3.04002H22.86V1.52002Z" fill="#000001"/>
<path d="M19.81 30.47H12.19V32H19.81V30.47Z" fill="#000001"/>
<path d="M19.81 22.85H13.72V24.38H19.81V22.85Z" fill="#000001"/>
<path d="M19.81 0H12.19V1.52H19.81V0Z" fill="#000001"/>
<path d="M13.72 21.33H12.19V22.85H13.72V21.33Z" fill="#000001"/>
<path d="M12.19 28.95H9.14001V30.4699H12.19V28.95Z" fill="#000001"/>
<path d="M12.19 1.52002H9.14001V3.04002H12.19V1.52002Z" fill="#000001"/>
<path d="M9.14001 27.42H6.10001V28.95H9.14001V27.42Z" fill="#000001"/>
<path d="M9.14001 3.04004H6.10001V4.57004H9.14001V3.04004Z" fill="#000001"/>
<path d="M6.10001 25.9H4.57001V27.42H6.10001V25.9Z" fill="#000001"/>
<path d="M6.10001 4.56995H4.57001V6.08995H6.10001V4.56995Z" fill="#000001"/>
<path d="M4.56999 22.85H3.04999V25.9H4.56999V22.85Z" fill="#000001"/>
<path d="M3.05 15.23H4.57V16.76H6.1V18.28H12.19V16.76H13.72V15.23H15.24V13.71H18.29V15.23H19.81V16.76H21.33V18.28H27.43V16.76H28.95V12.19H30.48V9.14001H28.95V10.66H3.05V9.14001H1.53V12.19H3.05V15.23Z" fill="#000001"/>
<path d="M4.56999 6.08997H3.04999V9.13997H4.56999V6.08997Z" fill="#000001"/>
<path d="M3.05 19.8101H1.53V22.8501H3.05V19.8101Z" fill="#000001"/>
<path d="M1.53 12.1899H0V19.8099H1.53V12.1899Z" fill="#000001"/>
</g>
<defs>
<clipPath id="clip0_1138_22054">
<rect width="32" height="32" fill="white"/>
</clipPath>
</defs>
</svg>
