<svg width="32" height="33" viewBox="0 0 32 33" fill="none" xmlns="http://www.w3.org/2000/svg">
<g clip-path="url(#clip0_1138_79462)">
<path d="M25.91 10.92H6.10001V7.87H4.57001V12.44H6.10001V21.58H7.62001V27.68H9.15001V26.16H22.86V27.68H24.38V21.58H25.91V12.44H27.43V7.87H25.91V10.92ZM22.86 24.63H9.15001V23.11H22.86V24.63ZM22.86 20.06H21.34V21.58H19.81V20.06H18.29V21.58H16.76V20.06H15.24V21.58H13.72V20.06H12.19V21.58H10.67V20.06H9.15001V18.54H10.67V20.06H12.19V18.54H13.72V20.06H15.24V18.54H16.76V20.06H18.29V18.54H19.81V20.06H21.34V18.54H22.86V20.06ZM24.38 17.01H7.62001V15.49H24.38V17.01ZM24.38 13.97H7.62001V12.44H24.38V13.97Z" fill="#000001"/>
<path d="M24.38 0.25H19.81V1.77H24.38V0.25Z" fill="#000001"/>
<path d="M21.34 30.73H10.67V27.68H9.15002V32.25H22.86V27.68H21.34V30.73Z" fill="#000001"/>
<path d="M19.81 1.77002H18.29V3.30002H19.81V1.77002Z" fill="#000001"/>
<path d="M18.29 3.29999H7.62V4.81999H18.29V3.29999Z" fill="#000001"/>
<path d="M25.91 7.87002V1.77002H24.38V6.35002H7.62004V4.82002H6.10004V7.87002H25.91Z" fill="#000001"/>
</g>
<defs>
<clipPath id="clip0_1138_79462">
<rect width="32" height="32" fill="white" transform="translate(0 0.25)"/>
</clipPath>
</defs>
</svg>
