<svg width="32" height="33" viewBox="0 0 32 33" fill="none" xmlns="http://www.w3.org/2000/svg">
<path d="M32 18.535H30.47V21.585H32V18.535Z" fill="#000001"/>
<path d="M32 10.915H30.47V13.965H32V10.915Z" fill="#000001"/>
<path d="M30.47 17.015H28.95V18.535H30.47V17.015Z" fill="#000001"/>
<path d="M30.47 13.965H28.95V15.485H30.47V13.965Z" fill="#000001"/>
<path d="M30.47 9.39502H27.42V10.915H30.47V9.39502Z" fill="#000001"/>
<path d="M30.47 21.585H27.42V23.105H30.47V21.585Z" fill="#000001"/>
<path d="M28.95 15.485H27.42V17.015H28.95V15.485Z" fill="#000001"/>
<path d="M27.42 20.055H25.9V21.585H27.42V20.055Z" fill="#000001"/>
<path d="M27.42 10.915H25.9V12.435H27.42V10.915Z" fill="#000001"/>
<path d="M25.9 18.535H24.38V20.055H25.9V18.535Z" fill="#000001"/>
<path d="M25.9 12.435H24.38V13.965H25.9V12.435Z" fill="#000001"/>
<path d="M24.38 20.055H22.85V21.585H24.38V20.055Z" fill="#000001"/>
<path d="M24.38 10.915H22.85V12.435H24.38V10.915Z" fill="#000001"/>
<path d="M22.85 21.585H21.33V23.105H22.85V21.585Z" fill="#000001"/>
<path d="M22.85 9.39502H21.33V10.915H22.85V9.39502Z" fill="#000001"/>
<path d="M21.33 23.105H19.81V24.635H21.33V23.105Z" fill="#000001"/>
<path d="M21.33 7.86499H19.81V9.39499H21.33V7.86499Z" fill="#000001"/>
<path d="M19.81 24.635H16.76V26.155H19.81V24.635Z" fill="#000001"/>
<path d="M19.81 6.34503H16.76V7.86503H19.81V6.34503Z" fill="#000001"/>
<path d="M16.76 26.155H10.66V27.675H16.76V26.155Z" fill="#000001"/>
<path d="M16.76 4.82501H10.66V6.34501H16.76V4.82501Z" fill="#000001"/>
<path d="M10.66 24.635H6.09003V26.155H10.66V24.635Z" fill="#000001"/>
<path d="M10.66 6.34503H6.09003V7.86503H10.66V6.34503Z" fill="#000001"/>
<path d="M6.08998 23.105H3.03998V24.635H6.08998V23.105Z" fill="#000001"/>
<path d="M7.61001 15.485H4.57001V18.535H7.61001V15.485Z" fill="#000001"/>
<path d="M6.08998 7.86499H3.03998V9.39499H6.08998V7.86499Z" fill="#000001"/>
<path d="M3.04002 20.055H1.52002V23.105H3.04002V20.055Z" fill="#000001"/>
<path d="M3.04002 9.39502H1.52002V12.435H3.04002V9.39502Z" fill="#000001"/>
<path d="M1.52 12.435H0V20.055H1.52V12.435Z" fill="#000001"/>
</svg>
