<svg width="32" height="33" viewBox="0 0 32 33" fill="none" xmlns="http://www.w3.org/2000/svg">
<path d="M27.43 10.15V8.62999H25.9V10.15H24.38V11.68H28.95V14.72H24.38V16.25H19.81V17.77H15.24V19.3H10.67V20.82H6.09002V22.34H3.05002V19.3H6.09002V17.77H3.05002V16.25H1.52002V31.49H6.09002V29.96H3.05002V26.92H6.09002V25.39H10.67V23.87H15.24V22.34H19.81V20.82H24.38V19.3H28.95V20.82H27.43V22.34H30.48V7.10999H28.95V10.15H27.43Z" fill="#000001"/>
<path d="M28.95 5.58002H25.9V7.11002H28.95V5.58002Z" fill="#000001"/>
<path d="M27.43 22.34H24.38V23.87H27.43V22.34Z" fill="#000001"/>
<path d="M25.9 7.10999H22.86V8.62999H25.9V7.10999Z" fill="#000001"/>
<path d="M25.9 4.06H22.86V5.58H25.9V4.06Z" fill="#000001"/>
<path d="M24.3801 23.87H19.8101V25.39H24.3801V23.87Z" fill="#000001"/>
<path d="M24.3801 11.68H19.8101V13.2H24.3801V11.68Z" fill="#000001"/>
<path d="M22.8601 5.58002H19.8101V7.11002H22.8601V5.58002Z" fill="#000001"/>
<path d="M22.8601 2.53003H19.8101V4.06003H22.8601V2.53003Z" fill="#000001"/>
<path d="M19.81 4.06H16.76V5.58H19.81V4.06Z" fill="#000001"/>
<path d="M19.81 1.01001H16.76V2.53001H19.81V1.01001Z" fill="#000001"/>
<path d="M19.81 25.39H15.24V26.92H19.81V25.39Z" fill="#000001"/>
<path d="M19.81 13.2H15.24V14.72H19.81V13.2Z" fill="#000001"/>
<path d="M16.76 2.53003H15.24V4.06003H16.76V2.53003Z" fill="#000001"/>
<path d="M15.24 26.92H10.67V28.44H15.24V26.92Z" fill="#000001"/>
<path d="M15.24 14.72H10.67V16.25H15.24V14.72Z" fill="#000001"/>
<path d="M10.67 4.06003V5.58003H9.14001V10.15H10.67V11.68H15.24V10.15H16.76V5.58003H15.24V4.06003H13.71V2.53003H12.19V4.06003H10.67ZM13.71 5.58003V7.11003H15.24V8.63003H13.71V7.11003H12.19V5.58003H13.71Z" fill="#000001"/>
<path d="M12.19 1.01001H9.14001V2.53001H12.19V1.01001Z" fill="#000001"/>
<path d="M10.67 28.44H6.08997V29.96H10.67V28.44Z" fill="#000001"/>
<path d="M10.67 16.25H6.08997V17.77H10.67V16.25Z" fill="#000001"/>
<path d="M9.14 10.15H7.62V11.68H9.14V10.15Z" fill="#000001"/>
<path d="M7.61997 11.68H6.08997V13.2H7.61997V11.68Z" fill="#000001"/>
<path d="M6.09007 13.2H4.57007V14.72H6.09007V13.2Z" fill="#000001"/>
<path d="M4.57005 14.72H3.05005V16.25H4.57005V14.72Z" fill="#000001"/>
</svg>
