<svg width="32" height="33" viewBox="0 0 32 33" fill="none" xmlns="http://www.w3.org/2000/svg">
<path d="M32 10.915H30.47V17.015H32V10.915Z" fill="#000001"/>
<path d="M30.4699 17.015H28.95V20.065H30.4699V17.015Z" fill="#000001"/>
<path d="M30.4699 7.875H28.95V10.915H30.4699V7.875Z" fill="#000001"/>
<path d="M28.95 20.065H27.42V23.105H28.95V20.065Z" fill="#000001"/>
<path d="M28.95 10.915H27.42V17.015H28.95V10.915Z" fill="#000001"/>
<path d="M28.95 6.34503H27.42V7.87503H28.95V6.34503Z" fill="#000001"/>
<path d="M27.42 23.105H25.9V24.635H27.42V23.105Z" fill="#000001"/>
<path d="M27.42 17.015H25.9V20.065H27.42V17.015Z" fill="#000001"/>
<path d="M27.42 4.82501H25.9V6.34501H27.42V4.82501Z" fill="#000001"/>
<path d="M25.9 24.635H24.38V26.155H25.9V24.635Z" fill="#000001"/>
<path d="M25.9 20.065H24.38V21.585H25.9V20.065Z" fill="#000001"/>
<path d="M25.9 10.915H24.38V12.445H25.9V10.915Z" fill="#000001"/>
<path d="M24.38 21.585H22.85V23.105H24.38V21.585Z" fill="#000001"/>
<path d="M24.38 12.445H22.85V13.965H24.38V12.445Z" fill="#000001"/>
<path d="M25.9 3.29504H22.85V4.82504H25.9V3.29504Z" fill="#000001"/>
<path d="M24.38 26.155H21.33V27.685H24.38V26.155Z" fill="#000001"/>
<path d="M22.85 17.015H21.33V18.535H22.85V17.015Z" fill="#000001"/>
<path d="M22.85 7.875H21.33V9.395H22.85V7.875Z" fill="#000001"/>
<path d="M22.8501 23.105H19.8101V24.635H22.8501V23.105Z" fill="#000001"/>
<path d="M21.33 4.82501H18.28V6.34501H21.33V4.82501Z" fill="#000001"/>
<path d="M21.33 27.685H16.76V29.205H21.33V27.685Z" fill="#000001"/>
<path d="M19.81 20.065H18.28V21.585H19.81V20.065Z" fill="#000001"/>
<path d="M19.81 24.635H15.23V26.155H19.81V24.635Z" fill="#000001"/>
<path d="M16.76 10.915V12.445H13.71V13.965H12.19V17.015H10.66V18.535H9.14001V20.065H13.71V18.535H16.76V17.015H18.28V13.965H19.81V9.39502H18.28V10.915H16.76Z" fill="#000001"/>
<path d="M18.28 7.875H16.76V9.395H18.28V7.875Z" fill="#000001"/>
<path d="M22.85 1.77502H15.23V3.29502H22.85V1.77502Z" fill="#000001"/>
<path d="M16.76 9.39502H13.71V10.915H16.76V9.39502Z" fill="#000001"/>
<path d="M16.76 29.205H9.14001V30.725H16.76V29.205Z" fill="#000001"/>
<path d="M15.23 21.585H13.71V23.105H15.23V21.585Z" fill="#000001"/>
<path d="M15.23 26.155H9.14001V27.685H15.23V26.155Z" fill="#000001"/>
<path d="M13.7099 10.915H12.1899V12.445H13.7099V10.915Z" fill="#000001"/>
<path d="M15.23 3.29504H10.66V4.82504H15.23V3.29504Z" fill="#000001"/>
<path d="M13.71 23.105H10.66V24.635H13.71V23.105Z" fill="#000001"/>
<path d="M12.19 12.445H10.66V13.965H12.19V12.445Z" fill="#000001"/>
<path d="M12.19 7.875H9.14001V9.395H12.19V7.875Z" fill="#000001"/>
<path d="M10.66 13.965H9.14001V17.015H10.66V13.965Z" fill="#000001"/>
<path d="M10.66 4.82501H7.60999V6.34501H10.66V4.82501Z" fill="#000001"/>
<path d="M9.13997 27.685H6.08997V29.205H9.13997V27.685Z" fill="#000001"/>
<path d="M9.13999 17.015H7.60999V18.535H9.13999V17.015Z" fill="#000001"/>
<path d="M7.60997 21.585H6.08997V23.105H7.60997V21.585Z" fill="#000001"/>
<path d="M7.60997 10.915H6.08997V13.965H7.60997V10.915Z" fill="#000001"/>
<path d="M7.60997 6.34503H6.08997V7.87503H7.60997V6.34503Z" fill="#000001"/>
<path d="M6.08995 26.155H4.56995V27.685H6.08995V26.155Z" fill="#000001"/>
<path d="M6.08995 7.875H4.56995V9.395H6.08995V7.875Z" fill="#000001"/>
<path d="M4.57004 24.635H3.04004V26.155H4.57004V24.635Z" fill="#000001"/>
<path d="M4.57004 17.015H3.04004V20.065H4.57004V17.015Z" fill="#000001"/>
<path d="M4.57004 9.39502H3.04004V12.445H4.57004V9.39502Z" fill="#000001"/>
<path d="M3.04002 21.585H1.52002V24.635H3.04002V21.585Z" fill="#000001"/>
<path d="M3.04002 12.445H1.52002V15.485H3.04002V12.445Z" fill="#000001"/>
<path d="M1.52 15.485H0V21.585H1.52V15.485Z" fill="#000001"/>
</svg>
