<svg width="32" height="33" viewBox="0 0 32 33" fill="none" xmlns="http://www.w3.org/2000/svg">
<g clip-path="url(#clip0_1138_79377)">
<path d="M32 3.29999H30.47V4.81999H32V3.29999Z" fill="#000001"/>
<path d="M30.4699 9.39001H28.95V18.54H30.4699V9.39001Z" fill="#000001"/>
<path d="M28.95 32.25V30.73H30.47V29.2H28.95V27.68H27.42V29.2H25.9V30.73H27.42V32.25H28.95Z" fill="#000001"/>
<path d="M28.95 18.54H27.42V20.06H28.95V18.54Z" fill="#000001"/>
<path d="M28.95 6.34998H27.42V9.38998H28.95V6.34998Z" fill="#000001"/>
<path d="M27.42 20.06H25.9V21.58H27.42V20.06Z" fill="#000001"/>
<path d="M27.42 4.82001H25.9V6.35001H27.42V4.82001Z" fill="#000001"/>
<path d="M27.42 0.25H25.9V1.77H27.42V0.25Z" fill="#000001"/>
<path d="M25.9 21.58H24.38V23.11H25.9V21.58Z" fill="#000001"/>
<path d="M25.9 12.44H24.38V17.01H25.9V12.44Z" fill="#000001"/>
<path d="M24.38 17.01H22.85V18.54H24.38V17.01Z" fill="#000001"/>
<path d="M24.38 9.39001H22.85V10.92H24.38V9.39001Z" fill="#000001"/>
<path d="M25.9 3.29999H22.85V4.81999H25.9V3.29999Z" fill="#000001"/>
<path d="M24.38 23.11H18.28V24.63H24.38V23.11Z" fill="#000001"/>
<path d="M22.85 18.54H21.33V20.06H22.85V18.54Z" fill="#000001"/>
<path d="M19.81 29.2H18.28V30.73H19.81V29.2Z" fill="#000001"/>
<path d="M18.28 24.63H9.14001V26.16H18.28V24.63Z" fill="#000001"/>
<path d="M22.85 1.77002H13.71V3.30002H22.85V1.77002Z" fill="#000001"/>
<path d="M13.7099 3.29999H12.1899V4.81999H13.7099V3.29999Z" fill="#000001"/>
<path d="M12.19 4.82001H10.66V6.35001H12.19V4.82001Z" fill="#000001"/>
<path d="M10.66 6.34998H9.14001V7.86998H10.66V6.34998Z" fill="#000001"/>
<path d="M9.13999 23.11H7.60999V24.63H9.13999V23.11Z" fill="#000001"/>
<path d="M9.13999 7.87H7.60999V13.96H9.13999V7.87Z" fill="#000001"/>
<path d="M7.60997 24.63H6.08997V26.16H7.60997V24.63Z" fill="#000001"/>
<path d="M7.60997 13.96H6.08997V23.11H7.60997V13.96Z" fill="#000001"/>
<path d="M7.60997 3.29999H6.08997V4.81999H7.60997V3.29999Z" fill="#000001"/>
<path d="M6.08995 26.16H4.56995V27.68H6.08995V26.16Z" fill="#000001"/>
<path d="M6.08995 4.82001H4.56995V6.35001H6.08995V4.82001Z" fill="#000001"/>
<path d="M6.08995 1.77002H4.56995V3.30002H6.08995V1.77002Z" fill="#000001"/>
<path d="M4.57004 27.68H3.04004V29.2H4.57004V27.68Z" fill="#000001"/>
<path d="M4.57004 3.29999H3.04004V4.81999H4.57004V3.29999Z" fill="#000001"/>
<path d="M3.04002 29.2H1.52002V30.73H3.04002V29.2Z" fill="#000001"/>
<path d="M3.04002 13.96H1.52002V15.49H3.04002V13.96Z" fill="#000001"/>
<path d="M1.52 30.73H0V32.25H1.52V30.73Z" fill="#000001"/>
</g>
<defs>
<clipPath id="clip0_1138_79377">
<rect width="32" height="32" fill="white" transform="translate(0 0.25)"/>
</clipPath>
</defs>
</svg>
