<svg width="32" height="33" viewBox="0 0 32 33" fill="none" xmlns="http://www.w3.org/2000/svg">
<g clip-path="url(#clip0_1138_79022)">
<path d="M27.425 17.01V18.54H28.945V24.63H30.475V12.44H28.945V17.01H27.425Z" fill="#000001"/>
<path d="M28.945 24.63H27.425V26.16H28.945V24.63Z" fill="#000001"/>
<path d="M28.945 10.92H27.425V12.44H28.945V10.92Z" fill="#000001"/>
<path d="M3.04502 30.73H4.56502V32.25H15.235V30.73H16.755V29.2H18.285V27.68H27.425V26.16H18.285V20.06H27.425V18.54H16.755V23.11H15.235V24.63H4.56502V23.11H3.04502V18.54H1.52502V29.2H3.04502V30.73ZM10.665 29.2H13.715V26.16H15.235V29.2H13.715V30.73H10.665V29.2Z" fill="#000001"/>
<path d="M21.335 15.49H18.285V17.01H25.905V15.49H27.425V13.96H25.905V12.44H18.285V13.96H21.335V15.49Z" fill="#000001"/>
<path d="M18.285 13.96H16.755V15.49H18.285V13.96Z" fill="#000001"/>
<path d="M16.7551 7.86999H15.2351V9.38999H4.56506V10.92H15.2351V12.44H16.7551V10.92H27.4251V9.38999H18.2851V3.29999H16.7551V7.86999Z" fill="#000001"/>
<path d="M16.755 17.01H15.235V18.54H16.755V17.01Z" fill="#000001"/>
<path d="M16.755 1.77002H15.235V3.30002H16.755V1.77002Z" fill="#000001"/>
<path d="M15.235 20.06H13.715V21.58H15.235V20.06Z" fill="#000001"/>
<path d="M15.235 4.82001H13.715V6.35001H15.235V4.82001Z" fill="#000001"/>
<path d="M9.13497 21.58H6.09497V23.11H13.715V21.58H10.665V20.06H13.715V18.54H6.09497V20.06H9.13497V21.58Z" fill="#000001"/>
<path d="M9.13497 6.34999H6.09497V7.86999H13.715V6.34999H10.665V4.81999H13.715V3.29999H6.09497V4.81999H9.13497V6.34999Z" fill="#000001"/>
<path d="M15.2351 17.01V12.44H13.7151V15.49H4.56506V17.01H15.2351Z" fill="#000001"/>
<path d="M15.2351 0.25H4.56506V1.77H15.2351V0.25Z" fill="#000001"/>
<path d="M6.09506 20.06H4.56506V21.58H6.09506V20.06Z" fill="#000001"/>
<path d="M6.09506 4.82001H4.56506V6.35001H6.09506V4.82001Z" fill="#000001"/>
<path d="M4.56504 17.01H3.04504V18.54H4.56504V17.01Z" fill="#000001"/>
<path d="M4.56504 13.96H3.04504V15.49H4.56504V13.96Z" fill="#000001"/>
<path d="M4.56504 1.77002H3.04504V3.30002H4.56504V1.77002Z" fill="#000001"/>
<path d="M3.04502 9.38999H4.56502V7.86999H3.04502V3.29999H1.52502V13.96H3.04502V9.38999Z" fill="#000001"/>
</g>
<defs>
<clipPath id="clip0_1138_79022">
<rect width="32" height="32" fill="white" transform="translate(0 0.25)"/>
</clipPath>
</defs>
</svg>
