<svg width="32" height="33" viewBox="0 0 32 33" fill="none" xmlns="http://www.w3.org/2000/svg">
<g clip-path="url(#clip0_1138_79156)">
<path d="M29.7101 20.06H28.1901V27.68H29.7101V20.06Z" fill="#000001"/>
<path d="M28.19 27.68H26.67V29.2H28.19V27.68Z" fill="#000001"/>
<path d="M28.19 18.54H26.67V20.06H28.19V18.54Z" fill="#000001"/>
<path d="M26.67 29.2H25.14V30.73H26.67V29.2Z" fill="#000001"/>
<path d="M26.67 17.01H25.14V18.54H26.67V17.01Z" fill="#000001"/>
<path d="M25.14 30.73H17.52V32.25H25.14V30.73Z" fill="#000001"/>
<path d="M20.57 26.16H19.05V27.68H20.57V26.16Z" fill="#000001"/>
<path d="M19.0501 6.35V4.82H20.5701V15.49H16.0001V18.54H17.5201V17.01H25.1401V15.49H22.1001V6.35H25.1401V4.82H26.6701V3.3H28.1901V0.25H23.6201V1.77H22.1001V3.3H20.5701V1.77H19.0501V0.25H11.4301V3.3H12.9501V4.82H17.5201V6.35H19.0501Z" fill="#000001"/>
<path d="M17.52 29.2H16V30.73H17.52V29.2Z" fill="#000001"/>
<path d="M17.52 21.58H16V26.16H17.52V21.58Z" fill="#000001"/>
<path d="M17.52 6.34998H16V7.86998H17.52V6.34998Z" fill="#000001"/>
<path d="M14.48 27.68V20.06H12.95V27.68H6.85999V29.2H16V27.68H14.48Z" fill="#000001"/>
<path d="M16 18.54H14.48V20.06H16V18.54Z" fill="#000001"/>
<path d="M16 13.96H14.48V15.49H16V13.96Z" fill="#000001"/>
<path d="M16 7.87H14.48V9.39H16V7.87Z" fill="#000001"/>
<path d="M14.4801 9.39001H12.9501V10.92H14.4801V9.39001Z" fill="#000001"/>
<path d="M14.48 13.96V12.44H12.95V10.92H11.43V12.44H6.85999V13.96H14.48Z" fill="#000001"/>
<path d="M8.37999 23.11H6.85999V24.63H8.37999V23.11Z" fill="#000001"/>
<path d="M6.86008 26.16H5.33008V27.68H6.86008V26.16Z" fill="#000001"/>
<path d="M6.86008 18.54H5.33008V23.11H6.86008V18.54Z" fill="#000001"/>
<path d="M6.86008 13.96H5.33008V15.49H6.86008V13.96Z" fill="#000001"/>
<path d="M5.33006 24.63H3.81006V26.16H5.33006V24.63Z" fill="#000001"/>
<path d="M5.33006 15.49H3.81006V17.01H5.33006V15.49Z" fill="#000001"/>
<path d="M3.81004 17.01H2.29004V24.63H3.81004V17.01Z" fill="#000001"/>
</g>
<defs>
<clipPath id="clip0_1138_79156">
<rect width="32" height="32" fill="white" transform="translate(0 0.25)"/>
</clipPath>
</defs>
</svg>
