<svg width="32" height="33" viewBox="0 0 32 33" fill="none" xmlns="http://www.w3.org/2000/svg">
<path d="M32 13.195H30.47V22.345H32V13.195Z" fill="#000001"/>
<path d="M30.4699 11.675H28.95V13.195H30.4699V11.675Z" fill="#000001"/>
<path d="M30.47 22.345H27.42V23.865H30.47V22.345Z" fill="#000001"/>
<path d="M28.95 10.155H27.42V11.675H28.95V10.155Z" fill="#000001"/>
<path d="M27.42 23.865H22.85V25.395H27.42V23.865Z" fill="#000001"/>
<path d="M27.42 8.625H22.85V10.155H27.42V8.625Z" fill="#000001"/>
<path d="M22.8501 22.345H19.8101V23.865H22.8501V22.345Z" fill="#000001"/>
<path d="M22.85 7.10504H21.33V8.62504H22.85V7.10504Z" fill="#000001"/>
<path d="M18.28 14.725H16.76V13.195H13.71V11.675H16.76V10.155H10.66V11.675H9.13999V13.195H7.60999V17.775H9.13999V19.295H10.66V20.815H16.76V19.295H18.28V17.775H19.81V13.195H18.28V14.725Z" fill="#000001"/>
<path d="M19.81 23.865H15.23V25.395H19.81V23.865Z" fill="#000001"/>
<path d="M18.28 11.675H16.76V13.195H18.28V11.675Z" fill="#000001"/>
<path d="M21.33 5.58502H13.71V7.10502H21.33V5.58502Z" fill="#000001"/>
<path d="M15.23 25.395H9.14001V26.915H15.23V25.395Z" fill="#000001"/>
<path d="M13.71 7.10504H9.14001V8.62504H13.71V7.10504Z" fill="#000001"/>
<path d="M9.13997 23.865H6.08997V25.395H9.13997V23.865Z" fill="#000001"/>
<path d="M9.13999 8.625H7.60999V10.155H9.13999V8.625Z" fill="#000001"/>
<path d="M7.60995 10.155H4.56995V11.675H7.60995V10.155Z" fill="#000001"/>
<path d="M6.09004 22.345H3.04004V23.865H6.09004V22.345Z" fill="#000001"/>
<path d="M4.57004 11.675H3.04004V13.195H4.57004V11.675Z" fill="#000001"/>
<path d="M3.04002 20.815H1.52002V22.345H3.04002V20.815Z" fill="#000001"/>
<path d="M3.04002 13.195H1.52002V16.245H3.04002V13.195Z" fill="#000001"/>
<path d="M1.52 16.245H0V20.815H1.52V16.245Z" fill="#000001"/>
</svg>
