<svg width="32" height="33" viewBox="0 0 32 33" fill="none" xmlns="http://www.w3.org/2000/svg">
<g clip-path="url(#clip0_1138_79413)">
<path d="M30.47 17.01H28.95V18.54H30.47V23.11H1.52V18.54H3.04V17.01H1.52V12.44H0V29.2H1.52V26.16H30.47V29.2H32V12.44H30.47V17.01Z" fill="#000001"/>
<path d="M30.4699 29.2H28.95V30.73H30.4699V29.2Z" fill="#000001"/>
<path d="M30.4699 10.92H28.95V12.44H30.4699V10.92Z" fill="#000001"/>
<path d="M28.95 13.96H27.42V15.49H28.95V13.96Z" fill="#000001"/>
<path d="M28.95 30.73H3.04004V32.25H28.95V30.73Z" fill="#000001"/>
<path d="M28.95 18.54H24.38V20.06H28.95V18.54Z" fill="#000001"/>
<path d="M24.38 17.01H22.85V18.54H24.38V17.01Z" fill="#000001"/>
<path d="M22.85 0.25H21.33V1.77H22.85V0.25Z" fill="#000001"/>
<path d="M21.3301 12.44H19.8101V13.96H21.3301V12.44Z" fill="#000001"/>
<path d="M22.85 18.54H16.76V20.06H22.85V18.54Z" fill="#000001"/>
<path d="M16.76 17.01H15.23V18.54H16.76V17.01Z" fill="#000001"/>
<path d="M16.76 0.25H15.23V1.77H16.76V0.25Z" fill="#000001"/>
<path d="M12.19 12.44H10.66V13.96H12.19V12.44Z" fill="#000001"/>
<path d="M15.23 18.54H9.14001V20.06H15.23V18.54Z" fill="#000001"/>
<path d="M10.66 0.25H9.14001V1.77H10.66V0.25Z" fill="#000001"/>
<path d="M9.13999 17.01H7.60999V18.54H9.13999V17.01Z" fill="#000001"/>
<path d="M28.95 10.92V9.38999H22.85V3.29999H21.33V9.38999H16.76V3.29999H15.23V9.38999H10.66V3.29999H9.14004V9.38999H3.04004V10.92H28.95Z" fill="#000001"/>
<path d="M7.61004 18.54H3.04004V20.06H7.61004V18.54Z" fill="#000001"/>
<path d="M4.57004 13.96H3.04004V15.49H4.57004V13.96Z" fill="#000001"/>
<path d="M3.04002 29.2H1.52002V30.73H3.04002V29.2Z" fill="#000001"/>
<path d="M3.04002 10.92H1.52002V12.44H3.04002V10.92Z" fill="#000001"/>
</g>
<defs>
<clipPath id="clip0_1138_79413">
<rect width="32" height="32" fill="white" transform="translate(0 0.25)"/>
</clipPath>
</defs>
</svg>
