<svg width="32" height="33" viewBox="0 0 32 33" fill="none" xmlns="http://www.w3.org/2000/svg">
<g clip-path="url(#clip0_1138_78997)">
<path d="M32 12.44H30.47V17.01H32V12.44Z" fill="#000001"/>
<path d="M30.4699 17.01H28.95V20.06H30.4699V17.01Z" fill="#000001"/>
<path d="M30.47 10.92H27.42V12.44H30.47V10.92Z" fill="#000001"/>
<path d="M28.95 20.06H27.42V21.58H28.95V20.06Z" fill="#000001"/>
<path d="M27.42 29.2H25.9V30.73H27.42V29.2Z" fill="#000001"/>
<path d="M25.9 13.96H27.42V12.44H25.9V10.92H24.38V23.11H27.42V21.58H25.9V13.96Z" fill="#000001"/>
<path d="M25.9 30.73H1.52002V32.25H25.9V30.73Z" fill="#000001"/>
<path d="M24.38 23.11H22.85V26.16H24.38V23.11Z" fill="#000001"/>
<path d="M21.33 27.68H6.09002V26.16H4.57002V27.68H1.52002V29.2H25.9V27.68H22.85V26.16H21.33V27.68Z" fill="#000001"/>
<path d="M19.81 4.82001H18.28V6.35001H19.81V4.82001Z" fill="#000001"/>
<path d="M18.28 6.34998H16.76V7.86998H18.28V6.34998Z" fill="#000001"/>
<path d="M18.28 3.29999H16.76V4.81999H18.28V3.29999Z" fill="#000001"/>
<path d="M18.28 0.25H16.76V1.77H18.28V0.25Z" fill="#000001"/>
<path d="M16.76 1.77002H15.23V3.30002H16.76V1.77002Z" fill="#000001"/>
<path d="M13.7099 4.82001H12.1899V6.35001H13.7099V4.82001Z" fill="#000001"/>
<path d="M12.19 6.34998H10.66V7.86998H12.19V6.34998Z" fill="#000001"/>
<path d="M12.19 3.29999H10.66V4.81999H12.19V3.29999Z" fill="#000001"/>
<path d="M12.19 0.25H10.66V1.77H12.19V0.25Z" fill="#000001"/>
<path d="M10.66 1.77002H9.14001V3.30002H10.66V1.77002Z" fill="#000001"/>
<path d="M7.61004 10.92V15.49H6.09004V20.06H7.61004V21.58H10.66V20.06H12.19V15.49H10.66V18.54H9.14004V15.49H10.66V13.96H9.14004V10.92H24.38V9.39001H3.04004V10.92H7.61004Z" fill="#000001"/>
<path d="M4.57004 23.11H3.04004V26.16H4.57004V23.11Z" fill="#000001"/>
<path d="M3.04002 10.92H1.52002V23.11H3.04002V10.92Z" fill="#000001"/>
<path d="M1.52 29.2H0V30.73H1.52V29.2Z" fill="#000001"/>
</g>
<defs>
<clipPath id="clip0_1138_78997">
<rect width="32" height="32" fill="white" transform="translate(0 0.25)"/>
</clipPath>
</defs>
</svg>
