<svg width="32" height="33" viewBox="0 0 32 33" fill="none" xmlns="http://www.w3.org/2000/svg">
<path d="M30.47 19.3H28.95V17.77H27.42V19.3H25.9V20.82H22.85V19.3H21.33V17.77H16.76V19.3H13.71V20.82H9.14002V19.3H7.61002V17.77H3.04002V19.3H1.52002V20.82H3.04002V25.39H4.57002V22.34H27.42V25.39H28.95V22.34H30.47V20.82H32V16.25H30.47V19.3Z" fill="#000001"/>
<path d="M27.42 25.39H25.9V26.92H27.42V25.39Z" fill="#000001"/>
<path d="M27.42 8.63H25.9V10.15H27.42V8.63Z" fill="#000001"/>
<path d="M25.9 7.10999H24.38V8.62999H25.9V7.10999Z" fill="#000001"/>
<path d="M25.9 26.92H6.08997V28.44H25.9V26.92Z" fill="#000001"/>
<path d="M22.85 8.63H21.33V10.15H22.85V8.63Z" fill="#000001"/>
<path d="M24.38 5.58002H21.33V7.11002H24.38V5.58002Z" fill="#000001"/>
<path d="M19.81 10.15H18.28V11.68H19.81V10.15Z" fill="#000001"/>
<path d="M19.81 7.10999H18.28V8.62999H19.81V7.10999Z" fill="#000001"/>
<path d="M16.76 8.63H15.23V10.15H16.76V8.63Z" fill="#000001"/>
<path d="M13.7099 10.15H12.1899V11.68H13.7099V10.15Z" fill="#000001"/>
<path d="M13.7099 7.10999H12.1899V8.62999H13.7099V7.10999Z" fill="#000001"/>
<path d="M21.33 4.06H10.66V5.58H21.33V4.06Z" fill="#000001"/>
<path d="M10.66 8.63H9.14001V10.15H10.66V8.63Z" fill="#000001"/>
<path d="M10.66 5.58002H7.60999V7.11002H10.66V5.58002Z" fill="#000001"/>
<path d="M7.60997 7.10999H6.08997V8.62999H7.60997V7.10999Z" fill="#000001"/>
<path d="M6.08995 25.39H4.56995V26.92H6.08995V25.39Z" fill="#000001"/>
<path d="M6.08995 8.63H4.56995V10.15H6.08995V8.63Z" fill="#000001"/>
<path d="M30.47 16.25V14.72H28.95V10.15H27.42V14.72H4.57002V10.15H3.04002V14.72H1.52002V16.25H30.47Z" fill="#000001"/>
<path d="M1.52 16.25H0V19.3H1.52V16.25Z" fill="#000001"/>
</svg>
