<svg width="32" height="33" viewBox="0 0 32 33" fill="none" xmlns="http://www.w3.org/2000/svg">
<path d="M31.235 10.915H29.715V29.205H31.235V10.915Z" fill="#000001"/>
<path d="M29.7151 9.39502H28.1851V10.915H29.7151V9.39502Z" fill="#000001"/>
<path d="M2.28501 27.685H17.525V29.205H2.28501V30.725H29.715V29.205H19.045V10.915H17.525V12.45H2.28501V10.92H0.765015V29.21H2.28501V27.685ZM2.28501 13.965H8.37501V15.485H9.90001V17.015H11.42V18.535H12.95V17.015H14.47V18.535H16V17.015H17.53V26.155H12.96V24.635H9.90001V21.585H8.37501V23.105H6.85501V21.585H5.33501V20.065H3.80501V21.585H2.28501V13.965Z" fill="#000001"/>
<path d="M28.185 24.635H26.665V26.155H28.185V24.635Z" fill="#000001"/>
<path d="M28.185 21.585H26.665V23.105H28.185V21.585Z" fill="#000001"/>
<path d="M28.185 7.875H26.665V9.395H28.185V7.875Z" fill="#000001"/>
<path d="M28.1851 18.535H20.5751V20.065H28.1851V18.535Z" fill="#000001"/>
<path d="M28.1851 15.485H20.5751V17.015H28.1851V15.485Z" fill="#000001"/>
<path d="M26.665 6.34503H25.145V7.87503H26.665V6.34503Z" fill="#000001"/>
<path d="M25.1451 24.635H20.5751V26.155H25.1451V24.635Z" fill="#000001"/>
<path d="M25.1451 21.585H20.5751V23.105H25.1451V21.585Z" fill="#000001"/>
<path d="M23.615 6.34503H22.095V7.87503H23.615V6.34503Z" fill="#000001"/>
<path d="M22.0951 7.875H20.5751V9.395H22.0951V7.875Z" fill="#000001"/>
<path d="M20.575 9.39502H19.045V10.915H20.575V9.39502Z" fill="#000001"/>
<path d="M20.575 6.34503H8.375V7.87503H20.575V6.34503Z" fill="#000001"/>
<path d="M8.37498 3.29502H23.615V6.34502H25.145V1.77502H6.85498V6.34502H8.37498V3.29502Z" fill="#000001"/>
<path d="M6.85496 6.34503H5.33496V7.87503H6.85496V6.34503Z" fill="#000001"/>
<path d="M5.33505 7.875H3.80505V9.395H5.33505V7.875Z" fill="#000001"/>
<path d="M3.80503 9.39502H2.28503V10.915H3.80503V9.39502Z" fill="#000001"/>
</svg>
