<svg width="32" height="33" viewBox="0 0 32 33" fill="none" xmlns="http://www.w3.org/2000/svg">
<path d="M31.235 22.345H29.715V26.915H31.235V22.345Z" fill="#000001"/>
<path d="M29.7151 26.915H28.1851V28.445H29.7151V26.915Z" fill="#000001"/>
<path d="M29.7151 17.775H28.1851V22.345H29.7151V17.775Z" fill="#000001"/>
<path d="M28.185 23.875H26.665V25.395H28.185V23.875Z" fill="#000001"/>
<path d="M28.185 14.725H26.665V17.775H28.185V14.725Z" fill="#000001"/>
<path d="M25.1451 20.825H23.6151V19.295H8.37505V20.825H6.85505V28.445H3.80505V29.965H28.1851V28.445H25.1451V20.825Z" fill="#000001"/>
<path d="M26.665 11.675H25.145V14.725H26.665V11.675Z" fill="#000001"/>
<path d="M25.145 16.2549H23.615V17.7749H25.145V16.2549Z" fill="#000001"/>
<path d="M25.145 8.63495H23.615V11.6749H25.145V8.63495Z" fill="#000001"/>
<path d="M23.615 7.10498H22.095V8.63498H23.615V7.10498Z" fill="#000001"/>
<path d="M22.0951 5.58496H20.5751V7.10496H22.0951V5.58496Z" fill="#000001"/>
<path d="M20.575 14.725H19.045V16.255H20.575V14.725Z" fill="#000001"/>
<path d="M20.575 4.065H19.045V5.585H20.575V4.065Z" fill="#000001"/>
<path d="M19.045 16.2549H17.525V17.7749H19.045V16.2549Z" fill="#000001"/>
<path d="M19.045 7.10498H17.525V8.63498H19.045V7.10498Z" fill="#000001"/>
<path d="M17.525 8.63495H15.995V10.1549H17.525V8.63495Z" fill="#000001"/>
<path d="M19.045 2.53497H12.955V4.06497H19.045V2.53497Z" fill="#000001"/>
<path d="M12.955 16.2549H11.425V17.7749H12.955V16.2549Z" fill="#000001"/>
<path d="M12.955 10.155H11.425V11.675H12.955V10.155Z" fill="#000001"/>
<path d="M12.955 4.065H11.425V5.585H12.955V4.065Z" fill="#000001"/>
<path d="M11.425 14.725H9.90503V16.255H11.425V14.725Z" fill="#000001"/>
<path d="M11.425 5.58496H9.90503V7.10496H11.425V5.58496Z" fill="#000001"/>
<path d="M9.905 7.10498H8.375V8.63498H9.905V7.10498Z" fill="#000001"/>
<path d="M8.37498 8.63495H6.85498V11.6749H8.37498V8.63495Z" fill="#000001"/>
<path d="M6.85496 11.675H5.33496V14.725H6.85496V11.675Z" fill="#000001"/>
<path d="M5.33505 23.875H3.80505V25.395H5.33505V23.875Z" fill="#000001"/>
<path d="M5.33505 14.725H3.80505V17.775H5.33505V14.725Z" fill="#000001"/>
<path d="M3.80503 26.915H2.28503V28.445H3.80503V26.915Z" fill="#000001"/>
<path d="M3.80503 17.775H2.28503V22.345H3.80503V17.775Z" fill="#000001"/>
<path d="M2.28501 22.345H0.765015V26.915H2.28501V22.345Z" fill="#000001"/>
</svg>
