<svg width="32" height="33" viewBox="0 0 32 33" fill="none" xmlns="http://www.w3.org/2000/svg">
<g clip-path="url(#clip0_1138_79507)">
<path d="M30.47 4.82H28.95V3.3H27.42V1.77H24.38V0.25H7.61001V1.77H18.28V3.3H21.33V4.82H22.85V6.35H24.38V13.96H22.85V15.49H21.33V30.73H4.57001V32.25H25.9V30.73H27.42V29.2H28.95V27.68H30.47V13.96H32V6.35H30.47V4.82Z" fill="#000001"/>
<path d="M16.76 21.58H15.23V23.11H16.76V21.58Z" fill="#000001"/>
<path d="M15.23 18.54H13.71V20.06H15.23V18.54Z" fill="#000001"/>
<path d="M15.23 23.11H9.14001V24.63H15.23V23.11Z" fill="#000001"/>
<path d="M10.66 18.54H9.14001V20.06H10.66V18.54Z" fill="#000001"/>
<path d="M9.13999 21.58H7.60999V23.11H9.13999V21.58Z" fill="#000001"/>
<path d="M7.61001 1.77002H4.57001V3.30002H7.61001V1.77002Z" fill="#000001"/>
<path d="M4.56998 15.49H3.03998V30.73H4.56998V15.49Z" fill="#000001"/>
<path d="M4.56998 3.29999H3.03998V4.81999H4.56998V3.29999Z" fill="#000001"/>
<path d="M3.04002 13.96H1.52002V15.49H3.04002V13.96Z" fill="#000001"/>
<path d="M3.04002 4.82001H1.52002V6.35001H3.04002V4.82001Z" fill="#000001"/>
<path d="M1.52 6.34998H0V13.96H1.52V6.34998Z" fill="#000001"/>
</g>
<defs>
<clipPath id="clip0_1138_79507">
<rect width="32" height="32" fill="white" transform="translate(0 0.25)"/>
</clipPath>
</defs>
</svg>
