<svg width="32" height="33" viewBox="0 0 32 33" fill="none" xmlns="http://www.w3.org/2000/svg">
<path d="M30.47 8.63497H27.42V7.10497H24.38V5.58497H21.33V4.05497H18.28V2.53497H15.23V4.05497H13.71V8.63497H18.28V10.155H21.33V11.675H24.38V13.205H27.42V14.725H28.95V13.205H30.47V17.775H32V10.155H30.47V8.63497Z" fill="#000001"/>
<path d="M30.47 17.775H27.42V19.295H30.47V17.775Z" fill="#000001"/>
<path d="M27.42 19.295H24.38V20.825H27.42V19.295Z" fill="#000001"/>
<path d="M27.42 14.725H24.38V16.245H27.42V14.725Z" fill="#000001"/>
<path d="M24.38 20.825H21.33V22.3449H24.38V20.825Z" fill="#000001"/>
<path d="M24.38 16.245H21.33V17.775H24.38V16.245Z" fill="#000001"/>
<path d="M21.33 13.205H18.28V16.245H21.33V13.205Z" fill="#000001"/>
<path d="M21.33 22.345H18.28V23.865H21.33V22.345Z" fill="#000001"/>
<path d="M21.33 17.775H18.28V19.295H21.33V17.775Z" fill="#000001"/>
<path d="M18.28 23.865H15.23V25.395H18.28V23.865Z" fill="#000001"/>
<path d="M18.28 19.295H15.23V20.825H18.28V19.295Z" fill="#000001"/>
<path d="M16.76 14.725H15.23V16.245H16.76V14.725Z" fill="#000001"/>
<path d="M16.76 10.155H13.71V13.205H16.76V10.155Z" fill="#000001"/>
<path d="M15.2299 25.395H12.1899V26.915H15.2299V25.395Z" fill="#000001"/>
<path d="M15.2299 20.825H12.1899V22.3449H15.2299V20.825Z" fill="#000001"/>
<path d="M13.71 14.725H10.66V17.775H13.71V14.725Z" fill="#000001"/>
<path d="M13.7099 8.63495H12.1899V10.1549H13.7099V8.63495Z" fill="#000001"/>
<path d="M12.19 19.295H10.66V20.825H12.19V19.295Z" fill="#000001"/>
<path d="M12.19 10.155H10.66V11.675H12.19V10.155Z" fill="#000001"/>
<path d="M12.19 26.915H9.14001V28.445H12.19V26.915Z" fill="#000001"/>
<path d="M12.19 22.345H9.14001V23.865H12.19V22.345Z" fill="#000001"/>
<path d="M10.66 11.675H9.14001V13.205H10.66V11.675Z" fill="#000001"/>
<path d="M9.13997 19.295H6.08997V22.345H9.13997V19.295Z" fill="#000001"/>
<path d="M9.13999 16.245H7.60999V17.775H9.13999V16.245Z" fill="#000001"/>
<path d="M9.13999 13.205H7.60999V14.725H9.13999V13.205Z" fill="#000001"/>
<path d="M9.14004 28.4449H3.04004V29.9649H9.14004V28.4449Z" fill="#000001"/>
<path d="M9.13997 23.865H6.08997V25.395H9.13997V23.865Z" fill="#000001"/>
<path d="M7.60997 14.725H6.08997V16.245H7.60997V14.725Z" fill="#000001"/>
<path d="M6.08995 16.245H4.56995V17.775H6.08995V16.245Z" fill="#000001"/>
<path d="M6.09002 26.915V25.395H1.52002V28.445H3.04002V26.915H6.09002Z" fill="#000001"/>
<path d="M4.57004 20.825H3.04004V22.3449H4.57004V20.825Z" fill="#000001"/>
<path d="M4.57004 17.775H3.04004V19.295H4.57004V17.775Z" fill="#000001"/>
<path d="M3.04002 19.295H1.52002V20.825H3.04002V19.295Z" fill="#000001"/>
<path d="M1.52 20.825H0V25.395H1.52V20.825Z" fill="#000001"/>
</svg>
