<svg width="32" height="33" viewBox="0 0 32 33" fill="none" xmlns="http://www.w3.org/2000/svg">
<g clip-path="url(#clip0_1138_79286)">
<path d="M6.85496 21.58H8.37496V9.39H9.89996V7.87H14.47V9.39H16V10.92H19.05V9.39H20.58V7.87H22.1V9.39H23.62V21.58H25.15V7.87H26.67V4.82H25.15V3.3H23.62V1.77H22.1V0.25H9.89996V1.77H8.37496V3.3H6.85496V4.82H5.33496V7.87H6.85496V21.58ZM16 1.77H19.05V3.3H20.58V4.82H22.1V6.35H20.58V4.82H19.05V3.3H16V1.77Z" fill="#000001"/>
<path d="M23.615 21.58H22.095V23.11H23.615V21.58Z" fill="#000001"/>
<path d="M9.90491 23.11V24.63H12.9549V30.73H14.4749V24.63H17.5249V30.73H19.0449V24.63H22.0949V23.11H9.90491Z" fill="#000001"/>
<path d="M20.5749 17.01H19.0449V18.54H20.5749V17.01Z" fill="#000001"/>
<path d="M19.0449 13.96H17.5249V15.49H19.0449V13.96Z" fill="#000001"/>
<path d="M19.045 18.54H12.955V20.06H19.045V18.54Z" fill="#000001"/>
<path d="M17.525 30.73H14.475V32.25H17.525V30.73Z" fill="#000001"/>
<path d="M14.475 13.96H12.955V15.49H14.475V13.96Z" fill="#000001"/>
<path d="M12.9549 17.01H11.4249V18.54H12.9549V17.01Z" fill="#000001"/>
<path d="M9.905 21.58H8.375V23.11H9.905V21.58Z" fill="#000001"/>
</g>
<defs>
<clipPath id="clip0_1138_79286">
<rect width="32" height="32" fill="white" transform="translate(0 0.25)"/>
</clipPath>
</defs>
</svg>
