<svg width="32" height="33" viewBox="0 0 32 33" fill="none" xmlns="http://www.w3.org/2000/svg">
<path d="M32 10.16H30.47V16.25H32V10.16Z" fill="#000001"/>
<path d="M30.4699 16.25H28.95V17.78H30.4699V16.25Z" fill="#000001"/>
<path d="M30.4699 7.10999H28.95V10.16H30.4699V7.10999Z" fill="#000001"/>
<path d="M28.95 5.59003H27.42V7.11003H28.95V5.59003Z" fill="#000001"/>
<path d="M24.38 17.78V16.25H22.85V17.78H21.33V20.82H18.28V19.3H15.23V20.82H13.71V23.87H10.66V22.35H9.14004V20.82H7.61004V19.3H3.04004V20.82H4.57004V23.87H6.09004V28.44H7.61004V29.97H9.14004V31.49H24.38V29.97H25.9V28.44H27.42V23.87H28.95V17.78H24.38ZM12.19 28.44H10.66V25.4H12.19V28.44ZM18.28 28.44H16.76V22.35H18.28V28.44ZM24.38 28.44H22.85V25.4H24.38V28.44Z" fill="#000001"/>
<path d="M28.95 13.2H25.9V14.73H28.95V13.2Z" fill="#000001"/>
<path d="M27.42 4.06H25.9V5.59H27.42V4.06Z" fill="#000001"/>
<path d="M24.38 8.63H22.85V11.68H24.38V8.63Z" fill="#000001"/>
<path d="M25.9 2.54004H22.85V4.06004H25.9V2.54004Z" fill="#000001"/>
<path d="M21.3301 5.59003H19.8101V7.11003H21.3301V5.59003Z" fill="#000001"/>
<path d="M19.81 4.06H18.28V5.59H19.81V4.06Z" fill="#000001"/>
<path d="M19.81 11.68H16.76V13.2H19.81V11.68Z" fill="#000001"/>
<path d="M22.85 1.01001H13.71V2.54001H22.85V1.01001Z" fill="#000001"/>
<path d="M16.76 16.25H13.71V17.78H16.76V16.25Z" fill="#000001"/>
<path d="M13.71 10.16H15.23V8.63003H16.76V7.11003H15.23V5.59003H12.19V7.11003H10.66V8.63003H9.13999V10.16H10.66V11.68H9.13999V10.16H7.60999V13.2H9.13999V14.73H10.66V13.2H12.19V11.68H13.71V10.16Z" fill="#000001"/>
<path d="M13.71 2.54004H9.14001V4.06004H13.71V2.54004Z" fill="#000001"/>
<path d="M10.66 17.78H9.14001V19.3H10.66V17.78Z" fill="#000001"/>
<path d="M9.13999 16.25H7.60999V17.78H9.13999V16.25Z" fill="#000001"/>
<path d="M9.13997 4.06H6.08997V5.59H9.13997V4.06Z" fill="#000001"/>
<path d="M6.08995 5.59003H4.56995V7.11003H6.08995V5.59003Z" fill="#000001"/>
<path d="M4.57004 13.2H3.04004V16.25H4.57004V13.2Z" fill="#000001"/>
<path d="M4.57004 7.10999H3.04004V10.16H4.57004V7.10999Z" fill="#000001"/>
<path d="M3.04002 17.78H1.52002V19.3H3.04002V17.78Z" fill="#000001"/>
<path d="M3.04002 10.16H1.52002V11.68H3.04002V10.16Z" fill="#000001"/>
<path d="M1.52 11.68H0V17.78H1.52V11.68Z" fill="#000001"/>
</svg>
