<svg width="32" height="33" viewBox="0 0 32 33" fill="none" xmlns="http://www.w3.org/2000/svg">
<g clip-path="url(#clip0_1138_79470)">
<path d="M31.24 15.49H29.71V20.06H31.24V15.49Z" fill="#000001"/>
<path d="M29.71 20.06H28.19V21.58H29.71V20.06Z" fill="#000001"/>
<path d="M29.71 13.97H28.19V15.49H29.71V13.97Z" fill="#000001"/>
<path d="M28.19 26.16H26.67V27.68H28.19V26.16Z" fill="#000001"/>
<path d="M28.19 17.01H26.67V18.54H28.19V17.01Z" fill="#000001"/>
<path d="M28.19 12.44H23.62V13.97H28.19V12.44Z" fill="#000001"/>
<path d="M26.67 27.68H25.14V29.2H26.67V27.68Z" fill="#000001"/>
<path d="M26.67 24.63H25.14V26.16H26.67V24.63Z" fill="#000001"/>
<path d="M23.62 21.58V23.11H22.09V24.63H25.14V23.11H28.19V21.58H23.62Z" fill="#000001"/>
<path d="M23.62 15.49V20.06H26.67V18.54H25.14V17.01H26.67V15.49H23.62Z" fill="#000001"/>
<path d="M25.14 29.2H22.09V30.73H25.14V29.2Z" fill="#000001"/>
<path d="M23.62 10.92H22.09V12.44H23.62V10.92Z" fill="#000001"/>
<path d="M22.09 24.63H19.05V26.16H22.09V24.63Z" fill="#000001"/>
<path d="M22.09 9.39001H17.52V10.92H22.09V9.39001Z" fill="#000001"/>
<path d="M22.09 30.73H6.85999V32.25H22.09V30.73Z" fill="#000001"/>
<path d="M8.37999 12.44V13.97H6.85999V15.49H8.37999V17.01H20.57V15.49H22.09V13.97H20.57V12.44H8.37999Z" fill="#000001"/>
<path d="M20.57 1.77002H19.05V4.82002H20.57V1.77002Z" fill="#000001"/>
<path d="M19.05 0.25H16V1.77H19.05V0.25Z" fill="#000001"/>
<path d="M19.05 4.82001H17.52V6.35001H19.05V4.82001Z" fill="#000001"/>
<path d="M16 1.77002H14.47V3.30002H16V1.77002Z" fill="#000001"/>
<path d="M16 7.87H14.47V10.92H16V7.87Z" fill="#000001"/>
<path d="M14.47 0.25H11.43V1.77H14.47V0.25Z" fill="#000001"/>
<path d="M14.47 6.34998H12.95V7.86998H14.47V6.34998Z" fill="#000001"/>
<path d="M12.95 4.82001H11.43V6.35001H12.95V4.82001Z" fill="#000001"/>
<path d="M19.05 26.16H9.90002V27.68H19.05V26.16Z" fill="#000001"/>
<path d="M11.43 1.77002H9.90002V4.82002H11.43V1.77002Z" fill="#000001"/>
<path d="M12.95 9.39001H6.85999V10.92H12.95V9.39001Z" fill="#000001"/>
<path d="M9.89998 24.63H6.85999V26.16H9.89998V24.63Z" fill="#000001"/>
<path d="M6.86 29.2H3.81V30.73H6.86V29.2Z" fill="#000001"/>
<path d="M6.86 21.58H5.33V23.11H3.81V24.63H6.86V21.58Z" fill="#000001"/>
<path d="M6.86002 10.92H5.33002V12.44H6.86002V10.92Z" fill="#000001"/>
<path d="M5.33 12.44H3.81V21.58H5.33V12.44Z" fill="#000001"/>
<path d="M3.81003 27.68H2.28003V29.2H3.81003V27.68Z" fill="#000001"/>
<path d="M3.81003 24.63H2.28003V26.16H3.81003V24.63Z" fill="#000001"/>
<path d="M2.28001 26.16H0.76001V27.68H2.28001V26.16Z" fill="#000001"/>
</g>
<defs>
<clipPath id="clip0_1138_79470">
<rect width="32" height="32" fill="white" transform="translate(0 0.25)"/>
</clipPath>
</defs>
</svg>
