<svg width="32" height="33" viewBox="0 0 32 33" fill="none" xmlns="http://www.w3.org/2000/svg">
<path d="M31.235 25.4H29.715V28.44H31.235V25.4Z" fill="#000001"/>
<path d="M29.7151 28.44H28.1851V29.97H29.7151V28.44Z" fill="#000001"/>
<path d="M29.715 23.87H26.665V25.4H29.715V23.87Z" fill="#000001"/>
<path d="M28.185 29.97H25.145V31.49H28.185V29.97Z" fill="#000001"/>
<path d="M26.665 22.35H25.145V23.87H26.665V22.35Z" fill="#000001"/>
<path d="M25.145 26.92H23.615V29.97H25.145V26.92Z" fill="#000001"/>
<path d="M23.615 20.82H22.095V22.35H25.145V13.2H23.615V20.82Z" fill="#000001"/>
<path d="M23.615 25.4H22.095V26.92H23.615V25.4Z" fill="#000001"/>
<path d="M23.615 8.63H22.095V13.2H23.615V8.63Z" fill="#000001"/>
<path d="M20.575 22.35V23.87H12.955V25.4H22.095V22.35H20.575Z" fill="#000001"/>
<path d="M22.095 7.10999H20.575V8.62999H22.095V7.10999Z" fill="#000001"/>
<path d="M20.575 5.59003H19.045V7.11003H20.575V5.59003Z" fill="#000001"/>
<path d="M19.045 4.06H17.525V5.59H19.045V4.06Z" fill="#000001"/>
<path d="M17.525 2.54004H15.995V4.06004H17.525V2.54004Z" fill="#000001"/>
<path d="M15.995 17.78H14.475V19.3H15.995V17.78Z" fill="#000001"/>
<path d="M12.955 22.35H8.375V23.87H12.955V22.35Z" fill="#000001"/>
<path d="M12.955 17.78H9.90503V19.3H12.955V17.78Z" fill="#000001"/>
<path d="M9.905 16.25H8.375V17.78H9.905V16.25Z" fill="#000001"/>
<path d="M8.37504 20.82H6.85504V22.35H8.37504V20.82Z" fill="#000001"/>
<path d="M8.37504 14.73H6.85504V16.25H8.37504V14.73Z" fill="#000001"/>
<path d="M15.995 1.01001H5.33502V2.54001H15.995V1.01001Z" fill="#000001"/>
<path d="M6.85502 19.3H5.33502V20.82H6.85502V19.3Z" fill="#000001"/>
<path d="M6.85502 13.2H5.33502V14.73H6.85502V13.2Z" fill="#000001"/>
<path d="M5.33499 17.78H3.80499V19.3H5.33499V17.78Z" fill="#000001"/>
<path d="M5.33499 10.16H3.80499V13.2H5.33499V10.16Z" fill="#000001"/>
<path d="M5.33499 2.54004H3.80499V4.06004H5.33499V2.54004Z" fill="#000001"/>
<path d="M3.80503 16.25H2.28503V17.78H3.80503V16.25Z" fill="#000001"/>
<path d="M3.80503 4.06H2.28503V5.59H3.80503V4.06Z" fill="#000001"/>
<path d="M2.28501 5.59003H0.765015V16.25H2.28501V5.59003Z" fill="#000001"/>
</svg>
