<svg width="33" height="32" viewBox="0 0 33 32" fill="none" xmlns="http://www.w3.org/2000/svg">
<g clip-path="url(#clip0_1138_112519)">
<path d="M32.75 19.81H31.23V28.96H32.75V19.81Z" fill="#000001"/>
<path d="M31.23 28.96H29.71V30.48H31.23V28.96Z" fill="#000001"/>
<path d="M31.23 18.29H29.71V19.81H31.23V18.29Z" fill="#000001"/>
<path d="M31.23 10.67H29.71V12.19H31.23V10.67Z" fill="#000001"/>
<path d="M28.18 24.38H26.66V25.91H28.18V27.43H29.71V22.86H28.18V24.38Z" fill="#000001"/>
<path d="M29.71 1.53H28.18V4.57H26.66V7.62H29.71V1.53Z" fill="#000001"/>
<path d="M29.71 30.48H3.8V32H29.71V30.48Z" fill="#000001"/>
<path d="M26.66 25.91H25.13V27.43H23.61V28.96H28.18V27.43H26.66V25.91Z" fill="#000001"/>
<path d="M25.13 24.38H26.66V22.86H28.18V21.34H23.61V22.86H25.13V24.38Z" fill="#000001"/>
<path d="M25.13 25.91V24.38H23.61V22.86H22.09V27.43H23.61V25.91H25.13Z" fill="#000001"/>
<path d="M25.13 12.19H23.61V13.72H25.13V12.19Z" fill="#000001"/>
<path d="M23.61 1.53H22.09V3.05H23.61V1.53Z" fill="#000001"/>
<path d="M22.09 19.81H11.42V21.34H22.09V19.81Z" fill="#000001"/>
<path d="M20.56 9.15001V7.62001H22.09V6.10001H20.56V4.57001H19.04V6.10001H17.52V7.62001H19.04V9.15001H20.56Z" fill="#000001"/>
<path d="M12.94 22.86V27.43H20.56V22.86H12.94ZM15.99 25.91H14.47V24.38H15.99V25.91ZM19.04 25.91H17.52V24.38H19.04V25.91Z" fill="#000001"/>
<path d="M14.47 1.53H12.94V3.05H14.47V1.53Z" fill="#000001"/>
<path d="M23.61 10.67H9.89999V12.19H23.61V10.67Z" fill="#000001"/>
<path d="M12.94 3.05H11.42V4.57H12.94V3.05Z" fill="#000001"/>
<path d="M12.94 0H11.42V1.53H12.94V0Z" fill="#000001"/>
<path d="M9.89999 24.38H8.37V25.91H9.89999V27.43H11.42V22.86H9.89999V24.38Z" fill="#000001"/>
<path d="M11.42 1.53H9.89999V3.05H11.42V1.53Z" fill="#000001"/>
<path d="M9.89999 12.19H8.37V13.72H9.89999V12.19Z" fill="#000001"/>
<path d="M8.37 25.91H6.85V27.43H5.33V28.96H9.9V27.43H8.37V25.91Z" fill="#000001"/>
<path d="M6.85 24.38H8.37V22.86H9.9V21.34H5.33V22.86H6.85V24.38Z" fill="#000001"/>
<path d="M8.37001 6.1H6.85001V7.62H8.37001V6.1Z" fill="#000001"/>
<path d="M6.85 25.91V24.38H5.33V22.86H3.8V27.43H5.33V25.91H6.85Z" fill="#000001"/>
<path d="M9.9 18.29V19.81H11.42V18.29H22.09V19.81H23.61V18.29H29.71V16.76H26.66V13.72H25.13V16.76H23.61V15.24H20.56V16.76H19.04V15.24H14.47V16.76H12.94V15.24H9.9V16.76H8.37V13.72H6.85V16.76H3.8V18.29H9.9Z" fill="#000001"/>
<path d="M3.8 28.96H2.28V30.48H3.8V28.96Z" fill="#000001"/>
<path d="M3.8 18.29H2.28V19.81H3.8V18.29Z" fill="#000001"/>
<path d="M3.8 4.57001V9.15001H2.28V12.19H5.33V6.10001H6.85V4.57001H3.8Z" fill="#000001"/>
<path d="M2.28 19.81H0.75V28.96H2.28V19.81Z" fill="#000001"/>
<path d="M2.28 1.53H0.75V3.05H2.28V1.53Z" fill="#000001"/>
</g>
<defs>
<clipPath id="clip0_1138_112519">
<rect width="32" height="32" fill="white" transform="translate(0.75)"/>
</clipPath>
</defs>
</svg>
