<svg width="33" height="32" viewBox="0 0 33 32" fill="none" xmlns="http://www.w3.org/2000/svg">
<path d="M31.985 12.955H30.465V19.045H31.985V12.955Z" fill="#000001"/>
<path d="M10.655 12.955H12.175V11.425H13.705V9.90499H19.795V11.425H21.325V9.90499H25.895V11.425H27.415V23.615H28.945V20.575H30.465V19.045H28.945V12.955H30.465V11.425H28.945V5.33499H27.415V6.85499H25.895V5.33499H22.845V3.80499H12.175V5.33499H10.655V6.85499H9.135V9.90499H7.605V5.33499H6.085V9.90499H4.565V11.425H10.655V12.955Z" fill="#000001"/>
<path d="M27.415 23.615H25.895V25.145H27.415V23.615Z" fill="#000001"/>
<path d="M27.415 3.80499H25.895V5.33499H27.415V3.80499Z" fill="#000001"/>
<path d="M25.895 20.575H24.365V22.095H25.895V20.575Z" fill="#000001"/>
<path d="M25.895 15.995H24.365V19.045H25.895V15.995Z" fill="#000001"/>
<path d="M25.895 2.285H24.365V3.805H25.895V2.285Z" fill="#000001"/>
<path d="M12.175 25.145V28.2H9.13502V29.72H6.08502V31.24H30.465V29.72H27.415V28.2H24.365V26.67H25.895V25.15L12.175 25.145ZM22.845 29.715H16.755V28.2H13.705V26.67H22.85L22.845 29.715Z" fill="#000001"/>
<path d="M24.365 22.095H19.795V23.615H24.365V22.095Z" fill="#000001"/>
<path d="M19.795 20.575H18.275V22.095H19.795V20.575Z" fill="#000001"/>
<path d="M18.275 15.995H16.755V19.045H18.275V15.995Z" fill="#000001"/>
<path d="M19.795 11.425H16.755V12.955H19.795V11.425Z" fill="#000001"/>
<path d="M13.705 12.955H12.175V19.045H13.705V12.955Z" fill="#000001"/>
<path d="M24.365 0.764999H10.655V2.285H24.365V0.764999Z" fill="#000001"/>
<path d="M12.175 23.615H10.655V25.145H12.175V23.615Z" fill="#000001"/>
<path d="M12.175 19.045H10.655V20.575H12.175V19.045Z" fill="#000001"/>
<path d="M4.565 20.575V22.095H9.135V23.615H10.655V20.575H4.565Z" fill="#000001"/>
<path d="M10.655 2.285H9.13501V3.805H10.655V2.285Z" fill="#000001"/>
<path d="M9.13501 3.80499H7.60501V5.33499H9.13501V3.80499Z" fill="#000001"/>
<path d="M7.60502 12.955H6.08502V14.475H7.60502V12.955Z" fill="#000001"/>
<path d="M6.085 14.475H4.565V17.525H6.085V14.475Z" fill="#000001"/>
<path d="M4.565 19.045H3.035V20.575H4.565V19.045Z" fill="#000001"/>
<path d="M4.565 11.425H3.035V12.955H4.565V11.425Z" fill="#000001"/>
<path d="M3.03501 12.955H1.51501V19.045H3.03501V12.955Z" fill="#000001"/>
</svg>
