<svg width="32" height="33" viewBox="0 0 32 33" fill="none" xmlns="http://www.w3.org/2000/svg">
<path d="M32 15.74H30.48V23.36H32V15.74Z" fill="#000001"/>
<path d="M30.4799 23.36H28.95V26.4H30.4799V23.36Z" fill="#000001"/>
<path d="M30.4799 14.21H28.95V15.74H30.4799V14.21Z" fill="#000001"/>
<path d="M30.4799 5.07H28.95V12.69H30.4799V5.07Z" fill="#000001"/>
<path d="M28.9501 26.4H27.4301V27.93H28.9501V26.4Z" fill="#000001"/>
<path d="M28.9501 12.69H27.4301V14.21H28.9501V12.69Z" fill="#000001"/>
<path d="M28.9501 3.55H27.4301V5.07H28.9501V3.55Z" fill="#000001"/>
<path d="M27.4301 6.59H25.9101V5.07H21.3401V6.59H19.8101V11.17H21.3401V12.69H25.9101V11.17H27.4301V6.59ZM24.3801 8.12H22.8601V6.59H24.3801V8.12Z" fill="#000001"/>
<path d="M27.43 27.93H24.38V29.45H27.43V27.93Z" fill="#000001"/>
<path d="M24.38 29.45H7.62V30.98H24.38V29.45Z" fill="#000001"/>
<path d="M27.4301 2.02H19.8101V3.55H27.4301V2.02Z" fill="#000001"/>
<path d="M19.81 15.74H18.29V17.26H19.81V15.74Z" fill="#000001"/>
<path d="M19.81 3.55H18.29V5.07H19.81V3.55Z" fill="#000001"/>
<path d="M18.29 12.69H16.76V14.21H18.29V12.69Z" fill="#000001"/>
<path d="M18.29 5.07H16.76V8.12H18.29V5.07Z" fill="#000001"/>
<path d="M18.29 17.26H15.24V18.78H18.29V17.26Z" fill="#000001"/>
<path d="M16.76 8.12H15.24V9.64H16.76V8.12Z" fill="#000001"/>
<path d="M15.24 12.69H13.72V14.21H15.24V12.69Z" fill="#000001"/>
<path d="M15.24 5.07H13.72V8.12H15.24V5.07Z" fill="#000001"/>
<path d="M13.7199 3.55H12.1899V5.07H13.7199V3.55Z" fill="#000001"/>
<path d="M10.6699 5.07H6.09995V6.59H4.56995V11.17H6.09995V12.69H10.6699V11.17H12.1899V6.59H10.6699V5.07ZM9.14995 8.12H7.61995V6.59H9.14995V8.12Z" fill="#000001"/>
<path d="M7.61995 27.93H4.56995V29.45H7.61995V27.93Z" fill="#000001"/>
<path d="M12.1899 2.02H4.56995V3.55H12.1899V2.02Z" fill="#000001"/>
<path d="M4.57005 26.4H3.05005V27.93H4.57005V26.4Z" fill="#000001"/>
<path d="M4.57005 12.69H3.05005V14.21H4.57005V12.69Z" fill="#000001"/>
<path d="M4.57005 3.55H3.05005V5.07H4.57005V3.55Z" fill="#000001"/>
<path d="M3.05003 23.36H1.53003V26.4H3.05003V23.36Z" fill="#000001"/>
<path d="M3.05003 14.21H1.53003V15.74H3.05003V14.21Z" fill="#000001"/>
<path d="M3.05003 5.07H1.53003V12.69H3.05003V5.07Z" fill="#000001"/>
<path d="M1.53 15.74H0V23.36H1.53V15.74Z" fill="#000001"/>
</svg>
