<svg width="32" height="33" viewBox="0 0 32 33" fill="none" xmlns="http://www.w3.org/2000/svg">
<path d="M32 5.07H30.48V11.17H32V5.07Z" fill="#000001"/>
<path d="M28.95 15.74H27.43V21.83H28.95V15.74Z" fill="#000001"/>
<path d="M30.48 11.17H27.43V12.69H30.48V11.17Z" fill="#000001"/>
<path d="M27.43 21.83H25.91V24.88H27.43V21.83Z" fill="#000001"/>
<path d="M27.43 12.69H25.91V15.74H27.43V12.69Z" fill="#000001"/>
<path d="M28.95 6.59H25.91V9.64H28.95V6.59Z" fill="#000001"/>
<path d="M30.48 3.55H24.38V5.07H30.48V3.55Z" fill="#000001"/>
<path d="M25.91 24.88H24.38V26.4H25.91V24.88Z" fill="#000001"/>
<path d="M24.38 26.4H21.34V27.93H24.38V26.4Z" fill="#000001"/>
<path d="M24.38 5.07H21.34V6.59H24.38V5.07Z" fill="#000001"/>
<path d="M21.34 11.17H19.81V12.69H21.34V11.17Z" fill="#000001"/>
<path d="M21.34 27.93H10.67V29.45H21.34V27.93Z" fill="#000001"/>
<path d="M19.81 18.78H18.29V20.31H19.81V18.78Z" fill="#000001"/>
<path d="M12.19 14.21V15.74H13.72V17.26H15.24V18.78H16.76V17.26H18.29V15.74H19.81V14.21H12.19Z" fill="#000001"/>
<path d="M18.29 20.31H15.24V21.83H18.29V20.31Z" fill="#000001"/>
<path d="M21.34 3.55H10.67V5.07H21.34V3.55Z" fill="#000001"/>
<path d="M12.19 11.17H10.67V12.69H12.19V11.17Z" fill="#000001"/>
<path d="M10.67 26.4H7.62V27.93H10.67V26.4Z" fill="#000001"/>
<path d="M10.67 5.07H7.62V6.59H10.67V5.07Z" fill="#000001"/>
<path d="M7.61998 24.88H6.09998V26.4H7.61998V24.88Z" fill="#000001"/>
<path d="M6.10001 21.83H4.57001V24.88H6.10001V21.83Z" fill="#000001"/>
<path d="M6.10001 12.69H4.57001V15.74H6.10001V12.69Z" fill="#000001"/>
<path d="M4.56999 15.74H3.04999V21.83H4.56999V15.74Z" fill="#000001"/>
<path d="M4.57003 11.17H1.53003V12.69H4.57003V11.17Z" fill="#000001"/>
<path d="M6.09999 6.59H3.04999V9.64H6.09999V6.59Z" fill="#000001"/>
<path d="M7.62003 3.55H1.53003V5.07H7.62003V3.55Z" fill="#000001"/>
<path d="M1.53 5.07H0V11.17H1.53V5.07Z" fill="#000001"/>
</svg>
