<svg width="32" height="33" viewBox="0 0 32 33" fill="none" xmlns="http://www.w3.org/2000/svg">
<g clip-path="url(#clip0_1138_123646)">
<path d="M28.95 17.26V18.79H32V14.22H30.48V17.26H28.95Z" fill="#000001"/>
<path d="M32 2.03H30.48V9.65H32V2.03Z" fill="#000001"/>
<path d="M30.48 12.69H28.95V14.22H30.48V12.69Z" fill="#000001"/>
<path d="M28.95 21.84H27.43V27.93H28.95V21.84Z" fill="#000001"/>
<path d="M27.43 11.17H21.34V12.69H24.38V20.31H25.91V17.26H28.95V15.74H25.91V12.69H28.95V11.17H30.48V9.65H27.43V11.17Z" fill="#000001"/>
<path d="M28.95 2.03H30.48V0.5H25.91V2.03H27.43V5.07H28.95V2.03Z" fill="#000001"/>
<path d="M27.43 20.31H25.91V21.84H27.43V20.31Z" fill="#000001"/>
<path d="M27.43 27.93H24.38V29.46H27.43V27.93Z" fill="#000001"/>
<path d="M27.43 5.07H24.38V6.6H27.43V5.07Z" fill="#000001"/>
<path d="M24.38 29.46H21.34V30.98H24.38V29.46Z" fill="#000001"/>
<path d="M24.38 3.55H21.34V5.07H24.38V3.55Z" fill="#000001"/>
<path d="M18.29 15.74V17.26H19.81V18.79H21.34V17.26H22.86V15.74H18.29Z" fill="#000001"/>
<path d="M21.34 2.03H18.29V3.55H21.34V2.03Z" fill="#000001"/>
<path d="M21.34 30.98H10.67V32.5H21.34V30.98Z" fill="#000001"/>
<path d="M10.67 21.84V26.41H12.19V23.36H13.72V26.41H12.19V27.93H19.81V26.41H18.29V23.36H19.81V26.41H21.34V21.84H10.67Z" fill="#000001"/>
<path d="M21.34 9.65H18.29V11.17H21.34V9.65Z" fill="#000001"/>
<path d="M18.29 8.12H16.76V9.65H18.29V8.12Z" fill="#000001"/>
<path d="M18.29 3.55H16.76V5.07H18.29V3.55Z" fill="#000001"/>
<path d="M16.76 5.07H15.24V8.12H16.76V5.07Z" fill="#000001"/>
<path d="M15.24 8.12H13.72V9.65H15.24V8.12Z" fill="#000001"/>
<path d="M15.24 3.55H13.72V5.07H15.24V3.55Z" fill="#000001"/>
<path d="M13.72 2.03H10.67V3.55H13.72V2.03Z" fill="#000001"/>
<path d="M10.67 18.79H12.19V17.26H13.72V15.74H9.15002V17.26H10.67V18.79Z" fill="#000001"/>
<path d="M13.72 9.65H10.67V11.17H13.72V9.65Z" fill="#000001"/>
<path d="M10.67 29.46H7.62V30.98H10.67V29.46Z" fill="#000001"/>
<path d="M10.67 3.55H7.62V5.07H10.67V3.55Z" fill="#000001"/>
<path d="M7.62001 27.93H4.57001V29.46H7.62001V27.93Z" fill="#000001"/>
<path d="M7.62003 12.69H10.67V11.17H4.57003V9.65H1.53003V11.17H3.05003V12.69H6.10003V15.74H3.05003V17.26H6.10003V20.31H7.62003V12.69Z" fill="#000001"/>
<path d="M6.10001 20.31H4.57001V21.84H6.10001V20.31Z" fill="#000001"/>
<path d="M7.62001 5.07H4.57001V6.6H7.62001V5.07Z" fill="#000001"/>
<path d="M4.56999 21.84H3.04999V27.93H4.56999V21.84Z" fill="#000001"/>
<path d="M3.05003 5.07H4.57003V2.03H6.10003V0.5H1.53003V2.03H3.05003V5.07Z" fill="#000001"/>
<path d="M3.05003 12.69H1.53003V14.22H3.05003V12.69Z" fill="#000001"/>
<path d="M1.53 14.22H0V18.79H3.05V17.26H1.53V14.22Z" fill="#000001"/>
<path d="M1.53 2.03H0V9.65H1.53V2.03Z" fill="#000001"/>
</g>
<defs>
<clipPath id="clip0_1138_123646">
<rect width="32" height="32" fill="white" transform="translate(0 0.5)"/>
</clipPath>
</defs>
</svg>
