<svg width="32" height="33" viewBox="0 0 32 33" fill="none" xmlns="http://www.w3.org/2000/svg">
<g clip-path="url(#clip0_1138_123533)">
<path d="M32 15.74H30.48V26.41H32V15.74Z" fill="#000001"/>
<path d="M30.4799 26.41H28.95V27.93H30.4799V26.41Z" fill="#000001"/>
<path d="M30.4799 12.69H28.95V15.74H30.4799V12.69Z" fill="#000001"/>
<path d="M28.9501 27.93H27.4301V29.46H28.9501V27.93Z" fill="#000001"/>
<path d="M28.9501 9.65H27.4301V12.69H28.9501V9.65Z" fill="#000001"/>
<path d="M27.43 29.46H25.91V30.98H27.43V29.46Z" fill="#000001"/>
<path d="M27.43 8.12H25.91V9.65H27.43V8.12Z" fill="#000001"/>
<path d="M25.91 3.55H24.38V8.12H25.91V3.55Z" fill="#000001"/>
<path d="M16.76 30.98V29.46H19.81V27.93H15.24V29.46H7.62V30.98H15.24V32.5H25.91V30.98H16.76Z" fill="#000001"/>
<path d="M24.38 2.03H22.86V3.55H24.38V2.03Z" fill="#000001"/>
<path d="M22.8601 15.74H19.8101V17.26H22.8601V15.74Z" fill="#000001"/>
<path d="M21.3401 26.41H19.8101V27.93H21.3401V26.41Z" fill="#000001"/>
<path d="M22.86 0.5H18.29V2.03H22.86V0.5Z" fill="#000001"/>
<path d="M19.81 24.88H18.29V26.41H19.81V24.88Z" fill="#000001"/>
<path d="M19.81 17.26H18.29V18.79H19.81V17.26Z" fill="#000001"/>
<path d="M21.34 3.55H18.29V6.6H21.34V3.55Z" fill="#000001"/>
<path d="M18.29 18.79H16.76V24.88H18.29V18.79Z" fill="#000001"/>
<path d="M18.29 2.03H16.76V3.55H18.29V2.03Z" fill="#000001"/>
<path d="M16.76 3.55H15.24V6.6H16.76V3.55Z" fill="#000001"/>
<path d="M15.24 26.41H13.72V27.93H15.24V26.41Z" fill="#000001"/>
<path d="M13.7199 21.84H12.1899V26.41H13.7199V21.84Z" fill="#000001"/>
<path d="M15.2399 6.6H12.1899V8.12H15.2399V6.6Z" fill="#000001"/>
<path d="M12.19 20.31H10.67V21.84H12.19V20.31Z" fill="#000001"/>
<path d="M12.19 9.65H10.67V11.17H12.19V9.65Z" fill="#000001"/>
<path d="M12.19 3.55H10.67V6.6H12.19V3.55Z" fill="#000001"/>
<path d="M10.67 2.03H9.15002V3.55H10.67V2.03Z" fill="#000001"/>
<path d="M10.67 11.17H6.09998V12.69H10.67V11.17Z" fill="#000001"/>
<path d="M7.61998 27.93H6.09998V29.46H7.61998V27.93Z" fill="#000001"/>
<path d="M9.14995 0.5H4.56995V2.03H9.14995V0.5Z" fill="#000001"/>
<path d="M1.53 30.98V29.46H0V32.5H7.62V30.98H1.53Z" fill="#000001"/>
<path d="M10.67 18.79H3.05005V20.31H10.67V18.79Z" fill="#000001"/>
<path d="M7.61995 3.55H4.56995V6.6H7.61995V3.55Z" fill="#000001"/>
<path d="M4.57003 27.93H6.10003V26.41H3.05003V27.93H1.53003V29.46H4.57003V27.93Z" fill="#000001"/>
<path d="M4.57005 8.12H3.05005V11.17H4.57005V8.12Z" fill="#000001"/>
<path d="M4.57005 2.03H3.05005V3.55H4.57005V2.03Z" fill="#000001"/>
<path d="M3.05003 24.88H1.53003V26.41H3.05003V24.88Z" fill="#000001"/>
<path d="M3.05003 11.17H1.53003V14.22H3.05003V11.17Z" fill="#000001"/>
<path d="M3.05003 3.55H1.53003V8.12H3.05003V3.55Z" fill="#000001"/>
<path d="M3.05 21.84V20.31H1.53V14.22H0V24.88H1.53V21.84H3.05Z" fill="#000001"/>
</g>
<defs>
<clipPath id="clip0_1138_123533">
<rect width="32" height="32" fill="white" transform="translate(0 0.5)"/>
</clipPath>
</defs>
</svg>
