<svg width="32" height="33" viewBox="0 0 32 33" fill="none" xmlns="http://www.w3.org/2000/svg">
<g clip-path="url(#clip0_1138_123440)">
<path d="M32 14.22H30.48V15.74H32V14.22Z" fill="#000001"/>
<path d="M32 5.07H30.48V9.65H32V5.07Z" fill="#000001"/>
<path d="M30.4799 12.69H28.95V14.22H30.4799V12.69Z" fill="#000001"/>
<path d="M30.4799 9.65H28.95V11.17H30.4799V9.65Z" fill="#000001"/>
<path d="M30.4799 3.55H28.95V5.07H30.4799V3.55Z" fill="#000001"/>
<path d="M24.38 15.74V20.31H25.91V17.26H30.48V15.74H24.38Z" fill="#000001"/>
<path d="M27.43 3.55H28.95V2.03H30.48V0.5H25.91V2.03H27.43V3.55Z" fill="#000001"/>
<path d="M28.95 11.17H25.91V12.69H28.95V11.17Z" fill="#000001"/>
<path d="M27.43 5.07H25.91V6.6H24.38V8.12H27.43V5.07Z" fill="#000001"/>
<path d="M25.91 2.03H24.38V5.07H25.91V2.03Z" fill="#000001"/>
<path d="M24.38 20.31H22.86V24.88H24.38V20.31Z" fill="#000001"/>
<path d="M24.38 14.22H22.86V15.74H24.38V14.22Z" fill="#000001"/>
<path d="M24.38 8.12H22.86V9.65H24.38V8.12Z" fill="#000001"/>
<path d="M21.34 23.36H16.76V24.88H15.24V23.36H10.67V24.88H9.14999V26.41H7.62V29.46H9.14999V30.98H10.67V32.5H21.34V30.98H22.86V29.46H24.38V26.41H22.86V24.88H21.34V23.36ZM19.81 27.93H18.29V29.46H13.72V27.93H12.19V26.41H15.24V27.93H16.76V26.41H19.81V27.93Z" fill="#000001"/>
<path d="M21.3401 17.26H19.8101V18.79H21.3401V17.26Z" fill="#000001"/>
<path d="M22.8601 6.6H19.8101V8.12H22.8601V6.6Z" fill="#000001"/>
<path d="M19.81 18.79H18.29V20.31H19.81V18.79Z" fill="#000001"/>
<path d="M19.8099 5.07H12.1899V6.6H19.8099V5.07Z" fill="#000001"/>
<path d="M13.7199 18.79H12.1899V20.31H13.7199V18.79Z" fill="#000001"/>
<path d="M12.19 17.26H10.67V18.79H12.19V17.26Z" fill="#000001"/>
<path d="M12.19 6.6H9.15002V8.12H12.19V6.6Z" fill="#000001"/>
<path d="M9.14999 20.31H7.62V24.88H9.14999V20.31Z" fill="#000001"/>
<path d="M9.14999 8.12H7.62V9.65H9.14999V8.12Z" fill="#000001"/>
<path d="M7.62003 15.74H1.53003V17.26H6.10003V20.31H7.62003V15.74Z" fill="#000001"/>
<path d="M7.61998 2.03H6.09998V5.07H7.61998V2.03Z" fill="#000001"/>
<path d="M6.10005 11.17H3.05005V12.69H6.10005V11.17Z" fill="#000001"/>
<path d="M4.56995 8.12H7.61995V6.6H6.09995V5.07H4.56995V8.12Z" fill="#000001"/>
<path d="M4.57003 2.03H6.10003V0.5H1.53003V2.03H3.05003V3.55H4.57003V2.03Z" fill="#000001"/>
<path d="M3.05003 12.69H1.53003V14.22H3.05003V12.69Z" fill="#000001"/>
<path d="M3.05003 9.65H1.53003V11.17H3.05003V9.65Z" fill="#000001"/>
<path d="M3.05003 3.55H1.53003V5.07H3.05003V3.55Z" fill="#000001"/>
<path d="M1.53 14.22H0V15.74H1.53V14.22Z" fill="#000001"/>
<path d="M1.53 5.07H0V9.65H1.53V5.07Z" fill="#000001"/>
</g>
<defs>
<clipPath id="clip0_1138_123440">
<rect width="32" height="32" fill="white" transform="translate(0 0.5)"/>
</clipPath>
</defs>
</svg>
