<svg width="32" height="33" viewBox="0 0 32 33" fill="none" xmlns="http://www.w3.org/2000/svg">
<path d="M30.48 13.455H28.95V18.025H25.91V19.555H28.95V21.075H25.91V22.595H28.95V24.125H30.48V22.595H32V21.075H30.48V19.555H32V18.025H30.48V13.455Z" fill="#000001"/>
<path d="M28.9501 24.125H27.4301V25.645H28.9501V24.125Z" fill="#000001"/>
<path d="M28.9501 10.405H27.4301V13.455H28.9501V10.405Z" fill="#000001"/>
<path d="M27.43 25.645H25.91V27.175H27.43V25.645Z" fill="#000001"/>
<path d="M27.43 7.36501H25.91V10.405H27.43V7.36501Z" fill="#000001"/>
<path d="M25.91 4.315H24.38V7.365H25.91V4.315Z" fill="#000001"/>
<path d="M25.91 27.175H22.86V28.695H25.91V27.175Z" fill="#000001"/>
<path d="M24.38 22.595H22.86V24.125H24.38V22.595Z" fill="#000001"/>
<path d="M24.38 19.555H22.86V21.075H24.38V19.555Z" fill="#000001"/>
<path d="M24.38 2.785H22.86V4.315H24.38V2.785Z" fill="#000001"/>
<path d="M22.86 4.315H21.34V5.835H22.86V4.315Z" fill="#000001"/>
<path d="M22.86 28.695H9.15002V30.215H22.86V28.695Z" fill="#000001"/>
<path d="M21.34 8.885H19.81V11.935H21.34V8.885Z" fill="#000001"/>
<path d="M21.34 5.83501H19.81V7.36501H21.34V5.83501Z" fill="#000001"/>
<path d="M19.81 14.975H18.29V16.505H19.81V14.975Z" fill="#000001"/>
<path d="M18.29 22.595H16.76V24.125H18.29V22.595Z" fill="#000001"/>
<path d="M12.19 18.025V19.555H13.72V21.075H16.76V19.555H18.29V18.025H12.19Z" fill="#000001"/>
<path d="M16.76 24.125H13.72V25.645H16.76V24.125Z" fill="#000001"/>
<path d="M15.24 8.88501V11.935H16.76V8.88501H19.81V7.36501H12.19V8.88501H15.24Z" fill="#000001"/>
<path d="M12.19 14.975H10.67V16.505H12.19V14.975Z" fill="#000001"/>
<path d="M12.19 8.885H10.67V11.935H12.19V8.885Z" fill="#000001"/>
<path d="M12.19 5.83501H10.67V7.36501H12.19V5.83501Z" fill="#000001"/>
<path d="M10.67 4.315H9.15002V5.835H10.67V4.315Z" fill="#000001"/>
<path d="M9.14998 27.175H6.09998V28.695H9.14998V27.175Z" fill="#000001"/>
<path d="M9.14999 22.595H7.62V24.125H9.14999V22.595Z" fill="#000001"/>
<path d="M9.14999 19.555H7.62V21.075H9.14999V19.555Z" fill="#000001"/>
<path d="M9.14999 2.785H7.62V4.315H9.14999V2.785Z" fill="#000001"/>
<path d="M7.61998 4.315H6.09998V7.365H7.61998V4.315Z" fill="#000001"/>
<path d="M6.10001 25.645H4.57001V27.175H6.10001V25.645Z" fill="#000001"/>
<path d="M6.10001 7.36501H4.57001V10.405H6.10001V7.36501Z" fill="#000001"/>
<path d="M4.56999 24.125H3.04999V25.645H4.56999V24.125Z" fill="#000001"/>
<path d="M6.1 22.595V21.075H3.05V19.555H6.1V18.025H3.05V13.455H1.53V18.025H0V19.555H1.53V21.075H0V22.595H1.53V24.125H3.05V22.595H6.1Z" fill="#000001"/>
<path d="M4.56999 10.405H3.04999V13.455H4.56999V10.405Z" fill="#000001"/>
</svg>
