<svg width="32" height="33" viewBox="0 0 32 33" fill="none" xmlns="http://www.w3.org/2000/svg">
<path d="M30.4751 14.21H28.9451V24.88H30.4751V14.21Z" fill="#000001"/>
<path d="M28.945 24.88H27.425V26.4H28.945V24.88Z" fill="#000001"/>
<path d="M28.945 9.64H27.425V14.21H28.945V9.64Z" fill="#000001"/>
<path d="M27.425 26.4H25.905V27.93H27.425V26.4Z" fill="#000001"/>
<path d="M27.425 6.59H25.905V9.64H27.425V6.59Z" fill="#000001"/>
<path d="M25.905 5.07H24.375V6.59H25.905V5.07Z" fill="#000001"/>
<path d="M25.905 27.93H22.855V29.45H25.905V27.93Z" fill="#000001"/>
<path d="M24.375 9.64H22.855V11.17H24.375V9.64Z" fill="#000001"/>
<path d="M9.14499 23.36H10.665V24.88H21.335V23.36H22.855V20.31H24.375V14.21H22.855V12.69H9.14499V14.21H7.61499V20.31H9.14499V23.36ZM19.805 14.21H21.335V17.26H19.805V14.21ZM16.755 18.78H18.285V20.31H16.755V18.78ZM13.715 18.78H15.235V20.31H13.715V18.78ZM10.665 14.21H12.185V17.26H10.665V14.21Z" fill="#000001"/>
<path d="M22.855 8.12H18.285V9.64H22.855V8.12Z" fill="#000001"/>
<path d="M22.855 29.45H9.14502V30.98H22.855V29.45Z" fill="#000001"/>
<path d="M24.3751 3.55H19.8051V5.07H24.3751V3.55Z" fill="#000001"/>
<path d="M18.285 9.64H13.715V11.17H18.285V9.64Z" fill="#000001"/>
<path d="M19.8051 2.02H12.1851V3.55H19.8051V2.02Z" fill="#000001"/>
<path d="M13.715 8.12H9.14502V9.64H13.715V8.12Z" fill="#000001"/>
<path d="M12.185 3.55H7.61499V5.07H12.185V3.55Z" fill="#000001"/>
<path d="M9.14497 27.93H6.09497V29.45H9.14497V27.93Z" fill="#000001"/>
<path d="M9.14499 9.64H7.61499V11.17H9.14499V9.64Z" fill="#000001"/>
<path d="M7.61497 5.07H6.09497V6.59H7.61497V5.07Z" fill="#000001"/>
<path d="M6.09506 26.4H4.56506V27.93H6.09506V26.4Z" fill="#000001"/>
<path d="M6.09506 6.59H4.56506V9.64H6.09506V6.59Z" fill="#000001"/>
<path d="M4.56504 24.88H3.04504V26.4H4.56504V24.88Z" fill="#000001"/>
<path d="M4.56504 9.64H3.04504V14.21H4.56504V9.64Z" fill="#000001"/>
<path d="M3.04502 14.21H1.52502V24.88H3.04502V14.21Z" fill="#000001"/>
</svg>
