<svg width="32" height="33" viewBox="0 0 32 33" fill="none" xmlns="http://www.w3.org/2000/svg">
<path d="M32 14.975H30.48V21.065H32V14.975Z" fill="#000001"/>
<path d="M32 4.305H30.48V10.405H32V4.305Z" fill="#000001"/>
<path d="M30.4799 21.065H28.95V24.115H30.4799V21.065Z" fill="#000001"/>
<path d="M30.4799 10.405H28.95V14.975H30.4799V10.405Z" fill="#000001"/>
<path d="M28.9501 24.115H27.4301V25.635H28.9501V24.115Z" fill="#000001"/>
<path d="M28.9501 8.875H27.4301V10.405H28.9501V8.875Z" fill="#000001"/>
<path d="M27.43 25.635H25.91V27.165H27.43V25.635Z" fill="#000001"/>
<path d="M27.43 7.355H25.91V8.875H27.43V7.355Z" fill="#000001"/>
<path d="M30.48 2.785H22.86V4.305H30.48V2.785Z" fill="#000001"/>
<path d="M25.91 27.165H21.34V28.685H25.91V27.165Z" fill="#000001"/>
<path d="M22.86 4.305H21.34V5.825H22.86V4.305Z" fill="#000001"/>
<path d="M21.34 16.5H10.67V18.02H9.15002V22.6H10.67V24.12H21.34V22.6H22.86V18.02H21.34V16.5ZM15.24 22.6H12.19V19.55H15.24V22.6ZM19.81 22.6H16.76V19.55H19.81V22.6Z" fill="#000001"/>
<path d="M21.34 28.685H10.67V30.215H21.34V28.685Z" fill="#000001"/>
<path d="M19.81 13.445H18.29V14.975H19.81V13.445Z" fill="#000001"/>
<path d="M13.7199 13.445H12.1899V14.975H13.7199V13.445Z" fill="#000001"/>
<path d="M21.34 2.785H10.67V4.305H21.34V2.785Z" fill="#000001"/>
<path d="M10.67 27.165H6.09998V28.685H10.67V27.165Z" fill="#000001"/>
<path d="M10.67 4.305H9.15002V5.825H10.67V4.305Z" fill="#000001"/>
<path d="M6.09995 25.635H4.56995V27.165H6.09995V25.635Z" fill="#000001"/>
<path d="M6.09995 7.355H4.56995V8.875H6.09995V7.355Z" fill="#000001"/>
<path d="M4.57005 24.115H3.05005V25.635H4.57005V24.115Z" fill="#000001"/>
<path d="M4.57005 8.875H3.05005V10.405H4.57005V8.875Z" fill="#000001"/>
<path d="M9.15003 2.785H1.53003V4.305H9.15003V2.785Z" fill="#000001"/>
<path d="M3.05003 21.065H1.53003V24.115H3.05003V21.065Z" fill="#000001"/>
<path d="M3.05003 10.405H1.53003V14.975H3.05003V10.405Z" fill="#000001"/>
<path d="M1.53 14.975H0V21.065H1.53V14.975Z" fill="#000001"/>
<path d="M1.53 4.305H0V10.405H1.53V4.305Z" fill="#000001"/>
</svg>
