<svg width="32" height="33" viewBox="0 0 32 33" fill="none" xmlns="http://www.w3.org/2000/svg">
<g clip-path="url(#clip0_1138_123574)">
<path d="M30.4699 20.31H28.95V21.84H30.4699V23.36H32V17.27H30.4699V20.31Z" fill="#000001"/>
<path d="M30.4699 23.36H28.95V26.41H30.4699V23.36Z" fill="#000001"/>
<path d="M30.4699 14.22H28.95V17.27H30.4699V14.22Z" fill="#000001"/>
<path d="M28.9501 26.41H27.4301V27.93H28.9501V26.41Z" fill="#000001"/>
<path d="M28.95 18.79H25.9V20.31H28.95V18.79Z" fill="#000001"/>
<path d="M28.9501 3.55H27.4301V14.22H28.9501V3.55Z" fill="#000001"/>
<path d="M27.43 27.93H25.9V29.46H27.43V27.93Z" fill="#000001"/>
<path d="M25.9 3.55H27.43V0.5H24.38V2.03H25.9V3.55Z" fill="#000001"/>
<path d="M25.9001 17.27H19.8101V18.79H25.9001V17.27Z" fill="#000001"/>
<path d="M25.9 29.46H21.33V30.98H25.9V29.46Z" fill="#000001"/>
<path d="M25.9 9.65V5.08H24.38V6.6H22.86V8.12H21.33V9.65H25.9Z" fill="#000001"/>
<path d="M24.38 2.03H22.86V3.55H24.38V2.03Z" fill="#000001"/>
<path d="M22.86 14.22H21.33V15.74H22.86V14.22Z" fill="#000001"/>
<path d="M22.86 3.55H21.33V5.08H22.86V3.55Z" fill="#000001"/>
<path d="M21.3301 5.08H19.8101V6.6H21.3301V5.08Z" fill="#000001"/>
<path d="M21.33 30.98H10.66V32.5H21.33V30.98Z" fill="#000001"/>
<path d="M19.81 21.84H18.28V23.36H19.81V21.84Z" fill="#000001"/>
<path d="M12.1899 15.74V17.27H13.7099V18.79H15.2399V20.31H16.7599V18.79H18.2799V17.27H19.8099V15.74H12.1899Z" fill="#000001"/>
<path d="M18.28 23.36H15.24V24.88H18.28V23.36Z" fill="#000001"/>
<path d="M19.8099 6.6H12.1899V8.12H19.8099V6.6Z" fill="#000001"/>
<path d="M12.19 5.08H10.66V6.6H12.19V5.08Z" fill="#000001"/>
<path d="M10.66 29.46H6.08997V30.98H10.66V29.46Z" fill="#000001"/>
<path d="M12.19 17.27H6.08997V18.79H12.19V17.27Z" fill="#000001"/>
<path d="M10.66 14.22H9.14001V15.74H10.66V14.22Z" fill="#000001"/>
<path d="M10.66 3.55H9.14001V5.08H10.66V3.55Z" fill="#000001"/>
<path d="M10.66 9.65V8.12H9.13997V6.6H7.61997V5.08H6.08997V9.65H10.66Z" fill="#000001"/>
<path d="M9.14 2.03H7.62V3.55H9.14V2.03Z" fill="#000001"/>
<path d="M6.08995 27.93H4.56995V29.46H6.08995V27.93Z" fill="#000001"/>
<path d="M6.08995 2.03H7.61995V0.5H4.56995V3.55H6.08995V2.03Z" fill="#000001"/>
<path d="M4.57005 26.41H3.05005V27.93H4.57005V26.41Z" fill="#000001"/>
<path d="M6.09005 18.79H3.05005V20.31H6.09005V18.79Z" fill="#000001"/>
<path d="M4.57005 3.55H3.05005V14.22H4.57005V3.55Z" fill="#000001"/>
<path d="M3.05002 23.36H1.52002V26.41H3.05002V23.36Z" fill="#000001"/>
<path d="M3.05 21.84V20.31H1.52V17.27H0V23.36H1.52V21.84H3.05Z" fill="#000001"/>
<path d="M3.05002 14.22H1.52002V17.27H3.05002V14.22Z" fill="#000001"/>
</g>
<defs>
<clipPath id="clip0_1138_123574">
<rect width="32" height="32" fill="white" transform="translate(0 0.5)"/>
</clipPath>
</defs>
</svg>
