<svg width="32" height="33" viewBox="0 0 32 33" fill="none" xmlns="http://www.w3.org/2000/svg">
<path d="M32 17.26H30.48V18.79H32V17.26Z" fill="#000001"/>
<path d="M30.48 18.79H28.95V20.31H30.48V18.79Z" fill="#000001"/>
<path d="M28.95 23.36H27.43V26.41H28.95V23.36Z" fill="#000001"/>
<path d="M28.95 20.31H27.43V21.84H28.95V20.31Z" fill="#000001"/>
<path d="M27.43 21.84H25.91V23.36H27.43V21.84Z" fill="#000001"/>
<path d="M27.43 26.41H22.86V27.93H27.43V26.41Z" fill="#000001"/>
<path d="M24.38 6.6H22.86V8.12H24.38V6.6Z" fill="#000001"/>
<path d="M22.86 24.88H21.34V26.41H22.86V24.88Z" fill="#000001"/>
<path d="M21.34 23.36H19.81V24.88H21.34V23.36Z" fill="#000001"/>
<path d="M19.81 21.84H18.29V23.36H19.81V21.84Z" fill="#000001"/>
<path d="M22.86 5.07H15.24V6.6H22.86V5.07Z" fill="#000001"/>
<path d="M18.29 23.36H15.24V24.88H18.29V23.36Z" fill="#000001"/>
<path d="M15.24 21.84H13.72V23.36H15.24V21.84Z" fill="#000001"/>
<path d="M13.72 23.36H12.19V24.88H13.72V23.36Z" fill="#000001"/>
<path d="M12.19 24.88H7.62V26.41H12.19V24.88Z" fill="#000001"/>
<path d="M10.67 20.31H9.15002V21.84H10.67V20.31Z" fill="#000001"/>
<path d="M10.67 15.74H9.15002V17.26H10.67V15.74Z" fill="#000001"/>
<path d="M10.67 12.69V11.17H12.19V12.69H13.72V15.74H12.19V17.26H10.67V18.79H12.19V20.31H25.91V18.79H27.43V17.26H30.48V15.74H28.95V12.69H27.43V15.74H25.91V17.26H24.38V15.74H22.86V12.69H24.38V11.17H25.91V12.69H27.43V9.65H25.91V8.12H24.38V9.65H22.86V11.17H16.76V8.12H15.24V6.6H12.19V8.12H10.67V9.65H9.15002V12.69H10.67ZM15.24 17.26H16.76V15.74H21.34V17.26H22.86V18.79H15.24V17.26Z" fill="#000001"/>
<path d="M9.14999 21.84H7.62V23.36H9.14999V21.84Z" fill="#000001"/>
<path d="M9.14999 18.79H7.62V20.31H9.14999V18.79Z" fill="#000001"/>
<path d="M9.14999 12.69H7.62V15.74H9.14999V12.69Z" fill="#000001"/>
<path d="M9.14999 8.12H7.62V9.65H9.14999V8.12Z" fill="#000001"/>
<path d="M7.61998 23.36H6.09998V24.88H7.61998V23.36Z" fill="#000001"/>
<path d="M7.61998 17.26H6.09998V18.79H7.61998V17.26Z" fill="#000001"/>
<path d="M6.10001 15.74H4.57001V17.26H6.10001V15.74Z" fill="#000001"/>
<path d="M7.61999 6.6H3.04999V8.12H7.61999V6.6Z" fill="#000001"/>
<path d="M4.57003 14.22H1.53003V15.74H4.57003V14.22Z" fill="#000001"/>
<path d="M4.56999 11.17H3.04999V12.69H4.56999V11.17Z" fill="#000001"/>
<path d="M3.05003 8.12H1.53003V9.65H3.05003V8.12Z" fill="#000001"/>
<path d="M1.53 9.65H0V14.22H1.53V9.65Z" fill="#000001"/>
</svg>
