<svg width="32" height="33" viewBox="0 0 32 33" fill="none" xmlns="http://www.w3.org/2000/svg">
<g clip-path="url(#clip0_1138_123349)">
<path d="M28.95 20.31H27.43V27.93H28.95V20.31Z" fill="#000001"/>
<path d="M27.43 27.93H25.91V29.46H27.43V27.93Z" fill="#000001"/>
<path d="M27.43 17.26H25.91V20.31H27.43V17.26Z" fill="#000001"/>
<path d="M25.91 3.55H24.38V17.26H25.91V3.55Z" fill="#000001"/>
<path d="M25.91 29.46H22.86V30.98H25.91V29.46Z" fill="#000001"/>
<path d="M24.38 2.03H22.86V3.55H24.38V2.03Z" fill="#000001"/>
<path d="M22.86 0.5H19.81V2.03H22.86V0.5Z" fill="#000001"/>
<path d="M22.86 30.98H9.14996V32.5H22.86V30.98Z" fill="#000001"/>
<path d="M21.34 18.79H19.81V20.31H21.34V18.79Z" fill="#000001"/>
<path d="M22.86 5.07H19.81V14.22H22.86V5.07Z" fill="#000001"/>
<path d="M19.81 23.36H18.29V24.88H19.81V23.36Z" fill="#000001"/>
<path d="M19.81 2.03H18.29V3.55H19.81V2.03Z" fill="#000001"/>
<path d="M18.29 3.55H16.76V15.74H18.29V3.55Z" fill="#000001"/>
<path d="M18.29 24.88H15.24V26.41H18.29V24.88Z" fill="#000001"/>
<path d="M15.24 23.36H16.76V21.84H18.29V20.31H13.72V21.84H15.24V23.36Z" fill="#000001"/>
<path d="M16.76 15.74H15.24V17.26H16.76V15.74Z" fill="#000001"/>
<path d="M15.24 3.55H13.72V15.74H15.24V3.55Z" fill="#000001"/>
<path d="M13.72 2.03H12.19V3.55H13.72V2.03Z" fill="#000001"/>
<path d="M12.19 18.79H10.67V20.31H12.19V18.79Z" fill="#000001"/>
<path d="M12.19 0.5H9.14996V2.03H12.19V0.5Z" fill="#000001"/>
<path d="M12.19 5.07H9.14996V14.22H12.19V5.07Z" fill="#000001"/>
<path d="M9.14998 29.46H6.09998V30.98H9.14998V29.46Z" fill="#000001"/>
<path d="M9.14999 2.03H7.62V3.55H9.14999V2.03Z" fill="#000001"/>
<path d="M7.61998 3.55H6.09998V17.26H7.61998V3.55Z" fill="#000001"/>
<path d="M6.10001 27.93H4.57001V29.46H6.10001V27.93Z" fill="#000001"/>
<path d="M6.10001 17.26H4.57001V20.31H6.10001V17.26Z" fill="#000001"/>
<path d="M4.56999 20.31H3.04999V27.93H4.56999V20.31Z" fill="#000001"/>
</g>
<defs>
<clipPath id="clip0_1138_123349">
<rect width="32" height="32" fill="white" transform="translate(0 0.5)"/>
</clipPath>
</defs>
</svg>
