<svg width="32" height="33" viewBox="0 0 32 33" fill="none" xmlns="http://www.w3.org/2000/svg">
<g clip-path="url(#clip0_1138_123378)">
<path d="M30.48 2.03V3.55H25.91V5.07H24.38V6.6H22.86V9.65H24.38V14.22H25.91V9.65H27.43V8.12H30.48V6.6H32V2.03H30.48Z" fill="#000001"/>
<path d="M30.4799 20.31H28.95V26.41H30.4799V20.31Z" fill="#000001"/>
<path d="M28.9501 26.41H27.4301V27.93H28.9501V26.41Z" fill="#000001"/>
<path d="M28.9501 17.26H27.4301V20.31H28.9501V17.26Z" fill="#000001"/>
<path d="M27.43 27.93H25.91V29.46H27.43V27.93Z" fill="#000001"/>
<path d="M27.43 14.22H25.91V17.26H27.43V14.22Z" fill="#000001"/>
<path d="M30.48 0.5H24.38V2.03H30.48V0.5Z" fill="#000001"/>
<path d="M25.91 29.46H22.86V30.98H25.91V29.46Z" fill="#000001"/>
<path d="M25.91 20.31H21.34V21.84H25.91V20.31Z" fill="#000001"/>
<path d="M24.38 2.03H22.86V3.55H24.38V2.03Z" fill="#000001"/>
<path d="M24.38 23.36H21.34V24.88H24.38V23.36Z" fill="#000001"/>
<path d="M22.86 15.74H21.34V17.26H22.86V15.74Z" fill="#000001"/>
<path d="M22.86 3.55H21.34V5.07H22.86V3.55Z" fill="#000001"/>
<path d="M22.86 30.98H9.15002V32.5H22.86V30.98Z" fill="#000001"/>
<path d="M21.3401 5.07H19.8101V9.65H21.3401V5.07Z" fill="#000001"/>
<path d="M13.72 18.79V20.31H15.24V21.84H16.76V20.31H18.29V18.79H13.72Z" fill="#000001"/>
<path d="M19.8099 9.65H12.1899V11.17H19.8099V9.65Z" fill="#000001"/>
<path d="M12.19 5.07H10.67V9.65H12.19V5.07Z" fill="#000001"/>
<path d="M10.67 15.74H9.15002V17.26H10.67V15.74Z" fill="#000001"/>
<path d="M10.67 3.55H9.15002V5.07H10.67V3.55Z" fill="#000001"/>
<path d="M9.14998 29.46H6.09998V30.98H9.14998V29.46Z" fill="#000001"/>
<path d="M10.67 23.36H7.62V24.88H10.67V23.36Z" fill="#000001"/>
<path d="M10.67 20.31H6.09998V21.84H10.67V20.31Z" fill="#000001"/>
<path d="M9.14999 2.03H7.62V3.55H9.14999V2.03Z" fill="#000001"/>
<path d="M7.62 9.65H9.15V6.6H7.62V5.07H6.1V3.55H1.53V2.03H0V6.6H1.53V8.12H4.57V9.65H6.1V14.22H7.62V9.65Z" fill="#000001"/>
<path d="M6.09995 27.93H4.56995V29.46H6.09995V27.93Z" fill="#000001"/>
<path d="M6.09995 14.22H4.56995V17.26H6.09995V14.22Z" fill="#000001"/>
<path d="M4.57005 26.41H3.05005V27.93H4.57005V26.41Z" fill="#000001"/>
<path d="M4.57005 17.26H3.05005V20.31H4.57005V17.26Z" fill="#000001"/>
<path d="M7.62003 0.5H1.53003V2.03H7.62003V0.5Z" fill="#000001"/>
<path d="M3.05003 20.31H1.53003V26.41H3.05003V20.31Z" fill="#000001"/>
</g>
<defs>
<clipPath id="clip0_1138_123378">
<rect width="32" height="32" fill="white" transform="translate(0 0.5)"/>
</clipPath>
</defs>
</svg>
