<svg width="33" height="32" viewBox="0 0 33 32" fill="none" xmlns="http://www.w3.org/2000/svg">
<path d="M26.155 23.615H24.635V25.145H23.105V26.665H21.585V28.195H20.055V29.715H24.635V28.195H26.155V26.665H27.675V22.095H26.155V23.615Z" fill="#000001"/>
<path d="M24.635 12.955H26.155V0.765015H23.105V2.28501H24.635V12.955Z" fill="#000001"/>
<path d="M24.635 12.955H23.105V14.475H24.635V12.955Z" fill="#000001"/>
<path d="M23.105 2.285H21.585V3.815H23.105V2.285Z" fill="#000001"/>
<path d="M21.585 26.665V25.145H23.105V23.615H24.635V22.095H26.155V20.575H21.585V22.095H20.055V23.615H18.535V28.195H20.055V26.665H21.585Z" fill="#000001"/>
<path d="M23.105 14.475H20.055V16.005H23.105V14.475Z" fill="#000001"/>
<path d="M21.585 3.815H20.055V5.335H21.585V3.815Z" fill="#000001"/>
<path d="M20.055 16.005H12.445V17.525H15.485V31.235H17.015V17.525H20.055V16.005Z" fill="#000001"/>
<path d="M20.055 2.285H18.535V3.815H20.055V2.285Z" fill="#000001"/>
<path d="M18.535 0.765015H13.965V2.28501H18.535V0.765015Z" fill="#000001"/>
<path d="M13.965 2.285H12.445V3.815H13.965V2.285Z" fill="#000001"/>
<path d="M12.445 22.095H10.915V20.575H6.345V22.095H7.865V23.615H9.395V25.145H10.915V26.665H12.445V28.195H13.965V23.615H12.445V22.095Z" fill="#000001"/>
<path d="M12.445 14.475H9.39502V16.005H12.445V14.475Z" fill="#000001"/>
<path d="M12.445 3.815H10.915V5.335H12.445V3.815Z" fill="#000001"/>
<path d="M10.915 26.665H9.39501V25.145H7.86501V23.615H6.34501V22.095H4.82501V26.665H6.34501V28.195H7.86501V29.715H12.445V28.195H10.915V26.665Z" fill="#000001"/>
<path d="M10.915 2.285H9.39502V3.815H10.915V2.285Z" fill="#000001"/>
<path d="M9.39502 12.955H7.86502V14.475H9.39502V12.955Z" fill="#000001"/>
<path d="M7.865 2.28501H9.395V0.765015H6.345V12.955H7.865V2.28501Z" fill="#000001"/>
</svg>
