<svg width="32" height="33" viewBox="0 0 32 33" fill="none" xmlns="http://www.w3.org/2000/svg">
<path d="M30.47 12.945H27.43V9.895H25.9V12.945H19.81V14.465H28.95V15.985H30.47V14.465H32V9.895H30.47V12.945Z" fill="#000001"/>
<path d="M30.47 8.36499H27.43V9.89499H30.47V8.36499Z" fill="#000001"/>
<path d="M28.95 15.985H27.43V17.515H28.95V15.985Z" fill="#000001"/>
<path d="M27.43 17.515H24.38V19.035H27.43V17.515Z" fill="#000001"/>
<path d="M21.33 22.085H22.86V20.565H24.38V19.035H21.33V22.085Z" fill="#000001"/>
<path d="M21.33 22.085H19.81V23.605H21.33V22.085Z" fill="#000001"/>
<path d="M19.81 26.655H18.28V28.175H19.81V26.655Z" fill="#000001"/>
<path d="M18.28 17.515H16.76V23.605H12.19V17.515H10.66V23.605H3.04999V25.135H4.56999V28.175H3.04999V29.705H18.28V28.175H16.76V25.135H19.81V23.605H18.28V17.515ZM15.24 28.175H6.08999V25.135H15.24V28.175Z" fill="#000001"/>
<path d="M19.81 11.415H16.76V12.945H19.81V11.415Z" fill="#000001"/>
<path d="M16.76 15.985H12.19V17.515H16.76V15.985Z" fill="#000001"/>
<path d="M7.62 11.415H16.76V9.895H13.71V8.365H12.19V5.325H24.38V3.795H0V5.325H10.66V8.365H9.14V9.895H6.09V11.415H4.57V12.945H7.62V11.415Z" fill="#000001"/>
<path d="M3.05002 26.655H1.52002V28.175H3.05002V26.655Z" fill="#000001"/>
<path d="M3.05002 22.085H1.52002V23.605H3.05002V22.085Z" fill="#000001"/>
<path d="M6.09 20.565V19.035H7.62V17.515H9.14V12.945H7.62V15.985H6.09V14.465H4.57V12.945H3.05V14.465H1.52V15.985H0V22.085H1.52V20.565H6.09Z" fill="#000001"/>
</svg>
