<svg width="32" height="33" viewBox="0 0 32 33" fill="none" xmlns="http://www.w3.org/2000/svg">
<path d="M27.43 5.32001V6.85001H30.47V14.47H25.9V15.99H19.81V17.51H13.71V19.04H9.14002V20.56H1.52002V22.09H3.05002V23.61H16.76V22.09H15.24V20.56H18.28V19.04H22.86V20.56H24.38V22.09H25.9V19.04H28.95V17.51H30.47V15.99H32V5.32001H27.43Z" fill="#000001"/>
<path d="M30.4699 25.13H28.95V28.18H30.4699V25.13Z" fill="#000001"/>
<path d="M28.9501 23.61H27.4301V25.13H28.9501V23.61Z" fill="#000001"/>
<path d="M28.95 28.18H25.9V29.7H28.95V28.18Z" fill="#000001"/>
<path d="M27.43 22.09H25.9V23.61H27.43V22.09Z" fill="#000001"/>
<path d="M27.43 6.85001H25.9V9.89001H27.43V6.85001Z" fill="#000001"/>
<path d="M25.9 26.66H22.86V28.18H25.9V26.66Z" fill="#000001"/>
<path d="M25.9 9.89H24.38V11.42H25.9V9.89Z" fill="#000001"/>
<path d="M24.38 5.32001H22.86V8.37001H24.38V5.32001Z" fill="#000001"/>
<path d="M22.86 25.13H19.81V26.66H22.86V25.13Z" fill="#000001"/>
<path d="M22.86 8.37H21.33V9.89H22.86V8.37Z" fill="#000001"/>
<path d="M22.86 3.8H19.81V5.32H22.86V3.8Z" fill="#000001"/>
<path d="M19.81 23.61H16.76V25.13H19.81V23.61Z" fill="#000001"/>
<path d="M19.81 5.32001H16.76V6.85001H19.81V5.32001Z" fill="#000001"/>
<path d="M18.28 14.47H16.76V15.99H18.28V14.47Z" fill="#000001"/>
<path d="M16.76 6.85001H15.24V8.37001H16.76V6.85001Z" fill="#000001"/>
<path d="M15.24 14.47H13.71V15.99H15.24V14.47Z" fill="#000001"/>
<path d="M15.24 8.37H13.71V9.89H15.24V8.37Z" fill="#000001"/>
<path d="M12.19 14.47H10.66V15.99H12.19V14.47Z" fill="#000001"/>
<path d="M7.62003 14.47H6.09003V17.51H7.62003V14.47Z" fill="#000001"/>
<path d="M6.08999 12.94H24.38V11.42H21.33V9.89H19.81V11.42H13.71V9.89H12.19V11.42H4.56999V12.94H3.04999V14.47H6.08999V12.94Z" fill="#000001"/>
<path d="M6.09 19.04V17.51H1.52V15.99H0V20.56H1.52V19.04H6.09Z" fill="#000001"/>
<path d="M3.05002 14.47H1.52002V15.99H3.05002V14.47Z" fill="#000001"/>
</svg>
