<svg width="32" height="33" viewBox="0 0 32 33" fill="none" xmlns="http://www.w3.org/2000/svg">
<path d="M32 17.51H30.47V25.13H32V17.51Z" fill="#000001"/>
<path d="M30.4699 25.13H28.95V26.65H30.4699V25.13Z" fill="#000001"/>
<path d="M30.4699 15.99H28.95V17.51H30.4699V15.99Z" fill="#000001"/>
<path d="M28.95 26.65H21.33V28.18H28.95V26.65Z" fill="#000001"/>
<path d="M25.9 20.56H24.38V22.08H25.9V20.56Z" fill="#000001"/>
<path d="M21.3301 25.13H19.8101V26.65H21.3301V25.13Z" fill="#000001"/>
<path d="M21.3301 15.99H19.8101V17.51H21.3301V15.99Z" fill="#000001"/>
<path d="M21.33 5.32001H16.76V6.84001H21.33V5.32001Z" fill="#000001"/>
<path d="M19.8099 17.51H18.2799V20.56H13.7099V17.51H12.1899V20.56H6.08995V19.03H4.56995V22.08H12.1899V25.13H13.7099V22.08H18.2799V25.13H19.8099V17.51Z" fill="#000001"/>
<path d="M12.19 25.13H10.66V26.65H12.19V25.13Z" fill="#000001"/>
<path d="M12.19 15.99H10.66V17.51H12.19V15.99Z" fill="#000001"/>
<path d="M10.66 26.65H3.05005V28.18H10.66V26.65Z" fill="#000001"/>
<path d="M7.61997 17.51H6.08997V19.03H7.61997V17.51Z" fill="#000001"/>
<path d="M7.62005 15.99V17.51H9.14005V15.99H10.66V14.46H21.33V15.99H22.8601V20.56H24.38V15.99H28.9501V14.46H24.38V6.84001H21.33V8.37001H22.8601V12.94H10.66V11.41H13.71V9.89001H12.19V8.37001H9.14005V6.84001H6.09005V11.41H9.14005V14.46H3.05005V15.99H7.62005Z" fill="#000001"/>
<path d="M3.05002 25.13H1.52002V26.65H3.05002V25.13Z" fill="#000001"/>
<path d="M3.05002 15.99H1.52002V17.51H3.05002V15.99Z" fill="#000001"/>
<path d="M1.52 17.51H0V25.13H1.52V17.51Z" fill="#000001"/>
</svg>
