<svg width="32" height="33" viewBox="0 0 32 33" fill="none" xmlns="http://www.w3.org/2000/svg">
<g clip-path="url(#clip0_1138_120842)">
<path d="M32 26.65H30.47V28.17H32V26.65Z" fill="#000001"/>
<path d="M30.4699 17.51H28.95V26.65H30.4699V17.51Z" fill="#000001"/>
<path d="M28.9501 15.98H27.4301V17.51H28.9501V15.98Z" fill="#000001"/>
<path d="M28.9501 8.36H27.4301V9.89H28.9501V8.36Z" fill="#000001"/>
<path d="M27.43 25.13H25.9V29.7H27.43V28.17H28.95V26.65H27.43V25.13Z" fill="#000001"/>
<path d="M25.9 29.7H24.38V31.22H25.9V29.7Z" fill="#000001"/>
<path d="M25.9 23.6H24.38V25.13H25.9V23.6Z" fill="#000001"/>
<path d="M24.3801 31.22H19.8101V32.75H24.3801V31.22Z" fill="#000001"/>
<path d="M24.3801 22.08H19.8101V23.6H24.3801V22.08Z" fill="#000001"/>
<path d="M27.43 6.84H18.28V8.36H27.43V6.84Z" fill="#000001"/>
<path d="M19.81 29.7H18.28V31.22H19.81V29.7Z" fill="#000001"/>
<path d="M19.81 28.17V29.7H22.86V25.13H19.81V26.65H18.28V25.13H16.76V26.65H13.71V25.13H12.19V26.65H10.66V25.13H7.62V29.7H10.66V28.17H12.19V29.7H13.71V28.17H16.76V29.7H18.28V28.17H19.81Z" fill="#000001"/>
<path d="M19.81 23.6H18.28V25.13H19.81V23.6Z" fill="#000001"/>
<path d="M19.81 2.27H18.28V3.79H19.81V2.27Z" fill="#000001"/>
<path d="M27.43 15.98V14.46H25.9V11.41H27.43V9.89H18.28V11.41H19.81V14.46H16.76V15.98H27.43ZM21.33 11.41H24.38V14.46H21.33V11.41Z" fill="#000001"/>
<path d="M18.28 8.36H16.76V9.89H18.28V8.36Z" fill="#000001"/>
<path d="M16.76 12.94H15.24V14.46H16.76V12.94Z" fill="#000001"/>
<path d="M12.19 29.7H10.66V31.22H12.19V29.7Z" fill="#000001"/>
<path d="M12.19 23.6H10.66V25.13H12.19V23.6Z" fill="#000001"/>
<path d="M3.05005 8.36V17.51H12.19V8.36H3.05005ZM10.66 15.98H4.57005V9.89H10.66V15.98Z" fill="#000001"/>
<path d="M10.66 31.22H6.08997V32.75H10.66V31.22Z" fill="#000001"/>
<path d="M10.66 22.08H6.08997V23.6H10.66V22.08Z" fill="#000001"/>
<path d="M6.08995 29.7H4.56995V31.22H6.08995V29.7Z" fill="#000001"/>
<path d="M6.08995 23.6H4.56995V25.13H6.08995V23.6Z" fill="#000001"/>
<path d="M4.57002 25.13H3.05002V26.65H1.52002V28.17H3.05002V29.7H4.57002V25.13Z" fill="#000001"/>
<path d="M18.28 0.75H1.52002V2.27H18.28V0.75Z" fill="#000001"/>
<path d="M1.52 5.32H13.71V12.94H15.24V5.32H18.28V3.79H1.52V2.27H0V26.65H1.52V5.32Z" fill="#000001"/>
</g>
<defs>
<clipPath id="clip0_1138_120842">
<rect width="32" height="32" fill="white" transform="translate(0 0.75)"/>
</clipPath>
</defs>
</svg>
