<svg width="32" height="33" viewBox="0 0 32 33" fill="none" xmlns="http://www.w3.org/2000/svg">
<path d="M30.47 12.94H28.95V11.41H27.43V9.89001H25.9V12.94H24.38V14.46H22.86V9.89001H25.9V8.37001H18.28V6.84001H16.76V17.51H1.52V6.84001H0V23.6H1.52V19.03H16.76V23.6H10.66V22.08H9.14V26.65H10.66V25.13H19.81V26.65H21.33V22.08H19.81V23.6H18.28V9.89001H21.33V15.99H22.86V17.51H30.47V23.6H32V14.46H30.47V12.94Z" fill="#000001"/>
<path d="M27.43 22.08H25.9V26.65H27.43V25.13H30.47V23.6H27.43V22.08Z" fill="#000001"/>
<path d="M25.9 26.65H21.33V28.18H25.9V26.65Z" fill="#000001"/>
<path d="M24.38 23.6H22.86V25.13H24.38V23.6Z" fill="#000001"/>
<path d="M25.9 20.56H21.33V22.08H25.9V20.56Z" fill="#000001"/>
<path d="M9.13995 20.56H4.56995V22.08H9.13995V20.56Z" fill="#000001"/>
<path d="M9.13995 26.65H4.56995V28.18H9.13995V26.65Z" fill="#000001"/>
<path d="M7.61997 23.6H6.08997V25.13H7.61997V23.6Z" fill="#000001"/>
<path d="M15.24 12.94H3.05005V14.46H15.24V12.94Z" fill="#000001"/>
<path d="M15.24 9.89001H3.05005V11.41H15.24V9.89001Z" fill="#000001"/>
<path d="M4.57002 22.08H3.05002V23.6H1.52002V25.13H3.05002V26.65H4.57002V22.08Z" fill="#000001"/>
<path d="M16.76 5.32001H1.52002V6.84001H16.76V5.32001Z" fill="#000001"/>
</svg>
