<svg width="32" height="33" viewBox="0 0 32 33" fill="none" xmlns="http://www.w3.org/2000/svg">
<g clip-path="url(#clip0_1138_120885)">
<path d="M3.04502 17.51H28.955V25.13H30.475V3.78999H28.955V6.83999H3.04502V3.78999H1.52502V25.13H3.04502V17.51ZM16.765 8.35999H28.955V15.98H16.765V8.35999ZM3.04502 8.35999H15.235V15.98H3.04502V8.35999Z" fill="#000001"/>
<path d="M28.955 25.13H27.425V26.65H28.955V25.13Z" fill="#000001"/>
<path d="M28.955 2.27H27.425V3.79H28.955V2.27Z" fill="#000001"/>
<path d="M27.425 20.56H25.905V23.6H27.425V20.56Z" fill="#000001"/>
<path d="M4.57507 26.65V28.17H7.61507V29.7H6.09507V31.22H4.57507V32.75H7.61507V31.22H9.14507V29.7H10.6651V28.17H21.3351V29.7H22.8551V31.22H24.3851V32.75H27.4251V31.22H25.9051V29.7H24.3851V28.17H27.4251V26.65H4.57507Z" fill="#000001"/>
<path d="M25.905 19.03H22.855V20.56H25.905V19.03Z" fill="#000001"/>
<path d="M25.905 23.6H22.855V25.13H25.905V23.6Z" fill="#000001"/>
<path d="M22.8551 20.56H21.3351V23.6H22.8551V20.56Z" fill="#000001"/>
<path d="M18.285 20.56H13.715V23.6H18.285V20.56Z" fill="#000001"/>
<path d="M18.285 3.78999H13.715V5.31999H18.285V3.78999Z" fill="#000001"/>
<path d="M10.665 20.56H9.14502V23.6H10.665V20.56Z" fill="#000001"/>
<path d="M9.14497 19.03H6.09497V20.56H9.14497V19.03Z" fill="#000001"/>
<path d="M9.14497 23.6H6.09497V25.13H9.14497V23.6Z" fill="#000001"/>
<path d="M27.4251 0.75H4.57507V2.27H27.4251V0.75Z" fill="#000001"/>
<path d="M6.09507 20.56H4.57507V23.6H6.09507V20.56Z" fill="#000001"/>
<path d="M4.57504 25.13H3.04504V26.65H4.57504V25.13Z" fill="#000001"/>
<path d="M4.57504 2.27H3.04504V3.79H4.57504V2.27Z" fill="#000001"/>
</g>
<defs>
<clipPath id="clip0_1138_120885">
<rect width="32" height="32" fill="white" transform="translate(0 0.75)"/>
</clipPath>
</defs>
</svg>
