<svg width="32" height="33" viewBox="0 0 32 33" fill="none" xmlns="http://www.w3.org/2000/svg">
<path d="M32 19.04H30.48V23.61H32V19.04Z" fill="#000001"/>
<path d="M30.48 17.51H28.96V19.04H30.48V17.51Z" fill="#000001"/>
<path d="M28.96 20.56H27.43V23.61H18.29V20.56H16.77V22.09H15.24V19.04H13.72V22.09H10.67V23.61H6.09998V25.13H10.67V26.66H12.19V25.13H18.29V26.66H19.81V25.13H27.43V26.66H28.96V25.13H30.48V23.61H28.96V20.56Z" fill="#000001"/>
<path d="M27.43 26.66H25.91V28.18H27.43V26.66Z" fill="#000001"/>
<path d="M27.43 19.04H25.91V20.56H27.43V19.04Z" fill="#000001"/>
<path d="M25.91 28.18H21.34V29.7H25.91V28.18Z" fill="#000001"/>
<path d="M24.39 20.56H21.34V22.09H24.39V20.56Z" fill="#000001"/>
<path d="M25.91 17.51H19.81V19.04H25.91V17.51Z" fill="#000001"/>
<path d="M21.34 26.66H19.81V28.18H21.34V26.66Z" fill="#000001"/>
<path d="M19.81 19.04H18.29V20.56H19.81V19.04Z" fill="#000001"/>
<path d="M16.77 15.99H27.43V17.51H28.96V15.99H30.48V12.94H28.96V11.42H15.24V12.94H13.72V15.99H15.24V19.04H16.77V15.99Z" fill="#000001"/>
<path d="M10.67 26.66H9.15002V28.18H10.67V26.66Z" fill="#000001"/>
<path d="M9.14999 19.04H7.62V20.56H9.14999V22.09H10.67V9.89H9.14999V19.04Z" fill="#000001"/>
<path d="M9.14998 8.37H10.67V9.89H12.19V8.37H15.24V6.85H12.19V5.32H10.67V3.8H6.09998V5.32H9.14998V8.37Z" fill="#000001"/>
<path d="M9.15002 28.18H4.58002V29.7H9.15002V28.18Z" fill="#000001"/>
<path d="M7.61999 6.85001H6.09999V9.89001H3.04999V11.42H6.09999V12.94H7.61999V6.85001Z" fill="#000001"/>
<path d="M6.10002 12.94H4.58002V15.99H6.10002V12.94Z" fill="#000001"/>
<path d="M6.09999 5.32001H3.04999V6.85001H6.09999V5.32001Z" fill="#000001"/>
<path d="M4.57999 26.66H3.04999V28.18H4.57999V26.66Z" fill="#000001"/>
<path d="M7.62003 19.04V17.51H4.58003V15.99H3.05003V17.51H1.53003V19.04H7.62003Z" fill="#000001"/>
<path d="M6.1 23.61V22.09H1.53V19.04H0V23.61H1.53V26.66H3.05V23.61H6.1Z" fill="#000001"/>
<path d="M3.05003 6.85001H1.53003V9.89001H3.05003V6.85001Z" fill="#000001"/>
</svg>
