<svg width="32" height="32" viewBox="0 0 32 32" fill="none" xmlns="http://www.w3.org/2000/svg">
<path d="M30.475 3.04999H28.955V4.56999H30.475V3.04999Z" fill="#000001"/>
<path d="M27.435 19.81H21.335V15.24H19.815V19.81H12.195V15.24H10.665V19.81H4.575V16.77H3.055V21.34H15.245V30.48H16.765V21.34H28.955V16.77H27.435V19.81Z" fill="#000001"/>
<path d="M30.475 9.14999H27.435V12.19H30.475V9.14999Z" fill="#000001"/>
<path d="M27.435 13.72H25.905V16.77H27.435V13.72Z" fill="#000001"/>
<path d="M27.435 0H25.905V1.53H27.435V0Z" fill="#000001"/>
<path d="M25.905 12.19H24.385V13.72H25.905V12.19Z" fill="#000001"/>
<path d="M24.385 6.10001H22.855V7.62001H24.385V6.10001Z" fill="#000001"/>
<path d="M24.385 10.67H21.335V12.19H24.385V10.67Z" fill="#000001"/>
<path d="M21.335 1.53H18.285V4.57H21.335V1.53Z" fill="#000001"/>
<path d="M19.815 12.19H18.285V15.24H19.815V12.19Z" fill="#000001"/>
<path d="M15.245 30.48H12.195V32H15.245V30.48Z" fill="#000001"/>
<path d="M13.715 12.19H12.195V15.24H13.715V12.19Z" fill="#000001"/>
<path d="M13.715 12.19H15.245V10.67H16.765V12.19H18.285V10.67H21.335V9.14999H16.765V7.62H15.245V9.14999H10.665V10.67H13.715V12.19Z" fill="#000001"/>
<path d="M13.715 3.04999H12.195V4.56999H13.715V3.04999Z" fill="#000001"/>
<path d="M12.195 28.96H10.665V30.48H12.195V28.96Z" fill="#000001"/>
<path d="M10.665 10.67H7.625V12.19H10.665V10.67Z" fill="#000001"/>
<path d="M9.145 0H7.625V1.53H9.145V0Z" fill="#000001"/>
<path d="M7.625 12.19H6.095V13.72H7.625V12.19Z" fill="#000001"/>
<path d="M6.095 13.72H4.575V16.77H6.095V13.72Z" fill="#000001"/>
<path d="M7.625 6.10001H4.575V9.15001H7.625V6.10001Z" fill="#000001"/>
<path d="M4.575 1.53H3.055V3.05H4.575V1.53Z" fill="#000001"/>
<path d="M3.055 9.14999H1.525V10.67H3.055V9.14999Z" fill="#000001"/>
</svg>
