<svg width="32" height="32" viewBox="0 0 32 32" fill="none" xmlns="http://www.w3.org/2000/svg">
<path d="M28.95 12.185H27.43V19.805H28.95V12.185Z" fill="#000001"/>
<path d="M27.43 19.805H25.9V22.855H27.43V19.805Z" fill="#000001"/>
<path d="M27.43 9.14502H25.9V12.185H27.43V9.14502Z" fill="#000001"/>
<path d="M25.9 22.855H24.38V24.375H25.9V22.855Z" fill="#000001"/>
<path d="M25.9 7.61502H24.38V9.14502H25.9V7.61502Z" fill="#000001"/>
<path d="M24.38 24.375H22.85V25.905H24.38V24.375Z" fill="#000001"/>
<path d="M24.38 16.765H22.85V18.285H24.38V16.765Z" fill="#000001"/>
<path d="M24.38 6.095H22.85V7.615H24.38V6.095Z" fill="#000001"/>
<path d="M22.85 12.185H19.81V15.235H22.85V12.185Z" fill="#000001"/>
<path d="M22.85 25.905H19.81V27.425H22.85V25.905Z" fill="#000001"/>
<path d="M21.33 9.14502H19.81V10.665H21.33V9.14502Z" fill="#000001"/>
<path d="M22.85 4.565H19.81V6.095H22.85V4.565Z" fill="#000001"/>
<path d="M19.81 27.425H12.19V28.955H19.81V27.425Z" fill="#000001"/>
<path d="M19.81 19.805H16.76V22.855H19.81V19.805Z" fill="#000001"/>
<path d="M15.24 24.375H13.71V25.905H15.24V24.375Z" fill="#000001"/>
<path d="M15.24 15.235H13.71V16.765H15.24V15.235Z" fill="#000001"/>
<path d="M19.81 3.04501H12.19V4.56501H19.81V3.04501Z" fill="#000001"/>
<path d="M15.24 7.61502H12.19V10.665H15.24V7.61502Z" fill="#000001"/>
<path d="M12.19 25.905H9.13998V27.425H12.19V25.905Z" fill="#000001"/>
<path d="M12.19 21.335H10.66V22.855H12.19V21.335Z" fill="#000001"/>
<path d="M12.19 4.565H9.13998V6.095H12.19V4.565Z" fill="#000001"/>
<path d="M9.14 24.375H7.62V25.905H9.14V24.375Z" fill="#000001"/>
<path d="M9.14 12.185H7.62V13.715H9.14V12.185Z" fill="#000001"/>
<path d="M9.14 6.095H7.62V7.615H9.14V6.095Z" fill="#000001"/>
<path d="M7.62 22.855H6.09V24.375H7.62V22.855Z" fill="#000001"/>
<path d="M9.14 15.235H6.09V18.285H9.14V15.235Z" fill="#000001"/>
<path d="M7.62 7.61502H6.09V9.14502H7.62V7.61502Z" fill="#000001"/>
<path d="M6.08998 19.805H4.56998V22.855H6.08998V19.805Z" fill="#000001"/>
<path d="M6.08998 9.14502H4.56998V12.185H6.08998V9.14502Z" fill="#000001"/>
<path d="M4.56999 12.185H3.04999V19.805H4.56999V12.185Z" fill="#000001"/>
</svg>
