<svg width="32" height="32" viewBox="0 0 32 32" fill="none" xmlns="http://www.w3.org/2000/svg">
<g clip-path="url(#clip0_1138_100866)">
<path d="M32 4.57001H30.47V16.77H32V4.57001Z" fill="#000001"/>
<path d="M30.47 16.77H28.95V18.29H30.47V16.77Z" fill="#000001"/>
<path d="M30.47 3.04999H28.95V4.56999H30.47V3.04999Z" fill="#000001"/>
<path d="M28.95 18.29H27.43V19.81H28.95V18.29Z" fill="#000001"/>
<path d="M28.95 1.53H27.43V3.05H28.95V1.53Z" fill="#000001"/>
<path d="M27.43 4.57001H24.38V6.10001H22.85V15.24H24.38V16.77H27.43V15.24H28.95V6.10001H27.43V4.57001Z" fill="#000001"/>
<path d="M24.38 18.29H22.85V19.81H19.81V21.34H24.38V32H25.9V21.34H27.43V19.81H24.38V18.29Z" fill="#000001"/>
<path d="M22.85 16.77H21.33V18.29H22.85V16.77Z" fill="#000001"/>
<path d="M22.85 3.04999H21.33V4.56999H22.85V3.04999Z" fill="#000001"/>
<path d="M22.85 3.05H24.38V1.53H27.43V0H19.81V1.53H22.85V3.05Z" fill="#000001"/>
<path d="M22.85 27.43H18.28V28.96H22.85V27.43Z" fill="#000001"/>
<path d="M21.33 4.57001H19.81V16.77H21.33V4.57001Z" fill="#000001"/>
<path d="M19.81 18.29H15.24V19.81H19.81V18.29Z" fill="#000001"/>
<path d="M18.28 25.91H13.71V27.43H18.28V25.91Z" fill="#000001"/>
<path d="M19.81 1.53H15.24V3.05H19.81V1.53Z" fill="#000001"/>
<path d="M15.24 3.04999H13.71V4.56999H9.14V6.09999H13.71V15.24H9.14V16.77H13.71V18.29H15.24V3.04999Z" fill="#000001"/>
<path d="M13.71 27.43H10.66V28.96H13.71V27.43Z" fill="#000001"/>
<path d="M13.71 21.34H9.14V22.86H13.71V21.34Z" fill="#000001"/>
<path d="M9.14 19.81H7.62V21.34H9.14V19.81Z" fill="#000001"/>
<path d="M9.14 6.10001H7.62V7.62001H4.57V9.15001H7.62V12.19H4.57V13.72H7.62V15.24H9.14V6.10001Z" fill="#000001"/>
<path d="M7.62 18.29H3.05V19.81H7.62V18.29Z" fill="#000001"/>
<path d="M7.62 3.04999H4.57V4.56999H7.62V3.04999Z" fill="#000001"/>
<path d="M4.57 9.14999H3.05V12.19H4.57V9.14999Z" fill="#000001"/>
<path d="M4.57 1.53H1.52V3.05H4.57V1.53Z" fill="#000001"/>
<path d="M3.05 19.81H0V21.34H3.05V19.81Z" fill="#000001"/>
<path d="M1.52 3.04999H0V4.56999H1.52V3.04999Z" fill="#000001"/>
</g>
<defs>
<clipPath id="clip0_1138_100866">
<rect width="32" height="32" fill="white"/>
</clipPath>
</defs>
</svg>
