<svg width="32" height="32" viewBox="0 0 32 32" fill="none" xmlns="http://www.w3.org/2000/svg">
<g clip-path="url(#clip0_1138_100918)">
<path d="M32 15.24H30.47V19.81H32V15.24Z" fill="#000001"/>
<path d="M30.47 19.81H28.95V21.34H30.47V19.81Z" fill="#000001"/>
<path d="M30.47 12.19H28.95V15.24H30.47V12.19Z" fill="#000001"/>
<path d="M28.95 18.29H27.43V19.81H28.95V18.29Z" fill="#000001"/>
<path d="M28.95 9.14999H27.43V12.19H28.95V9.14999Z" fill="#000001"/>
<path d="M27.43 16.77H24.38V18.29H27.43V16.77Z" fill="#000001"/>
<path d="M27.43 7.62H25.9V9.14999H27.43V7.62Z" fill="#000001"/>
<path d="M25.9 6.10001H24.38V7.62001H25.9V6.10001Z" fill="#000001"/>
<path d="M24.38 18.29H22.85V19.81H24.38V18.29Z" fill="#000001"/>
<path d="M22.85 12.19H21.33V15.24H22.85V12.19Z" fill="#000001"/>
<path d="M24.38 4.57001H21.33V6.10001H24.38V4.57001Z" fill="#000001"/>
<path d="M22.85 19.81H19.81V21.34H22.85V19.81Z" fill="#000001"/>
<path d="M21.33 9.14999H19.81V12.19H21.33V9.14999Z" fill="#000001"/>
<path d="M19.81 18.29H18.28V19.81H19.81V18.29Z" fill="#000001"/>
<path d="M19.81 7.62H18.28V9.14999H19.81V7.62Z" fill="#000001"/>
<path d="M13.71 16.77V18.29H15.24V30.48H16.76V18.29H18.28V16.77H13.71Z" fill="#000001"/>
<path d="M15.24 30.48H12.19V32H15.24V30.48Z" fill="#000001"/>
<path d="M13.71 18.29H12.19V19.81H13.71V18.29Z" fill="#000001"/>
<path d="M13.71 7.62H12.19V9.14999H13.71V7.62Z" fill="#000001"/>
<path d="M21.33 4.57V3.05H16.76V0H15.24V3.05H10.66V4.57H21.33Z" fill="#000001"/>
<path d="M12.19 28.96H10.66V30.48H12.19V28.96Z" fill="#000001"/>
<path d="M12.19 9.14999H10.66V12.19H12.19V9.14999Z" fill="#000001"/>
<path d="M12.19 19.81H9.14V21.34H12.19V19.81Z" fill="#000001"/>
<path d="M10.66 12.19H9.14V15.24H10.66V12.19Z" fill="#000001"/>
<path d="M10.66 4.57001H7.62V6.10001H10.66V4.57001Z" fill="#000001"/>
<path d="M9.14 18.29H7.62V19.81H9.14V18.29Z" fill="#000001"/>
<path d="M7.62 16.77H4.57V18.29H7.62V16.77Z" fill="#000001"/>
<path d="M7.62 6.10001H6.09V7.62001H7.62V6.10001Z" fill="#000001"/>
<path d="M6.09 7.62H4.57V9.14999H6.09V7.62Z" fill="#000001"/>
<path d="M4.57 18.29H3.05V19.81H4.57V18.29Z" fill="#000001"/>
<path d="M4.57 9.14999H3.05V12.19H4.57V9.14999Z" fill="#000001"/>
<path d="M3.05 19.81H1.52V21.34H3.05V19.81Z" fill="#000001"/>
<path d="M3.05 12.19H1.52V15.24H3.05V12.19Z" fill="#000001"/>
<path d="M1.52 15.24H0V19.81H1.52V15.24Z" fill="#000001"/>
</g>
<defs>
<clipPath id="clip0_1138_100918">
<rect width="32" height="32" fill="white"/>
</clipPath>
</defs>
</svg>
