<svg width="32" height="32" viewBox="0 0 32 32" fill="none" xmlns="http://www.w3.org/2000/svg">
<g clip-path="url(#clip0_1138_101082)">
<path d="M29.71 11.43H28.19V12.95H26.67V14.48H28.19V16H29.71V14.48H31.24V12.95H29.71V11.43Z" fill="#000001"/>
<path d="M29.71 22.1H28.19V23.62H29.71V22.1Z" fill="#000001"/>
<path d="M26.67 0.76001V2.29001H25.14V3.81001H26.67V5.33001H28.19V3.81001H29.71V2.29001H28.19V0.76001H26.67Z" fill="#000001"/>
<path d="M26.67 8.38H25.14V9.91H26.67V8.38Z" fill="#000001"/>
<path d="M25.14 26.67H23.62V28.19H22.09V29.72H23.62V31.24H25.14V29.72H26.67V28.19H25.14V26.67Z" fill="#000001"/>
<path d="M25.14 19.05H23.62V20.57H25.14V19.05Z" fill="#000001"/>
<path d="M22.09 22.1H12.95V23.62H20.57V25.14H22.09V22.1Z" fill="#000001"/>
<path d="M12.95 8.38002V9.91002H22.09V6.86002H20.57V8.38002H12.95Z" fill="#000001"/>
<path d="M20.57 25.14H17.52V26.67H20.57V25.14Z" fill="#000001"/>
<path d="M19.05 19.05V17.53H20.57V16H19.05V14.48H17.52V16H16V17.53H17.52V19.05H19.05Z" fill="#000001"/>
<path d="M20.57 5.33002H17.52V6.86002H20.57V5.33002Z" fill="#000001"/>
<path d="M17.52 26.67H9.90002V28.19H17.52V26.67Z" fill="#000001"/>
<path d="M12.95 20.57H11.43V22.1H12.95V20.57Z" fill="#000001"/>
<path d="M12.95 9.91H11.43V11.43H12.95V9.91Z" fill="#000001"/>
<path d="M17.52 3.81H9.90002V5.33H17.52V3.81Z" fill="#000001"/>
<path d="M11.43 11.43H9.90002V20.57H11.43V11.43Z" fill="#000001"/>
<path d="M9.90002 25.14H6.86002V26.67H9.90002V25.14Z" fill="#000001"/>
<path d="M9.90002 5.33002H6.86002V6.86002H9.90002V5.33002Z" fill="#000001"/>
<path d="M6.86002 23.62H5.33002V25.14H6.86002V23.62Z" fill="#000001"/>
<path d="M6.86002 6.86002H5.33002V8.38002H6.86002V6.86002Z" fill="#000001"/>
<path d="M5.33 20.57H3.81V23.62H5.33V20.57Z" fill="#000001"/>
<path d="M5.33 8.38H3.81V11.43H5.33V8.38Z" fill="#000001"/>
<path d="M3.81001 29.72H2.29001V31.24H3.81001V29.72Z" fill="#000001"/>
<path d="M3.81001 11.43H2.29001V20.57H3.81001V11.43Z" fill="#000001"/>
<path d="M2.29001 3.81H0.76001V5.33H2.29001V3.81Z" fill="#000001"/>
</g>
<defs>
<clipPath id="clip0_1138_101082">
<rect width="32" height="32" fill="white"/>
</clipPath>
</defs>
</svg>
