<svg width="32" height="32" viewBox="0 0 32 32" fill="none" xmlns="http://www.w3.org/2000/svg">
<path d="M27.43 19.81H25.91V24.38H27.43V19.81Z" fill="#000001"/>
<path d="M25.91 24.38H24.38V27.43H25.91V24.38Z" fill="#000001"/>
<path d="M25.91 16.77H24.38V19.81H25.91V16.77Z" fill="#000001"/>
<path d="M24.38 27.43H22.86V28.96H24.38V27.43Z" fill="#000001"/>
<path d="M24.38 15.24H22.86V16.77H24.38V15.24Z" fill="#000001"/>
<path d="M22.86 13.72H21.33V15.24H22.86V13.72Z" fill="#000001"/>
<path d="M22.86 28.96H19.81V30.48H22.86V28.96Z" fill="#000001"/>
<path d="M21.33 12.19H19.81V13.72H21.33V12.19Z" fill="#000001"/>
<path d="M19.81 7.62H18.29V9.14999H19.81V7.62Z" fill="#000001"/>
<path d="M19.81 30.48H12.19V32H19.81V30.48Z" fill="#000001"/>
<path d="M16.76 24.38H15.24V25.91H13.72V27.43H15.24V28.96H16.76V27.43H18.29V25.91H16.76V24.38Z" fill="#000001"/>
<path d="M16.76 16.77H15.24V18.29H13.72V19.81H15.24V21.34H16.76V19.81H18.29V18.29H16.76V16.77Z" fill="#000001"/>
<path d="M18.29 10.67H13.72V12.19H18.29V10.67Z" fill="#000001"/>
<path d="M19.81 4.57V6.1H21.33V12.19H22.86V7.62H24.38V6.1H25.91V3.05H24.38V1.53H22.86V0H19.81V1.53H18.29V3.05H12.19V4.57H19.81Z" fill="#000001"/>
<path d="M13.72 7.62H12.19V9.14999H13.72V7.62Z" fill="#000001"/>
<path d="M12.19 28.96H9.14001V30.48H12.19V28.96Z" fill="#000001"/>
<path d="M12.19 12.19H10.67V13.72H12.19V12.19Z" fill="#000001"/>
<path d="M12.19 4.57001H10.67V6.10001H12.19V4.57001Z" fill="#000001"/>
<path d="M10.67 13.72H9.14001V15.24H10.67V13.72Z" fill="#000001"/>
<path d="M10.67 6.10001H9.14001V12.19H10.67V6.10001Z" fill="#000001"/>
<path d="M9.14001 27.43H7.62001V28.96H9.14001V27.43Z" fill="#000001"/>
<path d="M9.14001 15.24H7.62001V16.77H9.14001V15.24Z" fill="#000001"/>
<path d="M7.62001 24.38H6.10001V27.43H7.62001V24.38Z" fill="#000001"/>
<path d="M7.62001 16.77H6.10001V19.81H7.62001V16.77Z" fill="#000001"/>
<path d="M6.10001 19.81H4.57001V24.38H6.10001V19.81Z" fill="#000001"/>
</svg>
