<svg width="32" height="32" viewBox="0 0 32 32" fill="none" xmlns="http://www.w3.org/2000/svg">
<g clip-path="url(#clip0_1138_101036)">
<path d="M32 9.14999H30.47V10.67H32V9.14999Z" fill="#000001"/>
<path d="M32 4.57001H30.47V6.10001H32V4.57001Z" fill="#000001"/>
<path d="M32 0H30.47V1.53H32V0Z" fill="#000001"/>
<path d="M30.47 13.72H28.95V15.24H30.47V13.72Z" fill="#000001"/>
<path d="M30.47 6.10001H28.95V7.62001H30.47V6.10001Z" fill="#000001"/>
<path d="M30.47 1.53H28.95V3.05H30.47V1.53Z" fill="#000001"/>
<path d="M28.95 15.24H27.43V16.77H28.95V15.24Z" fill="#000001"/>
<path d="M28.95 7.62H27.43V9.14999H28.95V7.62Z" fill="#000001"/>
<path d="M28.95 3.04999H27.43V4.56999H28.95V3.04999Z" fill="#000001"/>
<path d="M27.43 16.77H25.9V19.81H27.43V16.77Z" fill="#000001"/>
<path d="M27.43 10.67H25.9V12.19H27.43V10.67Z" fill="#000001"/>
<path d="M27.43 4.57001H25.9V6.10001H27.43V4.57001Z" fill="#000001"/>
<path d="M27.43 0H25.9V1.53H27.43V0Z" fill="#000001"/>
<path d="M25.9 19.81H24.38V22.86H25.9V19.81Z" fill="#000001"/>
<path d="M25.9 12.19H24.38V13.72H25.9V12.19Z" fill="#000001"/>
<path d="M25.9 6.10001H24.38V7.62001H25.9V6.10001Z" fill="#000001"/>
<path d="M25.9 1.53H24.38V3.05H25.9V1.53Z" fill="#000001"/>
<path d="M24.38 22.86H22.85V25.91H24.38V22.86Z" fill="#000001"/>
<path d="M24.38 3.04999H22.85V4.56999H24.38V3.04999Z" fill="#000001"/>
<path d="M22.85 15.24H21.33V16.77H22.85V15.24Z" fill="#000001"/>
<path d="M22.85 9.14999H21.33V10.67H22.85V9.14999Z" fill="#000001"/>
<path d="M22.85 0H21.33V1.53H22.85V0Z" fill="#000001"/>
<path d="M22.85 25.91H19.81V27.43H22.85V25.91Z" fill="#000001"/>
<path d="M21.33 4.57001H19.81V6.10001H21.33V4.57001Z" fill="#000001"/>
<path d="M21.33 1.53H19.81V3.05H21.33V1.53Z" fill="#000001"/>
<path d="M19.81 27.43H18.28V28.96H19.81V27.43Z" fill="#000001"/>
<path d="M19.81 12.19H18.28V13.72H19.81V12.19Z" fill="#000001"/>
<path d="M18.28 7.62H16.76V9.14999H18.28V7.62Z" fill="#000001"/>
<path d="M18.28 1.53H16.76V3.05H18.28V1.53Z" fill="#000001"/>
<path d="M18.28 28.96H15.24V30.48H18.28V28.96Z" fill="#000001"/>
<path d="M16.76 9.14999H15.24V10.67H16.76V9.14999Z" fill="#000001"/>
<path d="M16.76 3.04999H13.71V4.56999H16.76V3.04999Z" fill="#000001"/>
<path d="M15.24 30.48H9.14001V32H15.24V30.48Z" fill="#000001"/>
<path d="M13.71 4.57001H12.19V6.10001H13.71V4.57001Z" fill="#000001"/>
<path d="M12.19 6.10001H9.14001V7.62001H12.19V6.10001Z" fill="#000001"/>
<path d="M15.24 27.43V25.91H16.76V24.38H18.28V22.86H19.81V16.77H18.28V15.24H16.76V13.72H15.24V12.19H9.14001V13.72H7.62001V15.24H6.09001V16.77H4.57001V22.86H6.09001V24.38H7.62001V25.91H9.14001V27.43H15.24ZM12.19 15.24H15.24V16.77H16.76V18.29H18.28V21.34H16.76V18.29H15.24V16.77H12.19V15.24Z" fill="#000001"/>
<path d="M9.14001 28.96H4.57001V30.48H9.14001V28.96Z" fill="#000001"/>
<path d="M9.14 7.62H6.09V9.14999H9.14V7.62Z" fill="#000001"/>
<path d="M6.09001 9.14999H4.57001V10.67H6.09001V9.14999Z" fill="#000001"/>
<path d="M4.56999 27.43H3.04999V28.96H4.56999V27.43Z" fill="#000001"/>
<path d="M4.56999 10.67H3.04999V12.19H4.56999V10.67Z" fill="#000001"/>
<path d="M3.04999 24.38H1.51999V27.43H3.04999V24.38Z" fill="#000001"/>
<path d="M3.04999 12.19H1.51999V15.24H3.04999V12.19Z" fill="#000001"/>
<path d="M1.52 15.24H0V24.38H1.52V15.24Z" fill="#000001"/>
</g>
<defs>
<clipPath id="clip0_1138_101036">
<rect width="32" height="32" fill="white"/>
</clipPath>
</defs>
</svg>
