<svg width="32" height="32" viewBox="0 0 32 32" fill="none" xmlns="http://www.w3.org/2000/svg">
<g clip-path="url(#clip0_1138_100988)">
<path d="M29.715 8.385H22.095V9.905H17.525V11.425H14.475V12.955H12.955V14.475H11.425V17.525H9.905V22.095H8.385V29.715H2.285V31.235H19.045V29.715H12.955V22.095H14.475V19.045H16.005V17.525H17.525V16.005H19.045V14.475H22.095V12.955H29.715V19.045H31.235V2.285H29.715V8.385Z" fill="#000001"/>
<path d="M29.715 19.045H22.095V20.575H29.715V19.045Z" fill="#000001"/>
<path d="M29.715 0.765015H22.095V2.28501H29.715V0.765015Z" fill="#000001"/>
<path d="M22.095 20.575H20.575V22.095H22.095V20.575Z" fill="#000001"/>
<path d="M20.575 22.095H19.045V29.715H20.575V22.095Z" fill="#000001"/>
<path d="M22.095 2.285H17.525V3.805H22.095V2.285Z" fill="#000001"/>
<path d="M17.525 3.80502H12.955V5.33502H17.525V3.80502Z" fill="#000001"/>
<path d="M12.955 5.33502H9.90503V6.85502H12.955V5.33502Z" fill="#000001"/>
<path d="M9.90501 6.85501H8.38501V8.38501H9.90501V6.85501Z" fill="#000001"/>
<path d="M8.38501 8.38501H6.85501V9.90501H8.38501V8.38501Z" fill="#000001"/>
<path d="M6.85502 9.90503H5.33502V12.955H6.85502V9.90503Z" fill="#000001"/>
<path d="M5.335 12.955H3.815V17.525H5.335V12.955Z" fill="#000001"/>
<path d="M3.815 17.525H2.285V22.095H3.815V17.525Z" fill="#000001"/>
<path d="M2.28501 22.095H0.765015V29.715H2.28501V22.095Z" fill="#000001"/>
</g>
<defs>
<clipPath id="clip0_1138_100988">
<rect width="32" height="32" fill="white"/>
</clipPath>
</defs>
</svg>
