<svg width="32" height="32" viewBox="0 0 32 32" fill="none" xmlns="http://www.w3.org/2000/svg">
<path d="M32 19.055H30.47V25.145H32V19.055Z" fill="#000001"/>
<path d="M32 11.435H28.95V12.955H32V11.435Z" fill="#000001"/>
<path d="M30.47 25.145H28.95V26.675H30.47V25.145Z" fill="#000001"/>
<path d="M30.47 17.525H28.95V19.055H30.47V17.525Z" fill="#000001"/>
<path d="M30.47 3.815H28.95V5.335H30.47V3.815Z" fill="#000001"/>
<path d="M28.95 26.675H27.43V28.195H28.95V26.675Z" fill="#000001"/>
<path d="M28.95 16.005H27.43V17.525H28.95V16.005Z" fill="#000001"/>
<path d="M28.95 5.33499H27.43V6.86499H28.95V5.33499Z" fill="#000001"/>
<path d="M27.43 28.195H3.04999V29.715H27.43V28.195Z" fill="#000001"/>
<path d="M22.85 16.005H21.33V17.525H22.85V16.005Z" fill="#000001"/>
<path d="M22.85 2.285H21.33V5.335H22.85V2.285Z" fill="#000001"/>
<path d="M21.33 17.525H19.81V19.055H21.33V17.525Z" fill="#000001"/>
<path d="M16.76 5.33499H15.24V6.86499H16.76V5.33499Z" fill="#000001"/>
<path d="M15.24 3.815H13.71V5.335H15.24V3.815Z" fill="#000001"/>
<path d="M13.71 9.90499H18.28V11.435H21.33V12.955H22.85V16.005H27.43V9.90499H25.9V8.38499H24.38V6.86499H19.81V8.38499H12.19V9.90499H10.66V11.435H13.71V9.90499Z" fill="#000001"/>
<path d="M12.19 19.055H10.66V20.575H12.19V19.055Z" fill="#000001"/>
<path d="M10.66 17.525H9.14001V19.055H10.66V17.525Z" fill="#000001"/>
<path d="M10.66 11.435H9.14001V12.955H10.66V11.435Z" fill="#000001"/>
<path d="M9.13999 17.525V12.955H7.61999V16.005H3.04999V17.525H9.13999Z" fill="#000001"/>
<path d="M3.05002 26.675H1.52002V28.195H3.05002V26.675Z" fill="#000001"/>
<path d="M3.05002 17.525H1.52002V19.055H3.05002V17.525Z" fill="#000001"/>
<path d="M1.52 19.055H0V26.675H1.52V19.055Z" fill="#000001"/>
</svg>
